<svg xmlns="http://www.w3.org/2000/svg" viewBox="0 0 440 900" width="440" height="900" role="img"><title>Component wireframe: Trigger Type Picker, choose how a workflow starts</title><rect width="440" height="900" fill="#FFFFFF"/><rect x="10" y="10" width="420" height="880" rx="12" fill="#FFFFFF" stroke="#D8D8D8" stroke-width="1.2"/><text x="30" y="58" font-family="DM Sans, -apple-system, BlinkMacSystemFont, sans-serif" font-size="16" font-weight="700" fill="#111111" text-anchor="start">How should this workflow start?</text><rect x="30" y="76" width="380" height="34" rx="7" fill="#FFFFFF" stroke="#D8D8D8" stroke-width="1.2"/><text x="44" y="98" font-family="DM Sans, -apple-system, BlinkMacSystemFont, sans-serif" font-size="11.5" font-weight="600" fill="#111111" text-anchor="start">New Trigger</text><text x="394" y="99" font-family="DM Sans, -apple-system, BlinkMacSystemFont, sans-serif" font-size="11" font-weight="500" fill="#3D3D3D" text-anchor="start">✕</text><text x="30" y="146" font-family="DM Sans, -apple-system, BlinkMacSystemFont, sans-serif" font-size="13" font-weight="700" fill="#111111" text-anchor="start">Choose Trigger Type</text><rect x="324" y="130" width="86" height="26" rx="6" fill="#FFFFFF" stroke="#D8D8D8" stroke-width="1.2"/><text x="367" y="147" font-family="DM Sans, -apple-system, BlinkMacSystemFont, sans-serif" font-size="10.5" font-weight="600" fill="#3D3D3D" text-anchor="middle">View More</text><rect x="30" y="176" width="380" height="62" rx="8" fill="#FFFFFF" stroke="#D8D8D8" stroke-width="1.2"/><rect x="44" y="190" width="34" height="34" rx="7" fill="#FFFFFF" stroke="#D8D8D8" stroke-width="1.2"/><rect x="53.52" y="199.52" width="14.96" height="14.96" rx="2" fill="none" stroke="#8A8A8A" stroke-width="1.2"/><text x="90" y="205" font-family="DM Sans, -apple-system, BlinkMacSystemFont, sans-serif" font-size="12" font-weight="600" fill="#111111" text-anchor="start">By App</text><text x="90" y="219" font-family="DM Sans, -apple-system, BlinkMacSystemFont, sans-serif" font-size="9.6" font-weight="500" fill="#8A8A8A" text-anchor="start">Choose this to start your workflow</text><rect x="30" y="250" width="380" height="62" rx="8" fill="#FFFFFF" stroke="#D8D8D8" stroke-width="1.2"/><rect x="44" y="264" width="34" height="34" rx="7" fill="#FFFFFF" stroke="#D8D8D8" stroke-width="1.2"/><rect x="53.52" y="273.52" width="14.96" height="14.96" rx="2" fill="none" stroke="#8A8A8A" stroke-width="1.2"/><text x="90" y="279" font-family="DM Sans, -apple-system, BlinkMacSystemFont, sans-serif" font-size="12" font-weight="600" fill="#111111" text-anchor="start">Webhook</text><text x="90" y="293" font-family="DM Sans, -apple-system, BlinkMacSystemFont, sans-serif" font-size="9.6" font-weight="500" fill="#8A8A8A" text-anchor="start">Choose this to start your workflow</text><rect x="30" y="324" width="380" height="62" rx="8" fill="#FFFFFF" stroke="#D8D8D8" stroke-width="1.2"/><rect x="44" y="338" width="34" height="34" rx="7" fill="#FFFFFF" stroke="#D8D8D8" stroke-width="1.2"/><rect x="53.52" y="347.52" width="14.96" height="14.96" rx="2" fill="none" stroke="#8A8A8A" stroke-width="1.2"/><text x="90" y="353" font-family="DM Sans, -apple-system, BlinkMacSystemFont, sans-serif" font-size="12" font-weight="600" fill="#111111" text-anchor="start">Forms</text><text x="90" y="367" font-family="DM Sans, -apple-system, BlinkMacSystemFont, sans-serif" font-size="9.6" font-weight="500" fill="#8A8A8A" text-anchor="start">Choose this to start your workflow</text><rect x="30" y="398" width="380" height="62" rx="8" fill="#FFFFFF" stroke="#D8D8D8" stroke-width="1.2"/><rect x="44" y="412" width="34" height="34" rx="7" fill="#FFFFFF" stroke="#D8D8D8" stroke-width="1.2"/><rect x="53.52" y="421.52" width="14.96" height="14.96" rx="2" fill="none" stroke="#8A8A8A" stroke-width="1.2"/><text x="90" y="427" font-family="DM Sans, -apple-system, BlinkMacSystemFont, sans-serif" font-size="12" font-weight="600" fill="#111111" text-anchor="start">Schedule</text><text x="90" y="441" font-family="DM Sans, -apple-system, BlinkMacSystemFont, sans-serif" font-size="9.6" font-weight="500" fill="#8A8A8A" text-anchor="start">Choose this to start your workflow</text><rect x="30" y="472" width="380" height="62" rx="8" fill="#FFFFFF" stroke="#D8D8D8" stroke-width="1.2"/><rect x="44" y="486" width="34" height="34" rx="7" fill="#FFFFFF" stroke="#D8D8D8" stroke-width="1.2"/><rect x="53.52" y="495.52" width="14.96" height="14.96" rx="2" fill="none" stroke="#8A8A8A" stroke-width="1.2"/><text x="90" y="501" font-family="DM Sans, -apple-system, BlinkMacSystemFont, sans-serif" font-size="12" font-weight="600" fill="#111111" text-anchor="start">Link Or Button</text><text x="90" y="515" font-family="DM Sans, -apple-system, BlinkMacSystemFont, sans-serif" font-size="9.6" font-weight="500" fill="#8A8A8A" text-anchor="start">Choose an app to integrate into your thought</text><rect x="30" y="546" width="380" height="62" rx="8" fill="#FFFFFF" stroke="#D8D8D8" stroke-width="1.2"/><rect x="44" y="560" width="34" height="34" rx="7" fill="#FFFFFF" stroke="#D8D8D8" stroke-width="1.2"/><rect x="53.52" y="569.52" width="14.96" height="14.96" rx="2" fill="none" stroke="#8A8A8A" stroke-width="1.2"/><text x="90" y="575" font-family="DM Sans, -apple-system, BlinkMacSystemFont, sans-serif" font-size="12" font-weight="600" fill="#111111" text-anchor="start">Workflow</text><text x="90" y="589" font-family="DM Sans, -apple-system, BlinkMacSystemFont, sans-serif" font-size="9.6" font-weight="500" fill="#8A8A8A" text-anchor="start">Choose this to start your workflow</text><rect x="30" y="620" width="380" height="62" rx="8" fill="#FFFFFF" stroke="#D8D8D8" stroke-width="1.2"/><rect x="44" y="634" width="34" height="34" rx="7" fill="#FFFFFF" stroke="#D8D8D8" stroke-width="1.2"/><rect x="53.52" y="643.52" width="14.96" height="14.96" rx="2" fill="none" stroke="#8A8A8A" stroke-width="1.2"/><text x="90" y="649" font-family="DM Sans, -apple-system, BlinkMacSystemFont, sans-serif" font-size="12" font-weight="600" fill="#111111" text-anchor="start">Message</text><text x="90" y="663" font-family="DM Sans, -apple-system, BlinkMacSystemFont, sans-serif" font-size="9.6" font-weight="500" fill="#8A8A8A" text-anchor="start">Choose this to start your workflow</text><rect x="30" y="694" width="380" height="62" rx="8" fill="#FFFFFF" stroke="#D8D8D8" stroke-width="1.2"/><rect x="44" y="708" width="34" height="34" rx="7" fill="#FFFFFF" stroke="#D8D8D8" stroke-width="1.2"/><rect x="53.52" y="717.52" width="14.96" height="14.96" rx="2" fill="none" stroke="#8A8A8A" stroke-width="1.2"/><text x="90" y="723" font-family="DM Sans, -apple-system, BlinkMacSystemFont, sans-serif" font-size="12" font-weight="600" fill="#111111" text-anchor="start">Alert</text><text x="90" y="737" font-family="DM Sans, -apple-system, BlinkMacSystemFont, sans-serif" font-size="9.6" font-weight="500" fill="#8A8A8A" text-anchor="start">Choose an app to integrate into your thought</text><rect x="310" y="810" width="100" height="30" rx="7" fill="#2E2E2E" stroke="#2E2E2E" stroke-width="1.2"/><text x="360" y="830" font-family="DM Sans, -apple-system, BlinkMacSystemFont, sans-serif" font-size="11.5" font-weight="600" fill="#FFFFFF" text-anchor="middle">Continue</text></svg>
