<svg xmlns="http://www.w3.org/2000/svg" viewBox="0 0 1320 720" width="1320" height="720" role="img"><title>Component wireframe: Step Library popup — empty search results state</title><rect width="1320" height="720" fill="#FFFFFF"/><g transform="translate(10,10)"><defs><clipPath id="pp3"><rect x="0" y="0" width="1300" height="700" rx="12"/></clipPath></defs><g clip-path="url(#pp3)"><rect x="0" y="0" width="1300" height="700" rx="12" fill="#FFFFFF" stroke="none" stroke-width="1.2"/><rect x="0" y="0" width="300" height="700" rx="0" fill="#FCFCFC" stroke="none" stroke-width="1.2"/><path d="M300 0 L300 700" stroke="#D8D8D8" stroke-width="1.2" fill="none"/><rect x="24" y="28" width="252" height="38" rx="8" fill="#FFFFFF" stroke="#D8D8D8" stroke-width="1.2"/><circle cx="46" cy="47" r="6" fill="none" stroke="#8A8A8A" stroke-width="1.2"/><path d="M50 51 L54 55" stroke="#8A8A8A" stroke-width="1.4" fill="none"/><text x="66" y="51" font-family="DM Sans, -apple-system, BlinkMacSystemFont, sans-serif" font-size="12" font-weight="600" fill="#111111" text-anchor="start">xxxx</text><rect x="38" y="85" width="18" height="18" rx="4" fill="none" stroke="#8A8A8A" stroke-width="1.2"/><text x="72" y="99" font-family="DM Sans, -apple-system, BlinkMacSystemFont, sans-serif" font-size="12.5" font-weight="600" fill="#3D3D3D" text-anchor="start">Recently Used</text><rect x="38" y="129" width="18" height="18" rx="4" fill="none" stroke="#8A8A8A" stroke-width="1.2"/><text x="72" y="143" font-family="DM Sans, -apple-system, BlinkMacSystemFont, sans-serif" font-size="12.5" font-weight="600" fill="#3D3D3D" text-anchor="start">Popular</text><rect x="24" y="164" width="252" height="38" rx="8" fill="#EDEDED" stroke="none" stroke-width="1.2"/><rect x="38" y="173" width="18" height="18" rx="4" fill="none" stroke="#8A8A8A" stroke-width="1.2"/><text x="72" y="187" font-family="DM Sans, -apple-system, BlinkMacSystemFont, sans-serif" font-size="12.5" font-weight="700" fill="#111111" text-anchor="start">View All</text><path d="M24 226 L276 226" stroke="#E8E8E8" stroke-width="1.2" fill="none"/><rect x="38" y="253" width="18" height="18" rx="4" fill="none" stroke="#8A8A8A" stroke-width="1.2"/><text x="72" y="267" font-family="DM Sans, -apple-system, BlinkMacSystemFont, sans-serif" font-size="12.5" font-weight="600" fill="#3D3D3D" text-anchor="start">Triggers</text><rect x="224" y="252" width="44" height="20" rx="10" fill="#EDEDED" stroke="none" stroke-width="1.2"/><text x="246" y="267" font-family="DM Sans, -apple-system, BlinkMacSystemFont, sans-serif" font-size="10.5" font-weight="700" fill="#3D3D3D" text-anchor="middle">126</text><rect x="38" y="297" width="18" height="18" rx="4" fill="none" stroke="#8A8A8A" stroke-width="1.2"/><text x="72" y="311" font-family="DM Sans, -apple-system, BlinkMacSystemFont, sans-serif" font-size="12.5" font-weight="600" fill="#3D3D3D" text-anchor="start">Conditions</text><rect x="224" y="296" width="44" height="20" rx="10" fill="#EDEDED" stroke="none" stroke-width="1.2"/><text x="246" y="311" font-family="DM Sans, -apple-system, BlinkMacSystemFont, sans-serif" font-size="10.5" font-weight="700" fill="#3D3D3D" text-anchor="middle">52</text><rect x="38" y="341" width="18" height="18" rx="4" fill="none" stroke="#8A8A8A" stroke-width="1.2"/><text x="72" y="355" font-family="DM Sans, -apple-system, BlinkMacSystemFont, sans-serif" font-size="12.5" font-weight="600" fill="#3D3D3D" text-anchor="start">Actions</text><rect x="224" y="340" width="44" height="20" rx="10" fill="#EDEDED" stroke="none" stroke-width="1.2"/><text x="246" y="355" font-family="DM Sans, -apple-system, BlinkMacSystemFont, sans-serif" font-size="10.5" font-weight="700" fill="#3D3D3D" text-anchor="middle">294</text><rect x="38" y="385" width="18" height="18" rx="4" fill="none" stroke="#8A8A8A" stroke-width="1.2"/><text x="72" y="399" font-family="DM Sans, -apple-system, BlinkMacSystemFont, sans-serif" font-size="12.5" font-weight="600" fill="#3D3D3D" text-anchor="start">Filters</text><rect x="224" y="384" width="44" height="20" rx="10" fill="#EDEDED" stroke="none" stroke-width="1.2"/><text x="246" y="399" font-family="DM Sans, -apple-system, BlinkMacSystemFont, sans-serif" font-size="10.5" font-weight="700" fill="#3D3D3D" text-anchor="middle">46</text><path d="M24 436 L276 436" stroke="#E8E8E8" stroke-width="1.2" fill="none"/><text x="150" y="486" font-family="DM Sans, -apple-system, BlinkMacSystemFont, sans-serif" font-size="11" font-weight="500" fill="#8A8A8A" text-anchor="middle">Can't find what you're looking for?</text><text x="150" y="506" font-family="DM Sans, -apple-system, BlinkMacSystemFont, sans-serif" font-size="11" font-weight="500" fill="#8A8A8A" text-anchor="middle">Browse the marketplace</text><rect x="14" y="642" width="132" height="34" rx="8" fill="#FFFFFF" stroke="#D8D8D8" stroke-width="1.2"/><circle cx="34" cy="659" r="4" fill="#3D3D3D" stroke="#3D3D3D" stroke-width="1.2"/><text x="50" y="664" font-family="DM Sans, -apple-system, BlinkMacSystemFont, sans-serif" font-size="11.5" font-weight="600" fill="#111111" text-anchor="start">My Collection</text><rect x="156" y="642" width="130" height="34" rx="8" fill="#FFFFFF" stroke="#D8D8D8" stroke-width="1.2"/><rect x="172" y="652" width="14" height="14" rx="3" fill="none" stroke="#3D3D3D" stroke-width="1.2"/><text x="196" y="664" font-family="DM Sans, -apple-system, BlinkMacSystemFont, sans-serif" font-size="11.5" font-weight="600" fill="#111111" text-anchor="start">Marketplace</text><text x="336" y="44" font-family="DM Sans, -apple-system, BlinkMacSystemFont, sans-serif" font-size="18" font-weight="700" fill="#111111" text-anchor="start">Add a workflow step</text><text x="1264" y="44" font-family="DM Sans, -apple-system, BlinkMacSystemFont, sans-serif" font-size="14" font-weight="500" fill="#3D3D3D" text-anchor="middle">✕</text><path d="M300 72 L1300 72" stroke="#E8E8E8" stroke-width="1.2" fill="none"/><text x="407" y="99" font-family="DM Sans, -apple-system, BlinkMacSystemFont, sans-serif" font-size="12.5" font-weight="700" fill="#111111" text-anchor="middle">Triggers</text><rect x="437" y="86" width="38" height="18" rx="9" fill="#EDEDED" stroke="none" stroke-width="1.2"/><text x="456" y="99" font-family="DM Sans, -apple-system, BlinkMacSystemFont, sans-serif" font-size="10" font-weight="700" fill="#3D3D3D" text-anchor="middle">126</text><rect x="304" y="112" width="242" height="2.5" rx="1.2" fill="#111111"/><text x="657" y="99" font-family="DM Sans, -apple-system, BlinkMacSystemFont, sans-serif" font-size="12.5" font-weight="500" fill="#8A8A8A" text-anchor="middle">Conditions</text><rect x="687" y="86" width="38" height="18" rx="9" fill="#EDEDED" stroke="none" stroke-width="1.2"/><text x="706" y="99" font-family="DM Sans, -apple-system, BlinkMacSystemFont, sans-serif" font-size="10" font-weight="700" fill="#3D3D3D" text-anchor="middle">52</text><text x="907" y="99" font-family="DM Sans, -apple-system, BlinkMacSystemFont, sans-serif" font-size="12.5" font-weight="500" fill="#8A8A8A" text-anchor="middle">Actions</text><rect x="937" y="86" width="38" height="18" rx="9" fill="#EDEDED" stroke="none" stroke-width="1.2"/><text x="956" y="99" font-family="DM Sans, -apple-system, BlinkMacSystemFont, sans-serif" font-size="10" font-weight="700" fill="#3D3D3D" text-anchor="middle">294</text><text x="1157" y="99" font-family="DM Sans, -apple-system, BlinkMacSystemFont, sans-serif" font-size="12.5" font-weight="500" fill="#8A8A8A" text-anchor="middle">Filters</text><rect x="1187" y="86" width="38" height="18" rx="9" fill="#EDEDED" stroke="none" stroke-width="1.2"/><text x="1206" y="99" font-family="DM Sans, -apple-system, BlinkMacSystemFont, sans-serif" font-size="10" font-weight="700" fill="#3D3D3D" text-anchor="middle">46</text><path d="M300 114 L1300 114" stroke="#E8E8E8" stroke-width="1.2" fill="none"/><text x="336" y="152" font-family="DM Sans, -apple-system, BlinkMacSystemFont, sans-serif" font-size="14" font-weight="700" fill="#111111" text-anchor="start">0 Search Results</text><circle cx="826" cy="324" r="62" fill="none" stroke="#EDEDED" stroke-width="18"/><path d="M782.159379566434 367.84062043356596 L736.159379566434 413.84062043356596" stroke="#EDEDED" stroke-width="18" fill="none"/><path d="M804 302 L848 346 M848 302 L804 346" stroke="#EDEDED" stroke-width="18" stroke-linecap="round"/><text x="800" y="540" font-family="DM Sans, -apple-system, BlinkMacSystemFont, sans-serif" font-size="14" font-weight="600" fill="#111111" text-anchor="middle">There are no search results for 'xxxx'</text></g><rect x="0.9" y="0.9" width="1298.2" height="698.2" rx="12" fill="none" stroke="#D8D8D8" stroke-width="1.8"/></g></svg>
