<svg xmlns="http://www.w3.org/2000/svg" viewBox="0 0 440 900" width="440" height="900" role="img"><title>Component wireframe: Condition Builder, AND/OR rules with save and clear actions</title><rect width="440" height="900" fill="#FFFFFF"/><rect x="14" y="14" width="412" height="872" rx="12" fill="#FFFFFF" stroke="#D8D8D8" stroke-width="1.2"/><rect x="30" y="44" width="44" height="44" rx="7" fill="#FFFFFF" stroke="#D8D8D8" stroke-width="1.2"/><rect x="42.32" y="56.32" width="19.36" height="19.36" rx="2" fill="none" stroke="#8A8A8A" stroke-width="1.2"/><text x="86" y="68" font-family="DM Sans, -apple-system, BlinkMacSystemFont, sans-serif" font-size="16" font-weight="700" fill="#111111" text-anchor="start">Trigger Name</text><text x="86" y="86" font-family="DM Sans, -apple-system, BlinkMacSystemFont, sans-serif" font-size="10.5" font-weight="500" fill="#8A8A8A" text-anchor="start">Trigger short description here</text><path d="M348 62 l-7 0 M344 58 l-4 4 4 4" stroke="#3D3D3D" stroke-width="1.4" fill="none" stroke-linecap="round" stroke-linejoin="round"/><text x="358" y="66" font-family="DM Sans, -apple-system, BlinkMacSystemFont, sans-serif" font-size="12" font-weight="700" fill="#3D3D3D" text-anchor="start">Back</text><path d="M20 108 L420 108" stroke="#E8E8E8" stroke-width="1.2" fill="none"/><circle cx="14" cy="140" r="13" fill="#FFFFFF" stroke="#D8D8D8" stroke-width="1.2"/><path d="M11.5 134 l5 6 -5 6" stroke="#3D3D3D" stroke-width="1.3" fill="none" stroke-linecap="round" stroke-linejoin="round"/><text x="93.33333333333334" y="146" font-family="DM Sans, -apple-system, BlinkMacSystemFont, sans-serif" font-size="11.5" font-weight="500" fill="#8A8A8A" text-anchor="middle">Setup</text><circle cx="120.33333333333334" cy="142" r="5.5" fill="#FFFFFF" stroke="#111111" stroke-width="1.3"/><path d="M120.33333333333334 138.6 v3.8 M120.33333333333334 144.8 v0.7" stroke="#111111" stroke-width="1.4" stroke-linecap="round"/><text x="220.00000000000003" y="146" font-family="DM Sans, -apple-system, BlinkMacSystemFont, sans-serif" font-size="11.5" font-weight="700" fill="#111111" text-anchor="middle">Conditions</text><circle cx="264" cy="142" r="5.5" fill="#FFFFFF" stroke="#111111" stroke-width="1.3"/><path d="M264 138.6 v3.8 M264 144.8 v0.7" stroke="#111111" stroke-width="1.4" stroke-linecap="round"/><text x="346.6666666666667" y="146" font-family="DM Sans, -apple-system, BlinkMacSystemFont, sans-serif" font-size="11.5" font-weight="500" fill="#8A8A8A" text-anchor="middle">Test</text><path d="M30 158 L410 158" stroke="#E8E8E8" stroke-width="1.2" fill="none"/><rect x="186.00000000000003" y="156" width="68" height="2.5" rx="1.2" fill="#111111"/><text x="30" y="198" font-family="DM Sans, -apple-system, BlinkMacSystemFont, sans-serif" font-size="12.5" font-weight="500" fill="#3D3D3D" text-anchor="start">Only continue if</text><rect x="126" y="182" width="74" height="26" rx="6" fill="#FFFFFF" stroke="#D8D8D8" stroke-width="1.2"/><text x="140" y="199" font-family="DM Sans, -apple-system, BlinkMacSystemFont, sans-serif" font-size="11.5" font-weight="700" fill="#111111" text-anchor="start">ALL</text><path d="M180 192 l3.6 4 3.6 -4" stroke="#3D3D3D" stroke-width="1.3" fill="none" stroke-linecap="round" stroke-linejoin="round"/><text x="208" y="198" font-family="DM Sans, -apple-system, BlinkMacSystemFont, sans-serif" font-size="12.5" font-weight="500" fill="#3D3D3D" text-anchor="start">of the following</text><text x="30" y="220" font-family="DM Sans, -apple-system, BlinkMacSystemFont, sans-serif" font-size="12.5" font-weight="500" fill="#3D3D3D" text-anchor="start">conditions are met:</text><rect x="30" y="240" width="380" height="56" rx="8" fill="#F4F4F4" stroke="#E8E8E8" stroke-width="1.2"/><rect x="44" y="254" width="172" height="28" rx="6" fill="#FFFFFF" stroke="#D8D8D8" stroke-width="1.2"/><rect x="52" y="259" width="18" height="18" rx="7" fill="#FFFFFF" stroke="#D8D8D8" stroke-width="1.2"/><rect x="57.04" y="264.04" width="7.92" height="7.92" rx="2" fill="none" stroke="#8A8A8A" stroke-width="1.2"/><text x="78" y="273" font-family="DM Sans, -apple-system, BlinkMacSystemFont, sans-serif" font-size="11" font-weight="700" fill="#111111" text-anchor="start">Id greater than</text><rect x="224" y="254" width="28" height="28" rx="6" fill="#FFFFFF" stroke="#D8D8D8" stroke-width="1.2"/><text x="238" y="273" font-family="DM Sans, -apple-system, BlinkMacSystemFont, sans-serif" font-size="13" font-weight="500" fill="#3D3D3D" text-anchor="middle">+</text><text x="30" y="322" font-family="DM Sans, -apple-system, BlinkMacSystemFont, sans-serif" font-size="14" font-weight="700" fill="#111111" text-anchor="start">+</text><text x="44" y="322" font-family="DM Sans, -apple-system, BlinkMacSystemFont, sans-serif" font-size="12.5" font-weight="700" fill="#111111" text-anchor="start">Add Condition</text><text x="410" y="322" font-family="DM Sans, -apple-system, BlinkMacSystemFont, sans-serif" font-size="12.5" font-weight="600" fill="#8A8A8A" text-anchor="end">Clear All Conditions</text><rect x="280" y="828" width="130" height="32" rx="7" fill="#FFFFFF" stroke="#D8D8D8" stroke-width="1.2"/><rect x="292" y="838" width="12" height="12" rx="2" fill="none" stroke="#3D3D3D" stroke-width="1.2"/><text x="310" y="849" font-family="DM Sans, -apple-system, BlinkMacSystemFont, sans-serif" font-size="11.5" font-weight="700" fill="#111111" text-anchor="start">Save Conditions</text></svg>
