<svg xmlns="http://www.w3.org/2000/svg" viewBox="0 0 440 460" width="440" height="460" role="img"><title>Component wireframe: nested AND/OR condition groups with the ANY/ALL selector open</title><rect width="440" height="460" fill="#FFFFFF"/><rect x="20" y="20" width="400" height="420" rx="10" fill="#FFFFFF" stroke="#D8D8D8" stroke-width="1.2"/><text x="36" y="52" font-family="DM Sans, -apple-system, BlinkMacSystemFont, sans-serif" font-size="11" font-weight="500" fill="#3D3D3D" text-anchor="start">Only continue if</text><rect x="138" y="38" width="66" height="30" rx="6" fill="#FFFFFF" stroke="#D8D8D8" stroke-width="1.2"/><text x="150" y="57" font-family="DM Sans, -apple-system, BlinkMacSystemFont, sans-serif" font-size="11" font-weight="700" fill="#111111" text-anchor="start">ALL</text><path d="M182 50 l3.6 4 3.6 -4" stroke="#3D3D3D" stroke-width="1.3" fill="none" stroke-linecap="round" stroke-linejoin="round"/><text x="224" y="52" font-family="DM Sans, -apple-system, BlinkMacSystemFont, sans-serif" font-size="11" font-weight="500" fill="#3D3D3D" text-anchor="start">of the following</text><text x="36" y="74" font-family="DM Sans, -apple-system, BlinkMacSystemFont, sans-serif" font-size="11" font-weight="500" fill="#3D3D3D" text-anchor="start">conditions are met:</text><rect x="36" y="88" width="368" height="124" rx="8" fill="#F4F4F4" stroke="#E8E8E8" stroke-width="1.2"/><rect x="48" y="98" width="150" height="30" rx="6" fill="#FFFFFF" stroke="#D8D8D8" stroke-width="1.2"/><rect x="56" y="104" width="18" height="18" rx="7" fill="#FFFFFF" stroke="#D8D8D8" stroke-width="1.2"/><rect x="61.04" y="109.04" width="7.92" height="7.92" rx="2" fill="none" stroke="#8A8A8A" stroke-width="1.2"/><text x="82" y="117" font-family="DM Sans, -apple-system, BlinkMacSystemFont, sans-serif" font-size="11" font-weight="700" fill="#111111" text-anchor="start">Id contains</text><rect x="48" y="134" width="56" height="30" rx="6" fill="#FFFFFF" stroke="#D8D8D8" stroke-width="1.2"/><text x="60" y="153" font-family="DM Sans, -apple-system, BlinkMacSystemFont, sans-serif" font-size="11" font-weight="700" fill="#111111" text-anchor="start">OR</text><path d="M82 146 l3.6 4 3.6 -4" stroke="#3D3D3D" stroke-width="1.3" fill="none" stroke-linecap="round" stroke-linejoin="round"/><rect x="116" y="134" width="150" height="30" rx="6" fill="#FFFFFF" stroke="#D8D8D8" stroke-width="1.2"/><rect x="124" y="140" width="18" height="18" rx="7" fill="#FFFFFF" stroke="#D8D8D8" stroke-width="1.2"/><rect x="129.04" y="145.04" width="7.92" height="7.92" rx="2" fill="none" stroke="#8A8A8A" stroke-width="1.2"/><text x="150" y="153" font-family="DM Sans, -apple-system, BlinkMacSystemFont, sans-serif" font-size="11" font-weight="700" fill="#111111" text-anchor="start">Id contains</text><rect x="48" y="170" width="56" height="30" rx="6" fill="#FFFFFF" stroke="#D8D8D8" stroke-width="1.2"/><text x="60" y="189" font-family="DM Sans, -apple-system, BlinkMacSystemFont, sans-serif" font-size="11" font-weight="700" fill="#111111" text-anchor="start">OR</text><path d="M82 182 l3.6 4 3.6 -4" stroke="#3D3D3D" stroke-width="1.3" fill="none" stroke-linecap="round" stroke-linejoin="round"/><rect x="116" y="170" width="150" height="30" rx="6" fill="#FFFFFF" stroke="#D8D8D8" stroke-width="1.2"/><rect x="124" y="176" width="18" height="18" rx="7" fill="#FFFFFF" stroke="#D8D8D8" stroke-width="1.2"/><rect x="129.04" y="181.04" width="7.92" height="7.92" rx="2" fill="none" stroke="#8A8A8A" stroke-width="1.2"/><text x="150" y="189" font-family="DM Sans, -apple-system, BlinkMacSystemFont, sans-serif" font-size="11" font-weight="700" fill="#111111" text-anchor="start">Id contains</text><rect x="278" y="170" width="28" height="30" rx="6" fill="#FFFFFF" stroke="#D8D8D8" stroke-width="1.2"/><text x="292" y="189" font-family="DM Sans, -apple-system, BlinkMacSystemFont, sans-serif" font-size="13" font-weight="500" fill="#3D3D3D" text-anchor="middle">+</text><rect x="187" y="224" width="66" height="30" rx="6" fill="#FFFFFF" stroke="#D8D8D8" stroke-width="1.2"/><text x="199" y="243" font-family="DM Sans, -apple-system, BlinkMacSystemFont, sans-serif" font-size="11" font-weight="700" fill="#111111" text-anchor="start">AND</text><path d="M231 236 l3.6 4 3.6 -4" stroke="#3D3D3D" stroke-width="1.3" fill="none" stroke-linecap="round" stroke-linejoin="round"/><rect x="36" y="268" width="368" height="88" rx="8" fill="#F4F4F4" stroke="#E8E8E8" stroke-width="1.2"/><rect x="48" y="278" width="150" height="30" rx="6" fill="#FFFFFF" stroke="#D8D8D8" stroke-width="1.2"/><rect x="56" y="284" width="18" height="18" rx="7" fill="#FFFFFF" stroke="#D8D8D8" stroke-width="1.2"/><rect x="61.04" y="289.04" width="7.92" height="7.92" rx="2" fill="none" stroke="#8A8A8A" stroke-width="1.2"/><text x="82" y="297" font-family="DM Sans, -apple-system, BlinkMacSystemFont, sans-serif" font-size="11" font-weight="700" fill="#111111" text-anchor="start">Id contains</text><rect x="48" y="314" width="56" height="30" rx="6" fill="#FFFFFF" stroke="#D8D8D8" stroke-width="1.2"/><text x="60" y="333" font-family="DM Sans, -apple-system, BlinkMacSystemFont, sans-serif" font-size="11" font-weight="700" fill="#111111" text-anchor="start">OR</text><path d="M82 326 l3.6 4 3.6 -4" stroke="#3D3D3D" stroke-width="1.3" fill="none" stroke-linecap="round" stroke-linejoin="round"/><rect x="116" y="314" width="150" height="30" rx="6" fill="#FFFFFF" stroke="#D8D8D8" stroke-width="1.2"/><rect x="124" y="320" width="18" height="18" rx="7" fill="#FFFFFF" stroke="#D8D8D8" stroke-width="1.2"/><rect x="129.04" y="325.04" width="7.92" height="7.92" rx="2" fill="none" stroke="#8A8A8A" stroke-width="1.2"/><text x="150" y="333" font-family="DM Sans, -apple-system, BlinkMacSystemFont, sans-serif" font-size="11" font-weight="700" fill="#111111" text-anchor="start">Id contains</text><rect x="278" y="314" width="28" height="30" rx="6" fill="#FFFFFF" stroke="#D8D8D8" stroke-width="1.2"/><text x="292" y="333" font-family="DM Sans, -apple-system, BlinkMacSystemFont, sans-serif" font-size="13" font-weight="500" fill="#3D3D3D" text-anchor="middle">+</text><text x="36" y="386" font-family="DM Sans, -apple-system, BlinkMacSystemFont, sans-serif" font-size="13" font-weight="700" fill="#111111" text-anchor="start">+</text><text x="50" y="386" font-family="DM Sans, -apple-system, BlinkMacSystemFont, sans-serif" font-size="11.5" font-weight="700" fill="#111111" text-anchor="start">Add Condition</text><text x="404" y="386" font-family="DM Sans, -apple-system, BlinkMacSystemFont, sans-serif" font-size="11.5" font-weight="600" fill="#8A8A8A" text-anchor="end">Clear All Conditions</text><rect x="138" y="72" width="108" height="62" rx="8" fill="#FFFFFF" stroke="#D8D8D8" stroke-width="1.2"/><text x="152" y="93" font-family="DM Sans, -apple-system, BlinkMacSystemFont, sans-serif" font-size="11.5" font-weight="600" fill="#3D3D3D" text-anchor="start">ANY</text><text x="152" y="121" font-family="DM Sans, -apple-system, BlinkMacSystemFont, sans-serif" font-size="11.5" font-weight="700" fill="#111111" text-anchor="start">ALL</text><path d="M214 116 l4 4.5 8 -9" stroke="#111111" stroke-width="1.8" fill="none" stroke-linecap="round" stroke-linejoin="round"/></svg>
