<svg xmlns="http://www.w3.org/2000/svg" viewBox="0 0 930 589" width="930" height="589" role="img"><title>Wireframe: Path Naming and Merge v2, named Path 1 and Path 2 chips</title><rect width="930" height="589" fill="#FFFFFF"/><rect x="0" y="0" width="930" height="34" rx="0" fill="#FFFFFF" stroke="none" stroke-width="1"/><path d="M0 34 L930 34" stroke="#D8D8D8" stroke-width="1" fill="none"/><rect x="10" y="8" width="18" height="18" rx="4" fill="#F1F1F1" stroke="#D8D8D8" stroke-width="1"/><path d="M22 17 l-5 0 M19.5 14.5 l-2.5 2.5 2.5 2.5" stroke="#3D3D3D" stroke-width="1.1" fill="none" stroke-linecap="round" stroke-linejoin="round"/><text x="34" y="20" font-family="DM Sans, -apple-system, BlinkMacSystemFont, sans-serif" font-size="10" font-weight="700" fill="#111111" text-anchor="start">Test Workflow</text><rect x="808" y="8" width="20" height="18" rx="4" fill="#FFFFFF" stroke="#D8D8D8" stroke-width="1"/><text x="818" y="20" font-family="DM Sans, -apple-system, BlinkMacSystemFont, sans-serif" font-size="9" font-weight="500" fill="#3D3D3D" text-anchor="middle">…</text><rect x="834" y="8" width="46" height="18" rx="4" fill="#2E2E2E" stroke="#2E2E2E" stroke-width="1"/><text x="857" y="20" font-family="DM Sans, -apple-system, BlinkMacSystemFont, sans-serif" font-size="7.5" font-weight="600" fill="#FFFFFF" text-anchor="middle">Publish</text><text x="900" y="20" font-family="DM Sans, -apple-system, BlinkMacSystemFont, sans-serif" font-size="8" font-weight="500" fill="#3D3D3D" text-anchor="middle">✕</text><rect x="0" y="34" width="680" height="555" rx="0" fill="#FAFAFA" stroke="none" stroke-width="1"/><path d="M14 48h0.8M14 62h0.8M14 76h0.8M14 90h0.8M14 104h0.8M14 118h0.8M14 132h0.8M14 146h0.8M14 160h0.8M14 174h0.8M14 188h0.8M14 202h0.8M14 216h0.8M14 230h0.8M14 244h0.8M14 258h0.8M14 272h0.8M14 286h0.8M14 300h0.8M14 314h0.8M14 328h0.8M14 342h0.8M14 356h0.8M14 370h0.8M14 384h0.8M14 398h0.8M14 412h0.8M14 426h0.8M14 440h0.8M14 454h0.8M14 468h0.8M14 482h0.8M14 496h0.8M14 510h0.8M14 524h0.8M14 538h0.8M14 552h0.8M14 566h0.8M14 580h0.8M28 48h0.8M28 62h0.8M28 76h0.8M28 90h0.8M28 104h0.8M28 118h0.8M28 132h0.8M28 146h0.8M28 160h0.8M28 174h0.8M28 188h0.8M28 202h0.8M28 216h0.8M28 230h0.8M28 244h0.8M28 258h0.8M28 272h0.8M28 286h0.8M28 300h0.8M28 314h0.8M28 328h0.8M28 342h0.8M28 356h0.8M28 370h0.8M28 384h0.8M28 398h0.8M28 412h0.8M28 426h0.8M28 440h0.8M28 454h0.8M28 468h0.8M28 482h0.8M28 496h0.8M28 510h0.8M28 524h0.8M28 538h0.8M28 552h0.8M28 566h0.8M28 580h0.8M42 48h0.8M42 62h0.8M42 76h0.8M42 90h0.8M42 104h0.8M42 118h0.8M42 132h0.8M42 146h0.8M42 160h0.8M42 174h0.8M42 188h0.8M42 202h0.8M42 216h0.8M42 230h0.8M42 244h0.8M42 258h0.8M42 272h0.8M42 286h0.8M42 300h0.8M42 314h0.8M42 328h0.8M42 342h0.8M42 356h0.8M42 370h0.8M42 384h0.8M42 398h0.8M42 412h0.8M42 426h0.8M42 440h0.8M42 454h0.8M42 468h0.8M42 482h0.8M42 496h0.8M42 510h0.8M42 524h0.8M42 538h0.8M42 552h0.8M42 566h0.8M42 580h0.8M56 48h0.8M56 62h0.8M56 76h0.8M56 90h0.8M56 104h0.8M56 118h0.8M56 132h0.8M56 146h0.8M56 160h0.8M56 174h0.8M56 188h0.8M56 202h0.8M56 216h0.8M56 230h0.8M56 244h0.8M56 258h0.8M56 272h0.8M56 286h0.8M56 300h0.8M56 314h0.8M56 328h0.8M56 342h0.8M56 356h0.8M56 370h0.8M56 384h0.8M56 398h0.8M56 412h0.8M56 426h0.8M56 440h0.8M56 454h0.8M56 468h0.8M56 482h0.8M56 496h0.8M56 510h0.8M56 524h0.8M56 538h0.8M56 552h0.8M56 566h0.8M56 580h0.8M70 48h0.8M70 62h0.8M70 76h0.8M70 90h0.8M70 104h0.8M70 118h0.8M70 132h0.8M70 146h0.8M70 160h0.8M70 174h0.8M70 188h0.8M70 202h0.8M70 216h0.8M70 230h0.8M70 244h0.8M70 258h0.8M70 272h0.8M70 286h0.8M70 300h0.8M70 314h0.8M70 328h0.8M70 342h0.8M70 356h0.8M70 370h0.8M70 384h0.8M70 398h0.8M70 412h0.8M70 426h0.8M70 440h0.8M70 454h0.8M70 468h0.8M70 482h0.8M70 496h0.8M70 510h0.8M70 524h0.8M70 538h0.8M70 552h0.8M70 566h0.8M70 580h0.8M84 48h0.8M84 62h0.8M84 76h0.8M84 90h0.8M84 104h0.8M84 118h0.8M84 132h0.8M84 146h0.8M84 160h0.8M84 174h0.8M84 188h0.8M84 202h0.8M84 216h0.8M84 230h0.8M84 244h0.8M84 258h0.8M84 272h0.8M84 286h0.8M84 300h0.8M84 314h0.8M84 328h0.8M84 342h0.8M84 356h0.8M84 370h0.8M84 384h0.8M84 398h0.8M84 412h0.8M84 426h0.8M84 440h0.8M84 454h0.8M84 468h0.8M84 482h0.8M84 496h0.8M84 510h0.8M84 524h0.8M84 538h0.8M84 552h0.8M84 566h0.8M84 580h0.8M98 48h0.8M98 62h0.8M98 76h0.8M98 90h0.8M98 104h0.8M98 118h0.8M98 132h0.8M98 146h0.8M98 160h0.8M98 174h0.8M98 188h0.8M98 202h0.8M98 216h0.8M98 230h0.8M98 244h0.8M98 258h0.8M98 272h0.8M98 286h0.8M98 300h0.8M98 314h0.8M98 328h0.8M98 342h0.8M98 356h0.8M98 370h0.8M98 384h0.8M98 398h0.8M98 412h0.8M98 426h0.8M98 440h0.8M98 454h0.8M98 468h0.8M98 482h0.8M98 496h0.8M98 510h0.8M98 524h0.8M98 538h0.8M98 552h0.8M98 566h0.8M98 580h0.8M112 48h0.8M112 62h0.8M112 76h0.8M112 90h0.8M112 104h0.8M112 118h0.8M112 132h0.8M112 146h0.8M112 160h0.8M112 174h0.8M112 188h0.8M112 202h0.8M112 216h0.8M112 230h0.8M112 244h0.8M112 258h0.8M112 272h0.8M112 286h0.8M112 300h0.8M112 314h0.8M112 328h0.8M112 342h0.8M112 356h0.8M112 370h0.8M112 384h0.8M112 398h0.8M112 412h0.8M112 426h0.8M112 440h0.8M112 454h0.8M112 468h0.8M112 482h0.8M112 496h0.8M112 510h0.8M112 524h0.8M112 538h0.8M112 552h0.8M112 566h0.8M112 580h0.8M126 48h0.8M126 62h0.8M126 76h0.8M126 90h0.8M126 104h0.8M126 118h0.8M126 132h0.8M126 146h0.8M126 160h0.8M126 174h0.8M126 188h0.8M126 202h0.8M126 216h0.8M126 230h0.8M126 244h0.8M126 258h0.8M126 272h0.8M126 286h0.8M126 300h0.8M126 314h0.8M126 328h0.8M126 342h0.8M126 356h0.8M126 370h0.8M126 384h0.8M126 398h0.8M126 412h0.8M126 426h0.8M126 440h0.8M126 454h0.8M126 468h0.8M126 482h0.8M126 496h0.8M126 510h0.8M126 524h0.8M126 538h0.8M126 552h0.8M126 566h0.8M126 580h0.8M140 48h0.8M140 62h0.8M140 76h0.8M140 90h0.8M140 104h0.8M140 118h0.8M140 132h0.8M140 146h0.8M140 160h0.8M140 174h0.8M140 188h0.8M140 202h0.8M140 216h0.8M140 230h0.8M140 244h0.8M140 258h0.8M140 272h0.8M140 286h0.8M140 300h0.8M140 314h0.8M140 328h0.8M140 342h0.8M140 356h0.8M140 370h0.8M140 384h0.8M140 398h0.8M140 412h0.8M140 426h0.8M140 440h0.8M140 454h0.8M140 468h0.8M140 482h0.8M140 496h0.8M140 510h0.8M140 524h0.8M140 538h0.8M140 552h0.8M140 566h0.8M140 580h0.8M154 48h0.8M154 62h0.8M154 76h0.8M154 90h0.8M154 104h0.8M154 118h0.8M154 132h0.8M154 146h0.8M154 160h0.8M154 174h0.8M154 188h0.8M154 202h0.8M154 216h0.8M154 230h0.8M154 244h0.8M154 258h0.8M154 272h0.8M154 286h0.8M154 300h0.8M154 314h0.8M154 328h0.8M154 342h0.8M154 356h0.8M154 370h0.8M154 384h0.8M154 398h0.8M154 412h0.8M154 426h0.8M154 440h0.8M154 454h0.8M154 468h0.8M154 482h0.8M154 496h0.8M154 510h0.8M154 524h0.8M154 538h0.8M154 552h0.8M154 566h0.8M154 580h0.8M168 48h0.8M168 62h0.8M168 76h0.8M168 90h0.8M168 104h0.8M168 118h0.8M168 132h0.8M168 146h0.8M168 160h0.8M168 174h0.8M168 188h0.8M168 202h0.8M168 216h0.8M168 230h0.8M168 244h0.8M168 258h0.8M168 272h0.8M168 286h0.8M168 300h0.8M168 314h0.8M168 328h0.8M168 342h0.8M168 356h0.8M168 370h0.8M168 384h0.8M168 398h0.8M168 412h0.8M168 426h0.8M168 440h0.8M168 454h0.8M168 468h0.8M168 482h0.8M168 496h0.8M168 510h0.8M168 524h0.8M168 538h0.8M168 552h0.8M168 566h0.8M168 580h0.8M182 48h0.8M182 62h0.8M182 76h0.8M182 90h0.8M182 104h0.8M182 118h0.8M182 132h0.8M182 146h0.8M182 160h0.8M182 174h0.8M182 188h0.8M182 202h0.8M182 216h0.8M182 230h0.8M182 244h0.8M182 258h0.8M182 272h0.8M182 286h0.8M182 300h0.8M182 314h0.8M182 328h0.8M182 342h0.8M182 356h0.8M182 370h0.8M182 384h0.8M182 398h0.8M182 412h0.8M182 426h0.8M182 440h0.8M182 454h0.8M182 468h0.8M182 482h0.8M182 496h0.8M182 510h0.8M182 524h0.8M182 538h0.8M182 552h0.8M182 566h0.8M182 580h0.8M196 48h0.8M196 62h0.8M196 76h0.8M196 90h0.8M196 104h0.8M196 118h0.8M196 132h0.8M196 146h0.8M196 160h0.8M196 174h0.8M196 188h0.8M196 202h0.8M196 216h0.8M196 230h0.8M196 244h0.8M196 258h0.8M196 272h0.8M196 286h0.8M196 300h0.8M196 314h0.8M196 328h0.8M196 342h0.8M196 356h0.8M196 370h0.8M196 384h0.8M196 398h0.8M196 412h0.8M196 426h0.8M196 440h0.8M196 454h0.8M196 468h0.8M196 482h0.8M196 496h0.8M196 510h0.8M196 524h0.8M196 538h0.8M196 552h0.8M196 566h0.8M196 580h0.8M210 48h0.8M210 62h0.8M210 76h0.8M210 90h0.8M210 104h0.8M210 118h0.8M210 132h0.8M210 146h0.8M210 160h0.8M210 174h0.8M210 188h0.8M210 202h0.8M210 216h0.8M210 230h0.8M210 244h0.8M210 258h0.8M210 272h0.8M210 286h0.8M210 300h0.8M210 314h0.8M210 328h0.8M210 342h0.8M210 356h0.8M210 370h0.8M210 384h0.8M210 398h0.8M210 412h0.8M210 426h0.8M210 440h0.8M210 454h0.8M210 468h0.8M210 482h0.8M210 496h0.8M210 510h0.8M210 524h0.8M210 538h0.8M210 552h0.8M210 566h0.8M210 580h0.8M224 48h0.8M224 62h0.8M224 76h0.8M224 90h0.8M224 104h0.8M224 118h0.8M224 132h0.8M224 146h0.8M224 160h0.8M224 174h0.8M224 188h0.8M224 202h0.8M224 216h0.8M224 230h0.8M224 244h0.8M224 258h0.8M224 272h0.8M224 286h0.8M224 300h0.8M224 314h0.8M224 328h0.8M224 342h0.8M224 356h0.8M224 370h0.8M224 384h0.8M224 398h0.8M224 412h0.8M224 426h0.8M224 440h0.8M224 454h0.8M224 468h0.8M224 482h0.8M224 496h0.8M224 510h0.8M224 524h0.8M224 538h0.8M224 552h0.8M224 566h0.8M224 580h0.8M238 48h0.8M238 62h0.8M238 76h0.8M238 90h0.8M238 104h0.8M238 118h0.8M238 132h0.8M238 146h0.8M238 160h0.8M238 174h0.8M238 188h0.8M238 202h0.8M238 216h0.8M238 230h0.8M238 244h0.8M238 258h0.8M238 272h0.8M238 286h0.8M238 300h0.8M238 314h0.8M238 328h0.8M238 342h0.8M238 356h0.8M238 370h0.8M238 384h0.8M238 398h0.8M238 412h0.8M238 426h0.8M238 440h0.8M238 454h0.8M238 468h0.8M238 482h0.8M238 496h0.8M238 510h0.8M238 524h0.8M238 538h0.8M238 552h0.8M238 566h0.8M238 580h0.8M252 48h0.8M252 62h0.8M252 76h0.8M252 90h0.8M252 104h0.8M252 118h0.8M252 132h0.8M252 146h0.8M252 160h0.8M252 174h0.8M252 188h0.8M252 202h0.8M252 216h0.8M252 230h0.8M252 244h0.8M252 258h0.8M252 272h0.8M252 286h0.8M252 300h0.8M252 314h0.8M252 328h0.8M252 342h0.8M252 356h0.8M252 370h0.8M252 384h0.8M252 398h0.8M252 412h0.8M252 426h0.8M252 440h0.8M252 454h0.8M252 468h0.8M252 482h0.8M252 496h0.8M252 510h0.8M252 524h0.8M252 538h0.8M252 552h0.8M252 566h0.8M252 580h0.8M266 48h0.8M266 62h0.8M266 76h0.8M266 90h0.8M266 104h0.8M266 118h0.8M266 132h0.8M266 146h0.8M266 160h0.8M266 174h0.8M266 188h0.8M266 202h0.8M266 216h0.8M266 230h0.8M266 244h0.8M266 258h0.8M266 272h0.8M266 286h0.8M266 300h0.8M266 314h0.8M266 328h0.8M266 342h0.8M266 356h0.8M266 370h0.8M266 384h0.8M266 398h0.8M266 412h0.8M266 426h0.8M266 440h0.8M266 454h0.8M266 468h0.8M266 482h0.8M266 496h0.8M266 510h0.8M266 524h0.8M266 538h0.8M266 552h0.8M266 566h0.8M266 580h0.8M280 48h0.8M280 62h0.8M280 76h0.8M280 90h0.8M280 104h0.8M280 118h0.8M280 132h0.8M280 146h0.8M280 160h0.8M280 174h0.8M280 188h0.8M280 202h0.8M280 216h0.8M280 230h0.8M280 244h0.8M280 258h0.8M280 272h0.8M280 286h0.8M280 300h0.8M280 314h0.8M280 328h0.8M280 342h0.8M280 356h0.8M280 370h0.8M280 384h0.8M280 398h0.8M280 412h0.8M280 426h0.8M280 440h0.8M280 454h0.8M280 468h0.8M280 482h0.8M280 496h0.8M280 510h0.8M280 524h0.8M280 538h0.8M280 552h0.8M280 566h0.8M280 580h0.8M294 48h0.8M294 62h0.8M294 76h0.8M294 90h0.8M294 104h0.8M294 118h0.8M294 132h0.8M294 146h0.8M294 160h0.8M294 174h0.8M294 188h0.8M294 202h0.8M294 216h0.8M294 230h0.8M294 244h0.8M294 258h0.8M294 272h0.8M294 286h0.8M294 300h0.8M294 314h0.8M294 328h0.8M294 342h0.8M294 356h0.8M294 370h0.8M294 384h0.8M294 398h0.8M294 412h0.8M294 426h0.8M294 440h0.8M294 454h0.8M294 468h0.8M294 482h0.8M294 496h0.8M294 510h0.8M294 524h0.8M294 538h0.8M294 552h0.8M294 566h0.8M294 580h0.8M308 48h0.8M308 62h0.8M308 76h0.8M308 90h0.8M308 104h0.8M308 118h0.8M308 132h0.8M308 146h0.8M308 160h0.8M308 174h0.8M308 188h0.8M308 202h0.8M308 216h0.8M308 230h0.8M308 244h0.8M308 258h0.8M308 272h0.8M308 286h0.8M308 300h0.8M308 314h0.8M308 328h0.8M308 342h0.8M308 356h0.8M308 370h0.8M308 384h0.8M308 398h0.8M308 412h0.8M308 426h0.8M308 440h0.8M308 454h0.8M308 468h0.8M308 482h0.8M308 496h0.8M308 510h0.8M308 524h0.8M308 538h0.8M308 552h0.8M308 566h0.8M308 580h0.8M322 48h0.8M322 62h0.8M322 76h0.8M322 90h0.8M322 104h0.8M322 118h0.8M322 132h0.8M322 146h0.8M322 160h0.8M322 174h0.8M322 188h0.8M322 202h0.8M322 216h0.8M322 230h0.8M322 244h0.8M322 258h0.8M322 272h0.8M322 286h0.8M322 300h0.8M322 314h0.8M322 328h0.8M322 342h0.8M322 356h0.8M322 370h0.8M322 384h0.8M322 398h0.8M322 412h0.8M322 426h0.8M322 440h0.8M322 454h0.8M322 468h0.8M322 482h0.8M322 496h0.8M322 510h0.8M322 524h0.8M322 538h0.8M322 552h0.8M322 566h0.8M322 580h0.8M336 48h0.8M336 62h0.8M336 76h0.8M336 90h0.8M336 104h0.8M336 118h0.8M336 132h0.8M336 146h0.8M336 160h0.8M336 174h0.8M336 188h0.8M336 202h0.8M336 216h0.8M336 230h0.8M336 244h0.8M336 258h0.8M336 272h0.8M336 286h0.8M336 300h0.8M336 314h0.8M336 328h0.8M336 342h0.8M336 356h0.8M336 370h0.8M336 384h0.8M336 398h0.8M336 412h0.8M336 426h0.8M336 440h0.8M336 454h0.8M336 468h0.8M336 482h0.8M336 496h0.8M336 510h0.8M336 524h0.8M336 538h0.8M336 552h0.8M336 566h0.8M336 580h0.8M350 48h0.8M350 62h0.8M350 76h0.8M350 90h0.8M350 104h0.8M350 118h0.8M350 132h0.8M350 146h0.8M350 160h0.8M350 174h0.8M350 188h0.8M350 202h0.8M350 216h0.8M350 230h0.8M350 244h0.8M350 258h0.8M350 272h0.8M350 286h0.8M350 300h0.8M350 314h0.8M350 328h0.8M350 342h0.8M350 356h0.8M350 370h0.8M350 384h0.8M350 398h0.8M350 412h0.8M350 426h0.8M350 440h0.8M350 454h0.8M350 468h0.8M350 482h0.8M350 496h0.8M350 510h0.8M350 524h0.8M350 538h0.8M350 552h0.8M350 566h0.8M350 580h0.8M364 48h0.8M364 62h0.8M364 76h0.8M364 90h0.8M364 104h0.8M364 118h0.8M364 132h0.8M364 146h0.8M364 160h0.8M364 174h0.8M364 188h0.8M364 202h0.8M364 216h0.8M364 230h0.8M364 244h0.8M364 258h0.8M364 272h0.8M364 286h0.8M364 300h0.8M364 314h0.8M364 328h0.8M364 342h0.8M364 356h0.8M364 370h0.8M364 384h0.8M364 398h0.8M364 412h0.8M364 426h0.8M364 440h0.8M364 454h0.8M364 468h0.8M364 482h0.8M364 496h0.8M364 510h0.8M364 524h0.8M364 538h0.8M364 552h0.8M364 566h0.8M364 580h0.8M378 48h0.8M378 62h0.8M378 76h0.8M378 90h0.8M378 104h0.8M378 118h0.8M378 132h0.8M378 146h0.8M378 160h0.8M378 174h0.8M378 188h0.8M378 202h0.8M378 216h0.8M378 230h0.8M378 244h0.8M378 258h0.8M378 272h0.8M378 286h0.8M378 300h0.8M378 314h0.8M378 328h0.8M378 342h0.8M378 356h0.8M378 370h0.8M378 384h0.8M378 398h0.8M378 412h0.8M378 426h0.8M378 440h0.8M378 454h0.8M378 468h0.8M378 482h0.8M378 496h0.8M378 510h0.8M378 524h0.8M378 538h0.8M378 552h0.8M378 566h0.8M378 580h0.8M392 48h0.8M392 62h0.8M392 76h0.8M392 90h0.8M392 104h0.8M392 118h0.8M392 132h0.8M392 146h0.8M392 160h0.8M392 174h0.8M392 188h0.8M392 202h0.8M392 216h0.8M392 230h0.8M392 244h0.8M392 258h0.8M392 272h0.8M392 286h0.8M392 300h0.8M392 314h0.8M392 328h0.8M392 342h0.8M392 356h0.8M392 370h0.8M392 384h0.8M392 398h0.8M392 412h0.8M392 426h0.8M392 440h0.8M392 454h0.8M392 468h0.8M392 482h0.8M392 496h0.8M392 510h0.8M392 524h0.8M392 538h0.8M392 552h0.8M392 566h0.8M392 580h0.8M406 48h0.8M406 62h0.8M406 76h0.8M406 90h0.8M406 104h0.8M406 118h0.8M406 132h0.8M406 146h0.8M406 160h0.8M406 174h0.8M406 188h0.8M406 202h0.8M406 216h0.8M406 230h0.8M406 244h0.8M406 258h0.8M406 272h0.8M406 286h0.8M406 300h0.8M406 314h0.8M406 328h0.8M406 342h0.8M406 356h0.8M406 370h0.8M406 384h0.8M406 398h0.8M406 412h0.8M406 426h0.8M406 440h0.8M406 454h0.8M406 468h0.8M406 482h0.8M406 496h0.8M406 510h0.8M406 524h0.8M406 538h0.8M406 552h0.8M406 566h0.8M406 580h0.8M420 48h0.8M420 62h0.8M420 76h0.8M420 90h0.8M420 104h0.8M420 118h0.8M420 132h0.8M420 146h0.8M420 160h0.8M420 174h0.8M420 188h0.8M420 202h0.8M420 216h0.8M420 230h0.8M420 244h0.8M420 258h0.8M420 272h0.8M420 286h0.8M420 300h0.8M420 314h0.8M420 328h0.8M420 342h0.8M420 356h0.8M420 370h0.8M420 384h0.8M420 398h0.8M420 412h0.8M420 426h0.8M420 440h0.8M420 454h0.8M420 468h0.8M420 482h0.8M420 496h0.8M420 510h0.8M420 524h0.8M420 538h0.8M420 552h0.8M420 566h0.8M420 580h0.8M434 48h0.8M434 62h0.8M434 76h0.8M434 90h0.8M434 104h0.8M434 118h0.8M434 132h0.8M434 146h0.8M434 160h0.8M434 174h0.8M434 188h0.8M434 202h0.8M434 216h0.8M434 230h0.8M434 244h0.8M434 258h0.8M434 272h0.8M434 286h0.8M434 300h0.8M434 314h0.8M434 328h0.8M434 342h0.8M434 356h0.8M434 370h0.8M434 384h0.8M434 398h0.8M434 412h0.8M434 426h0.8M434 440h0.8M434 454h0.8M434 468h0.8M434 482h0.8M434 496h0.8M434 510h0.8M434 524h0.8M434 538h0.8M434 552h0.8M434 566h0.8M434 580h0.8M448 48h0.8M448 62h0.8M448 76h0.8M448 90h0.8M448 104h0.8M448 118h0.8M448 132h0.8M448 146h0.8M448 160h0.8M448 174h0.8M448 188h0.8M448 202h0.8M448 216h0.8M448 230h0.8M448 244h0.8M448 258h0.8M448 272h0.8M448 286h0.8M448 300h0.8M448 314h0.8M448 328h0.8M448 342h0.8M448 356h0.8M448 370h0.8M448 384h0.8M448 398h0.8M448 412h0.8M448 426h0.8M448 440h0.8M448 454h0.8M448 468h0.8M448 482h0.8M448 496h0.8M448 510h0.8M448 524h0.8M448 538h0.8M448 552h0.8M448 566h0.8M448 580h0.8M462 48h0.8M462 62h0.8M462 76h0.8M462 90h0.8M462 104h0.8M462 118h0.8M462 132h0.8M462 146h0.8M462 160h0.8M462 174h0.8M462 188h0.8M462 202h0.8M462 216h0.8M462 230h0.8M462 244h0.8M462 258h0.8M462 272h0.8M462 286h0.8M462 300h0.8M462 314h0.8M462 328h0.8M462 342h0.8M462 356h0.8M462 370h0.8M462 384h0.8M462 398h0.8M462 412h0.8M462 426h0.8M462 440h0.8M462 454h0.8M462 468h0.8M462 482h0.8M462 496h0.8M462 510h0.8M462 524h0.8M462 538h0.8M462 552h0.8M462 566h0.8M462 580h0.8M476 48h0.8M476 62h0.8M476 76h0.8M476 90h0.8M476 104h0.8M476 118h0.8M476 132h0.8M476 146h0.8M476 160h0.8M476 174h0.8M476 188h0.8M476 202h0.8M476 216h0.8M476 230h0.8M476 244h0.8M476 258h0.8M476 272h0.8M476 286h0.8M476 300h0.8M476 314h0.8M476 328h0.8M476 342h0.8M476 356h0.8M476 370h0.8M476 384h0.8M476 398h0.8M476 412h0.8M476 426h0.8M476 440h0.8M476 454h0.8M476 468h0.8M476 482h0.8M476 496h0.8M476 510h0.8M476 524h0.8M476 538h0.8M476 552h0.8M476 566h0.8M476 580h0.8M490 48h0.8M490 62h0.8M490 76h0.8M490 90h0.8M490 104h0.8M490 118h0.8M490 132h0.8M490 146h0.8M490 160h0.8M490 174h0.8M490 188h0.8M490 202h0.8M490 216h0.8M490 230h0.8M490 244h0.8M490 258h0.8M490 272h0.8M490 286h0.8M490 300h0.8M490 314h0.8M490 328h0.8M490 342h0.8M490 356h0.8M490 370h0.8M490 384h0.8M490 398h0.8M490 412h0.8M490 426h0.8M490 440h0.8M490 454h0.8M490 468h0.8M490 482h0.8M490 496h0.8M490 510h0.8M490 524h0.8M490 538h0.8M490 552h0.8M490 566h0.8M490 580h0.8M504 48h0.8M504 62h0.8M504 76h0.8M504 90h0.8M504 104h0.8M504 118h0.8M504 132h0.8M504 146h0.8M504 160h0.8M504 174h0.8M504 188h0.8M504 202h0.8M504 216h0.8M504 230h0.8M504 244h0.8M504 258h0.8M504 272h0.8M504 286h0.8M504 300h0.8M504 314h0.8M504 328h0.8M504 342h0.8M504 356h0.8M504 370h0.8M504 384h0.8M504 398h0.8M504 412h0.8M504 426h0.8M504 440h0.8M504 454h0.8M504 468h0.8M504 482h0.8M504 496h0.8M504 510h0.8M504 524h0.8M504 538h0.8M504 552h0.8M504 566h0.8M504 580h0.8M518 48h0.8M518 62h0.8M518 76h0.8M518 90h0.8M518 104h0.8M518 118h0.8M518 132h0.8M518 146h0.8M518 160h0.8M518 174h0.8M518 188h0.8M518 202h0.8M518 216h0.8M518 230h0.8M518 244h0.8M518 258h0.8M518 272h0.8M518 286h0.8M518 300h0.8M518 314h0.8M518 328h0.8M518 342h0.8M518 356h0.8M518 370h0.8M518 384h0.8M518 398h0.8M518 412h0.8M518 426h0.8M518 440h0.8M518 454h0.8M518 468h0.8M518 482h0.8M518 496h0.8M518 510h0.8M518 524h0.8M518 538h0.8M518 552h0.8M518 566h0.8M518 580h0.8M532 48h0.8M532 62h0.8M532 76h0.8M532 90h0.8M532 104h0.8M532 118h0.8M532 132h0.8M532 146h0.8M532 160h0.8M532 174h0.8M532 188h0.8M532 202h0.8M532 216h0.8M532 230h0.8M532 244h0.8M532 258h0.8M532 272h0.8M532 286h0.8M532 300h0.8M532 314h0.8M532 328h0.8M532 342h0.8M532 356h0.8M532 370h0.8M532 384h0.8M532 398h0.8M532 412h0.8M532 426h0.8M532 440h0.8M532 454h0.8M532 468h0.8M532 482h0.8M532 496h0.8M532 510h0.8M532 524h0.8M532 538h0.8M532 552h0.8M532 566h0.8M532 580h0.8M546 48h0.8M546 62h0.8M546 76h0.8M546 90h0.8M546 104h0.8M546 118h0.8M546 132h0.8M546 146h0.8M546 160h0.8M546 174h0.8M546 188h0.8M546 202h0.8M546 216h0.8M546 230h0.8M546 244h0.8M546 258h0.8M546 272h0.8M546 286h0.8M546 300h0.8M546 314h0.8M546 328h0.8M546 342h0.8M546 356h0.8M546 370h0.8M546 384h0.8M546 398h0.8M546 412h0.8M546 426h0.8M546 440h0.8M546 454h0.8M546 468h0.8M546 482h0.8M546 496h0.8M546 510h0.8M546 524h0.8M546 538h0.8M546 552h0.8M546 566h0.8M546 580h0.8M560 48h0.8M560 62h0.8M560 76h0.8M560 90h0.8M560 104h0.8M560 118h0.8M560 132h0.8M560 146h0.8M560 160h0.8M560 174h0.8M560 188h0.8M560 202h0.8M560 216h0.8M560 230h0.8M560 244h0.8M560 258h0.8M560 272h0.8M560 286h0.8M560 300h0.8M560 314h0.8M560 328h0.8M560 342h0.8M560 356h0.8M560 370h0.8M560 384h0.8M560 398h0.8M560 412h0.8M560 426h0.8M560 440h0.8M560 454h0.8M560 468h0.8M560 482h0.8M560 496h0.8M560 510h0.8M560 524h0.8M560 538h0.8M560 552h0.8M560 566h0.8M560 580h0.8M574 48h0.8M574 62h0.8M574 76h0.8M574 90h0.8M574 104h0.8M574 118h0.8M574 132h0.8M574 146h0.8M574 160h0.8M574 174h0.8M574 188h0.8M574 202h0.8M574 216h0.8M574 230h0.8M574 244h0.8M574 258h0.8M574 272h0.8M574 286h0.8M574 300h0.8M574 314h0.8M574 328h0.8M574 342h0.8M574 356h0.8M574 370h0.8M574 384h0.8M574 398h0.8M574 412h0.8M574 426h0.8M574 440h0.8M574 454h0.8M574 468h0.8M574 482h0.8M574 496h0.8M574 510h0.8M574 524h0.8M574 538h0.8M574 552h0.8M574 566h0.8M574 580h0.8M588 48h0.8M588 62h0.8M588 76h0.8M588 90h0.8M588 104h0.8M588 118h0.8M588 132h0.8M588 146h0.8M588 160h0.8M588 174h0.8M588 188h0.8M588 202h0.8M588 216h0.8M588 230h0.8M588 244h0.8M588 258h0.8M588 272h0.8M588 286h0.8M588 300h0.8M588 314h0.8M588 328h0.8M588 342h0.8M588 356h0.8M588 370h0.8M588 384h0.8M588 398h0.8M588 412h0.8M588 426h0.8M588 440h0.8M588 454h0.8M588 468h0.8M588 482h0.8M588 496h0.8M588 510h0.8M588 524h0.8M588 538h0.8M588 552h0.8M588 566h0.8M588 580h0.8M602 48h0.8M602 62h0.8M602 76h0.8M602 90h0.8M602 104h0.8M602 118h0.8M602 132h0.8M602 146h0.8M602 160h0.8M602 174h0.8M602 188h0.8M602 202h0.8M602 216h0.8M602 230h0.8M602 244h0.8M602 258h0.8M602 272h0.8M602 286h0.8M602 300h0.8M602 314h0.8M602 328h0.8M602 342h0.8M602 356h0.8M602 370h0.8M602 384h0.8M602 398h0.8M602 412h0.8M602 426h0.8M602 440h0.8M602 454h0.8M602 468h0.8M602 482h0.8M602 496h0.8M602 510h0.8M602 524h0.8M602 538h0.8M602 552h0.8M602 566h0.8M602 580h0.8M616 48h0.8M616 62h0.8M616 76h0.8M616 90h0.8M616 104h0.8M616 118h0.8M616 132h0.8M616 146h0.8M616 160h0.8M616 174h0.8M616 188h0.8M616 202h0.8M616 216h0.8M616 230h0.8M616 244h0.8M616 258h0.8M616 272h0.8M616 286h0.8M616 300h0.8M616 314h0.8M616 328h0.8M616 342h0.8M616 356h0.8M616 370h0.8M616 384h0.8M616 398h0.8M616 412h0.8M616 426h0.8M616 440h0.8M616 454h0.8M616 468h0.8M616 482h0.8M616 496h0.8M616 510h0.8M616 524h0.8M616 538h0.8M616 552h0.8M616 566h0.8M616 580h0.8M630 48h0.8M630 62h0.8M630 76h0.8M630 90h0.8M630 104h0.8M630 118h0.8M630 132h0.8M630 146h0.8M630 160h0.8M630 174h0.8M630 188h0.8M630 202h0.8M630 216h0.8M630 230h0.8M630 244h0.8M630 258h0.8M630 272h0.8M630 286h0.8M630 300h0.8M630 314h0.8M630 328h0.8M630 342h0.8M630 356h0.8M630 370h0.8M630 384h0.8M630 398h0.8M630 412h0.8M630 426h0.8M630 440h0.8M630 454h0.8M630 468h0.8M630 482h0.8M630 496h0.8M630 510h0.8M630 524h0.8M630 538h0.8M630 552h0.8M630 566h0.8M630 580h0.8M644 48h0.8M644 62h0.8M644 76h0.8M644 90h0.8M644 104h0.8M644 118h0.8M644 132h0.8M644 146h0.8M644 160h0.8M644 174h0.8M644 188h0.8M644 202h0.8M644 216h0.8M644 230h0.8M644 244h0.8M644 258h0.8M644 272h0.8M644 286h0.8M644 300h0.8M644 314h0.8M644 328h0.8M644 342h0.8M644 356h0.8M644 370h0.8M644 384h0.8M644 398h0.8M644 412h0.8M644 426h0.8M644 440h0.8M644 454h0.8M644 468h0.8M644 482h0.8M644 496h0.8M644 510h0.8M644 524h0.8M644 538h0.8M644 552h0.8M644 566h0.8M644 580h0.8M658 48h0.8M658 62h0.8M658 76h0.8M658 90h0.8M658 104h0.8M658 118h0.8M658 132h0.8M658 146h0.8M658 160h0.8M658 174h0.8M658 188h0.8M658 202h0.8M658 216h0.8M658 230h0.8M658 244h0.8M658 258h0.8M658 272h0.8M658 286h0.8M658 300h0.8M658 314h0.8M658 328h0.8M658 342h0.8M658 356h0.8M658 370h0.8M658 384h0.8M658 398h0.8M658 412h0.8M658 426h0.8M658 440h0.8M658 454h0.8M658 468h0.8M658 482h0.8M658 496h0.8M658 510h0.8M658 524h0.8M658 538h0.8M658 552h0.8M658 566h0.8M658 580h0.8M672 48h0.8M672 62h0.8M672 76h0.8M672 90h0.8M672 104h0.8M672 118h0.8M672 132h0.8M672 146h0.8M672 160h0.8M672 174h0.8M672 188h0.8M672 202h0.8M672 216h0.8M672 230h0.8M672 244h0.8M672 258h0.8M672 272h0.8M672 286h0.8M672 300h0.8M672 314h0.8M672 328h0.8M672 342h0.8M672 356h0.8M672 370h0.8M672 384h0.8M672 398h0.8M672 412h0.8M672 426h0.8M672 440h0.8M672 454h0.8M672 468h0.8M672 482h0.8M672 496h0.8M672 510h0.8M672 524h0.8M672 538h0.8M672 552h0.8M672 566h0.8M672 580h0.8" stroke="#DADADA" stroke-width="1" stroke-linecap="round"/><rect x="680" y="34" width="250" height="555" rx="0" fill="#FFFFFF" stroke="none" stroke-width="1"/><path d="M680 34 L680 589" stroke="#D8D8D8" stroke-width="1" fill="none"/><rect x="256" y="62" width="168" height="40" rx="5" fill="#FFFFFF" stroke="#D8D8D8" stroke-width="1"/><rect x="264" y="73" width="18" height="18" rx="4" fill="#F1F1F1" stroke="#D8D8D8" stroke-width="1"/><rect x="269.04" y="78.04" width="7.92" height="7.92" rx="1.5" fill="none" stroke="#8A8A8A" stroke-width="1"/><text x="288" y="81" font-family="DM Sans, -apple-system, BlinkMacSystemFont, sans-serif" font-size="8" font-weight="600" fill="#111111" text-anchor="start">Trigger Name</text><text x="288" y="91" font-family="DM Sans, -apple-system, BlinkMacSystemFont, sans-serif" font-size="6.8" font-weight="500" fill="#8A8A8A" text-anchor="start">Message is received</text><path d="M340 102 L340 128" stroke="#D8D8D8" stroke-width="1" fill="none"/><rect x="256" y="128" width="168" height="40" rx="5" fill="#FFFFFF" stroke="#D8D8D8" stroke-width="1"/><rect x="264" y="139" width="18" height="18" rx="4" fill="#F1F1F1" stroke="#D8D8D8" stroke-width="1"/><rect x="269.04" y="144.04" width="7.92" height="7.92" rx="1.5" fill="none" stroke="#8A8A8A" stroke-width="1"/><text x="288" y="147" font-family="DM Sans, -apple-system, BlinkMacSystemFont, sans-serif" font-size="8" font-weight="600" fill="#111111" text-anchor="start">Split Path</text><text x="288" y="157" font-family="DM Sans, -apple-system, BlinkMacSystemFont, sans-serif" font-size="6.8" font-weight="500" fill="#8A8A8A" text-anchor="start">Condition based split</text><path d="M340 168 L340 186" stroke="#D8D8D8" stroke-width="1" fill="none"/><path d="M220 220 v-24 q0 -10 10 -10 h220 q10 0 10 10 v24" fill="none" stroke="#D8D8D8"/><rect x="198" y="214" width="44" height="13" rx="6" fill="#F1F1F1" stroke="none" stroke-width="1"/><text x="220" y="223" font-family="DM Sans, -apple-system, BlinkMacSystemFont, sans-serif" font-size="6.6" font-weight="500" fill="#3D3D3D" text-anchor="middle">Path 1</text><rect x="438" y="214" width="44" height="13" rx="6" fill="#F1F1F1" stroke="none" stroke-width="1"/><text x="460" y="223" font-family="DM Sans, -apple-system, BlinkMacSystemFont, sans-serif" font-size="6.6" font-weight="500" fill="#3D3D3D" text-anchor="middle">Path 2</text><path d="M220 227 L220 256" stroke="#D8D8D8" stroke-width="1" fill="none"/><rect x="136" y="256" width="168" height="40" rx="5" fill="#FFFFFF" stroke="#D8D8D8" stroke-width="1"/><rect x="144" y="267" width="18" height="18" rx="4" fill="#F1F1F1" stroke="#D8D8D8" stroke-width="1"/><rect x="149.04" y="272.04" width="7.92" height="7.92" rx="1.5" fill="none" stroke="#8A8A8A" stroke-width="1"/><text x="168" y="275" font-family="DM Sans, -apple-system, BlinkMacSystemFont, sans-serif" font-size="8" font-weight="600" fill="#111111" text-anchor="start">Time Delay</text><text x="168" y="285" font-family="DM Sans, -apple-system, BlinkMacSystemFont, sans-serif" font-size="6.8" font-weight="500" fill="#8A8A8A" text-anchor="start">Wait for 2 days</text><path d="M460 227 L460 256" stroke="#D8D8D8" stroke-width="1" fill="none"/><rect x="376" y="256" width="168" height="40" rx="5" fill="#FFFFFF" stroke="#D8D8D8" stroke-width="1"/><rect x="384" y="267" width="18" height="18" rx="4" fill="#F1F1F1" stroke="#D8D8D8" stroke-width="1"/><rect x="389.04" y="272.04" width="7.92" height="7.92" rx="1.5" fill="none" stroke="#8A8A8A" stroke-width="1"/><text x="408" y="275" font-family="DM Sans, -apple-system, BlinkMacSystemFont, sans-serif" font-size="8" font-weight="600" fill="#111111" text-anchor="start">Send Message</text><text x="408" y="285" font-family="DM Sans, -apple-system, BlinkMacSystemFont, sans-serif" font-size="6.8" font-weight="500" fill="#8A8A8A" text-anchor="start">Send email</text><text x="696" y="54" font-family="DM Sans, -apple-system, BlinkMacSystemFont, sans-serif" font-size="9" font-weight="700" fill="#111111" text-anchor="start">Split Path</text><text x="696" y="80" font-family="DM Sans, -apple-system, BlinkMacSystemFont, sans-serif" font-size="7.4" font-weight="600" fill="#111111" text-anchor="start">Paths</text><rect x="696" y="90" width="218" height="30" rx="5" fill="#FFFFFF" stroke="#D8D8D8" stroke-width="1"/><text x="706" y="109" font-family="DM Sans, -apple-system, BlinkMacSystemFont, sans-serif" font-size="7.4" font-weight="600" fill="#111111" text-anchor="start">Path 1</text><rect x="696" y="128" width="218" height="30" rx="5" fill="#FFFFFF" stroke="#D8D8D8" stroke-width="1"/><text x="706" y="147" font-family="DM Sans, -apple-system, BlinkMacSystemFont, sans-serif" font-size="7.4" font-weight="600" fill="#111111" text-anchor="start">Path 2</text><rect x="14" y="559" width="18" height="18" rx="4" fill="#FFFFFF" stroke="#D8D8D8" stroke-width="1"/><circle cx="22" cy="567" r="3" fill="none" stroke="#3D3D3D" stroke-width="1"/><path d="M24.5 569.5 L26.5 571.5" stroke="#3D3D3D" stroke-width="1" fill="none"/><rect x="38" y="559" width="58" height="18" rx="4" fill="#FFFFFF" stroke="#D8D8D8" stroke-width="1"/><text x="47" y="571" font-family="DM Sans, -apple-system, BlinkMacSystemFont, sans-serif" font-size="9" font-weight="500" fill="#3D3D3D" text-anchor="start">−</text><text x="67" y="571" font-family="DM Sans, -apple-system, BlinkMacSystemFont, sans-serif" font-size="7" font-weight="500" fill="#3D3D3D" text-anchor="middle">100%</text><text x="85" y="571" font-family="DM Sans, -apple-system, BlinkMacSystemFont, sans-serif" font-size="9" font-weight="500" fill="#3D3D3D" text-anchor="start">+</text><rect x="0.5" y="0.5" width="929" height="588" rx="6" fill="none" stroke="#E8E8E8"/></svg>
