<svg xmlns="http://www.w3.org/2000/svg" viewBox="90 20 3630 914" style="width:100%;height:auto;display:block" role="img"><title>Flow 2 — Configuring Triggers and Actions: connect accounts, configure events, map fields</title><path d="M 276 460 L 395 460" stroke="#6D8DDD" stroke-width="1.6" fill="none" stroke-linecap="round" stroke-linejoin="round"/><circle cx="276" cy="460" r="3.2" fill="#fff" stroke="#6D8DDD" stroke-width="1.6"/><path d="M 406 460 L 395 465.2 L 395 454.8 Z" fill="#6D8DDD"/><path d="M 618 460 L 716.73 460" stroke="#6D8DDD" stroke-width="1.6" fill="none" stroke-linecap="round" stroke-linejoin="round"/><circle cx="618" cy="460" r="3.2" fill="#fff" stroke="#6D8DDD" stroke-width="1.6"/><path d="M 727.73 460 L 716.73 465.2 L 716.73 454.8 Z" fill="#6D8DDD"/><path d="M 916.27 460 L 1015 460" stroke="#6D8DDD" stroke-width="1.6" fill="none" stroke-linecap="round" stroke-linejoin="round"/><circle cx="916.27" cy="460" r="3.2" fill="#fff" stroke="#6D8DDD" stroke-width="1.6"/><path d="M 1026 460 L 1015 465.2 L 1015 454.8 Z" fill="#6D8DDD"/><circle cx="971.1335136523794" cy="460" r="13" fill="#BFF3CD" stroke="#fff" stroke-width="2"/><path d="M965.6335136523794 460.3 L969.4335136523794 464 L976.6335136523794 456.6" stroke="#17966A" stroke-width="2.1" fill="none" stroke-linecap="round" stroke-linejoin="round"/><path d="M 1238 460 L 1336.73 460" stroke="#6D8DDD" stroke-width="1.6" fill="none" stroke-linecap="round" stroke-linejoin="round"/><circle cx="1238" cy="460" r="3.2" fill="#fff" stroke="#6D8DDD" stroke-width="1.6"/><path d="M 1347.73 460 L 1336.73 465.2 L 1336.73 454.8 Z" fill="#6D8DDD"/><path d="M 1536.27 460 L 1635 460" stroke="#6D8DDD" stroke-width="1.6" fill="none" stroke-linecap="round" stroke-linejoin="round"/><circle cx="1536.27" cy="460" r="3.2" fill="#fff" stroke="#6D8DDD" stroke-width="1.6"/><path d="M 1646 460 L 1635 465.2 L 1635 454.8 Z" fill="#6D8DDD"/><circle cx="1591.1335136523794" cy="460" r="13" fill="#BFF3CD" stroke="#fff" stroke-width="2"/><path d="M1585.6335136523794 460.3 L1589.4335136523794 464 L1596.6335136523794 456.6" stroke="#17966A" stroke-width="2.1" fill="none" stroke-linecap="round" stroke-linejoin="round"/><path d="M 1858 460 L 1945 460" stroke="#6D8DDD" stroke-width="1.6" fill="none" stroke-linecap="round" stroke-linejoin="round"/><circle cx="1858" cy="460" r="3.2" fill="#fff" stroke="#6D8DDD" stroke-width="1.6"/><path d="M 1956 460 L 1945 465.2 L 1945 454.8 Z" fill="#6D8DDD"/><path d="M 2168 460 L 2255 460" stroke="#6D8DDD" stroke-width="1.6" fill="none" stroke-linecap="round" stroke-linejoin="round"/><circle cx="2168" cy="460" r="3.2" fill="#fff" stroke="#6D8DDD" stroke-width="1.6"/><path d="M 2266 460 L 2255 465.2 L 2255 454.8 Z" fill="#6D8DDD"/><path d="M 2478 460 L 2565 460" stroke="#6D8DDD" stroke-width="1.6" fill="none" stroke-linecap="round" stroke-linejoin="round"/><circle cx="2478" cy="460" r="3.2" fill="#fff" stroke="#6D8DDD" stroke-width="1.6"/><path d="M 2576 460 L 2565 465.2 L 2565 454.8 Z" fill="#6D8DDD"/><path d="M 2788 460 L 2875 460" stroke="#6D8DDD" stroke-width="1.6" fill="none" stroke-linecap="round" stroke-linejoin="round"/><circle cx="2788" cy="460" r="3.2" fill="#fff" stroke="#6D8DDD" stroke-width="1.6"/><path d="M 2886 460 L 2875 465.2 L 2875 454.8 Z" fill="#6D8DDD"/><path d="M 3098 460 L 3196.73 460" stroke="#6D8DDD" stroke-width="1.6" fill="none" stroke-linecap="round" stroke-linejoin="round"/><circle cx="3098" cy="460" r="3.2" fill="#fff" stroke="#6D8DDD" stroke-width="1.6"/><path d="M 3207.73 460 L 3196.73 465.2 L 3196.73 454.8 Z" fill="#6D8DDD"/><path d="M 3396.27 460 L 3527 460" stroke="#6D8DDD" stroke-width="1.6" fill="none" stroke-linecap="round" stroke-linejoin="round"/><circle cx="3396.27" cy="460" r="3.2" fill="#fff" stroke="#6D8DDD" stroke-width="1.6"/><path d="M 3538 460 L 3527 465.2 L 3527 454.8 Z" fill="#6D8DDD"/><circle cx="3467.1335136523794" cy="460" r="13" fill="#BFF3CD" stroke="#fff" stroke-width="2"/><path d="M3461.6335136523794 460.3 L3465.4335136523796 464 L3472.6335136523794 456.6" stroke="#17966A" stroke-width="2.1" fill="none" stroke-linecap="round" stroke-linejoin="round"/><path d="M 820 365.73 L 820 231" stroke="#D16A7F" stroke-width="1.6" fill="none" stroke-linecap="round" stroke-linejoin="round"/><circle cx="820" cy="365.73" r="3.2" fill="#fff" stroke="#D16A7F" stroke-width="1.6"/><path d="M 820 220 L 825.2 231 L 814.8 231 Z" fill="#D16A7F"/><circle cx="820" cy="290" r="13" fill="#FAC1CA" stroke="#fff" stroke-width="2"/><path d="M815.5 285.5 L824.5 294.5 M824.5 285.5 L815.5 294.5" stroke="#C4485F" stroke-width="2.1" fill="none" stroke-linecap="round"/><path d="M 928 140 L 1015 140" stroke="#6D8DDD" stroke-width="1.6" fill="none" stroke-linecap="round" stroke-linejoin="round"/><circle cx="928" cy="140" r="3.2" fill="#fff" stroke="#6D8DDD" stroke-width="1.6"/><path d="M 1026 140 L 1015 145.2 L 1015 134.8 Z" fill="#6D8DDD"/><path d="M 1130 187 L 1130 404" stroke="#6D8DDD" stroke-width="1.6" fill="none" stroke-linecap="round" stroke-linejoin="round"/><circle cx="1130" cy="187" r="3.2" fill="#fff" stroke="#6D8DDD" stroke-width="1.6"/><path d="M 1130 415 L 1124.8 404 L 1135.2 404 Z" fill="#6D8DDD"/><path d="M 1440 554.27 L 1440 748 Q 1440 760 1428 760 L 522 760 Q 510 760 510 748 L 510 555" stroke="#D16A7F" stroke-width="1.6" fill="none" stroke-linecap="round" stroke-linejoin="round"/><circle cx="1440" cy="554.27" r="3.2" fill="#fff" stroke="#D16A7F" stroke-width="1.6"/><path d="M 510 544 L 515.2 555 L 504.8 555 Z" fill="#D16A7F"/><circle cx="975" cy="760" r="13" fill="#FAC1CA" stroke="#fff" stroke-width="2"/><path d="M970.5 755.5 L979.5 764.5 M979.5 755.5 L970.5 764.5" stroke="#C4485F" stroke-width="2.1" fill="none" stroke-linecap="round"/><path d="M 3300 554.27 L 3300 878 Q 3300 890 3288 890 L 1762 890 Q 1750 890 1750 878 L 1750 518" stroke="#D16A7F" stroke-width="1.6" fill="none" stroke-linecap="round" stroke-linejoin="round"/><circle cx="3300" cy="554.27" r="3.2" fill="#fff" stroke="#D16A7F" stroke-width="1.6"/><path d="M 1750 507 L 1755.2 518 L 1744.8 518 Z" fill="#D16A7F"/><circle cx="2525" cy="890" r="13" fill="#FAC1CA" stroke="#fff" stroke-width="2"/><path d="M2520.5 885.5 L2529.5 894.5 M2529.5 885.5 L2520.5 894.5" stroke="#C4485F" stroke-width="2.1" fill="none" stroke-linecap="round"/><circle cx="200" cy="460" r="66" fill="#C9D9FF"/><text x="200" y="455.35" font-family="DM Sans, -apple-system, BlinkMacSystemFont, sans-serif" font-size="15" font-weight="600" fill="#101828" text-anchor="middle">Trigger on</text><text x="200" y="475.15" font-family="DM Sans, -apple-system, BlinkMacSystemFont, sans-serif" font-size="15" font-weight="600" fill="#101828" text-anchor="middle">canvas</text><path d="M417 384 H603 a5 5 0 0 1 5 5 V532 C575 517, 549 542, 518 530 C484 518, 445 538, 412 529 V389 a5 5 0 0 1 5 -5 Z" fill="#E8EEFF"/><text x="510" y="447.35" font-family="DM Sans, -apple-system, BlinkMacSystemFont, sans-serif" font-size="15" font-weight="500" fill="#101828" text-anchor="middle">Trigger Setup</text><text x="510" y="467.15" font-family="DM Sans, -apple-system, BlinkMacSystemFont, sans-serif" font-size="15" font-weight="500" fill="#101828" text-anchor="middle">Sidebar</text><rect x="759" y="399" width="122" height="122" rx="10" fill="#EAECF0" transform="rotate(45 820 460)"/><text x="820" y="455.97" font-family="DM Sans, -apple-system, BlinkMacSystemFont, sans-serif" font-size="13" font-weight="500" fill="#101828" text-anchor="middle">Account</text><text x="820" y="473.13" font-family="DM Sans, -apple-system, BlinkMacSystemFont, sans-serif" font-size="13" font-weight="500" fill="#101828" text-anchor="middle">connected?</text><rect x="1032" y="421" width="196" height="78" rx="10" fill="#FCFCFD" stroke="#E5E5E7" stroke-width="1.5"/><text x="1130" y="455.35" font-family="DM Sans, -apple-system, BlinkMacSystemFont, sans-serif" font-size="15" font-weight="500" fill="#101828" text-anchor="middle">Select trigger</text><text x="1130" y="475.15" font-family="DM Sans, -apple-system, BlinkMacSystemFont, sans-serif" font-size="15" font-weight="500" fill="#101828" text-anchor="middle">event type</text><rect x="1379" y="399" width="122" height="122" rx="10" fill="#EAECF0" transform="rotate(45 1440 460)"/><text x="1440" y="455.97" font-family="DM Sans, -apple-system, BlinkMacSystemFont, sans-serif" font-size="13" font-weight="500" fill="#101828" text-anchor="middle">Triggers</text><text x="1440" y="473.13" font-family="DM Sans, -apple-system, BlinkMacSystemFont, sans-serif" font-size="13" font-weight="500" fill="#101828" text-anchor="middle">complete?</text><rect x="1652" y="421" width="196" height="78" rx="10" fill="#FCFCFD" stroke="#E5E5E7" stroke-width="1.5"/><text x="1750" y="455.35" font-family="DM Sans, -apple-system, BlinkMacSystemFont, sans-serif" font-size="15" font-weight="500" fill="#101828" text-anchor="middle">Click + to</text><text x="1750" y="475.15" font-family="DM Sans, -apple-system, BlinkMacSystemFont, sans-serif" font-size="15" font-weight="500" fill="#101828" text-anchor="middle">add step</text><path d="M1967 384 H2153 a5 5 0 0 1 5 5 V532 C2125 517, 2099 542, 2068 530 C2034 518, 1995 538, 1962 529 V389 a5 5 0 0 1 5 -5 Z" fill="#E8EEFF"/><text x="2060" y="447.35" font-family="DM Sans, -apple-system, BlinkMacSystemFont, sans-serif" font-size="15" font-weight="500" fill="#101828" text-anchor="middle">Sidebar Drawer</text><text x="2060" y="467.15" font-family="DM Sans, -apple-system, BlinkMacSystemFont, sans-serif" font-size="15" font-weight="500" fill="#101828" text-anchor="middle">Action List</text><rect x="2272" y="421" width="196" height="78" rx="10" fill="#FCFCFD" stroke="#E5E5E7" stroke-width="1.5"/><text x="2370" y="455.35" font-family="DM Sans, -apple-system, BlinkMacSystemFont, sans-serif" font-size="15" font-weight="500" fill="#101828" text-anchor="middle">Drag action</text><text x="2370" y="475.15" font-family="DM Sans, -apple-system, BlinkMacSystemFont, sans-serif" font-size="15" font-weight="500" fill="#101828" text-anchor="middle">onto canvas</text><path d="M2587 384 H2773 a5 5 0 0 1 5 5 V532 C2745 517, 2719 542, 2688 530 C2654 518, 2615 538, 2582 529 V389 a5 5 0 0 1 5 -5 Z" fill="#E8EEFF"/><text x="2680" y="447.35" font-family="DM Sans, -apple-system, BlinkMacSystemFont, sans-serif" font-size="15" font-weight="500" fill="#101828" text-anchor="middle">Action Setup</text><text x="2680" y="467.15" font-family="DM Sans, -apple-system, BlinkMacSystemFont, sans-serif" font-size="15" font-weight="500" fill="#101828" text-anchor="middle">Tab</text><rect x="2892" y="421" width="196" height="78" rx="10" fill="#FCFCFD" stroke="#E5E5E7" stroke-width="1.5"/><text x="2990" y="455.35" font-family="DM Sans, -apple-system, BlinkMacSystemFont, sans-serif" font-size="15" font-weight="500" fill="#101828" text-anchor="middle">Map fields via</text><text x="2990" y="475.15" font-family="DM Sans, -apple-system, BlinkMacSystemFont, sans-serif" font-size="15" font-weight="500" fill="#101828" text-anchor="middle">data flyout</text><rect x="3239" y="399" width="122" height="122" rx="10" fill="#EAECF0" transform="rotate(45 3300 460)"/><text x="3300" y="455.97" font-family="DM Sans, -apple-system, BlinkMacSystemFont, sans-serif" font-size="13" font-weight="500" fill="#101828" text-anchor="middle">Steps</text><text x="3300" y="473.13" font-family="DM Sans, -apple-system, BlinkMacSystemFont, sans-serif" font-size="13" font-weight="500" fill="#101828" text-anchor="middle">complete?</text><circle cx="3610" cy="460" r="66" fill="#C9D9FF"/><text x="3610" y="455.35" font-family="DM Sans, -apple-system, BlinkMacSystemFont, sans-serif" font-size="15" font-weight="600" fill="#101828" text-anchor="middle">Sequence</text><text x="3610" y="475.15" font-family="DM Sans, -apple-system, BlinkMacSystemFont, sans-serif" font-size="15" font-weight="600" fill="#101828" text-anchor="middle">built</text><path d="M727 64 H913 a5 5 0 0 1 5 5 V212 C885 197, 859 222, 828 210 C794 198, 755 218, 722 209 V69 a5 5 0 0 1 5 -5 Z" fill="#E8EEFF"/><text x="820" y="127.35" font-family="DM Sans, -apple-system, BlinkMacSystemFont, sans-serif" font-size="15" font-weight="500" fill="#101828" text-anchor="middle">Authorization</text><text x="820" y="147.15" font-family="DM Sans, -apple-system, BlinkMacSystemFont, sans-serif" font-size="15" font-weight="500" fill="#101828" text-anchor="middle">Window</text><rect x="1032" y="101" width="196" height="78" rx="10" fill="#FCFCFD" stroke="#E5E5E7" stroke-width="1.5"/><text x="1130" y="135.35" font-family="DM Sans, -apple-system, BlinkMacSystemFont, sans-serif" font-size="15" font-weight="500" fill="#101828" text-anchor="middle">Click Connect</text><text x="1130" y="155.15" font-family="DM Sans, -apple-system, BlinkMacSystemFont, sans-serif" font-size="15" font-weight="500" fill="#101828" text-anchor="middle">to authorize</text></svg>
