<svg xmlns="http://www.w3.org/2000/svg" viewBox="90 50 3630 880" style="width:100%;height:auto;display:block" role="img"><title>Flow 5 — Publishing and Managing Workflows: two-step confirmation and dashboard management</title><path d="M 276 480 L 395 480" stroke="#6D8DDD" stroke-width="1.6" fill="none" stroke-linecap="round" stroke-linejoin="round"/><circle cx="276" cy="480" r="3.2" fill="#fff" stroke="#6D8DDD" stroke-width="1.6"/><path d="M 406 480 L 395 485.2 L 395 474.8 Z" fill="#6D8DDD"/><path d="M 618 480 L 705 480" stroke="#6D8DDD" stroke-width="1.6" fill="none" stroke-linecap="round" stroke-linejoin="round"/><circle cx="618" cy="480" r="3.2" fill="#fff" stroke="#6D8DDD" stroke-width="1.6"/><path d="M 716 480 L 705 485.2 L 705 474.8 Z" fill="#6D8DDD"/><path d="M 928 480 L 1026.73 480" stroke="#6D8DDD" stroke-width="1.6" fill="none" stroke-linecap="round" stroke-linejoin="round"/><circle cx="928" cy="480" r="3.2" fill="#fff" stroke="#6D8DDD" stroke-width="1.6"/><path d="M 1037.73 480 L 1026.73 485.2 L 1026.73 474.8 Z" fill="#6D8DDD"/><path d="M 1226.27 480 L 1325 480" stroke="#6D8DDD" stroke-width="1.6" fill="none" stroke-linecap="round" stroke-linejoin="round"/><circle cx="1226.27" cy="480" r="3.2" fill="#fff" stroke="#6D8DDD" stroke-width="1.6"/><path d="M 1336 480 L 1325 485.2 L 1325 474.8 Z" fill="#6D8DDD"/><circle cx="1281.1335136523794" cy="480" r="13" fill="#BFF3CD" stroke="#fff" stroke-width="2"/><path d="M1275.6335136523794 480.3 L1279.4335136523794 484 L1286.6335136523794 476.6" stroke="#17966A" stroke-width="2.1" fill="none" stroke-linecap="round" stroke-linejoin="round"/><path d="M 1548 480 L 1635 480" stroke="#6D8DDD" stroke-width="1.6" fill="none" stroke-linecap="round" stroke-linejoin="round"/><circle cx="1548" cy="480" r="3.2" fill="#fff" stroke="#6D8DDD" stroke-width="1.6"/><path d="M 1646 480 L 1635 485.2 L 1635 474.8 Z" fill="#6D8DDD"/><path d="M 1858 480 L 1956.73 480" stroke="#6D8DDD" stroke-width="1.6" fill="none" stroke-linecap="round" stroke-linejoin="round"/><circle cx="1858" cy="480" r="3.2" fill="#fff" stroke="#6D8DDD" stroke-width="1.6"/><path d="M 1967.73 480 L 1956.73 485.2 L 1956.73 474.8 Z" fill="#6D8DDD"/><path d="M 2156.27 480 L 2255 480" stroke="#6D8DDD" stroke-width="1.6" fill="none" stroke-linecap="round" stroke-linejoin="round"/><circle cx="2156.27" cy="480" r="3.2" fill="#fff" stroke="#6D8DDD" stroke-width="1.6"/><path d="M 2266 480 L 2255 485.2 L 2255 474.8 Z" fill="#6D8DDD"/><circle cx="2211.1335136523794" cy="480" r="13" fill="#BFF3CD" stroke="#fff" stroke-width="2"/><path d="M2205.6335136523794 480.3 L2209.4335136523796 484 L2216.6335136523794 476.6" stroke="#17966A" stroke-width="2.1" fill="none" stroke-linecap="round" stroke-linejoin="round"/><path d="M 2478 480 L 2565 480" stroke="#6D8DDD" stroke-width="1.6" fill="none" stroke-linecap="round" stroke-linejoin="round"/><circle cx="2478" cy="480" r="3.2" fill="#fff" stroke="#6D8DDD" stroke-width="1.6"/><path d="M 2576 480 L 2565 485.2 L 2565 474.8 Z" fill="#6D8DDD"/><path d="M 2788 480 L 2875 480" stroke="#6D8DDD" stroke-width="1.6" fill="none" stroke-linecap="round" stroke-linejoin="round"/><circle cx="2788" cy="480" r="3.2" fill="#fff" stroke="#6D8DDD" stroke-width="1.6"/><path d="M 2886 480 L 2875 485.2 L 2875 474.8 Z" fill="#6D8DDD"/><path d="M 3098 480 L 3185 480" stroke="#6D8DDD" stroke-width="1.6" fill="none" stroke-linecap="round" stroke-linejoin="round"/><circle cx="3098" cy="480" r="3.2" fill="#fff" stroke="#6D8DDD" stroke-width="1.6"/><path d="M 3196 480 L 3185 485.2 L 3185 474.8 Z" fill="#6D8DDD"/><path d="M 3408 480 L 3527 480" stroke="#6D8DDD" stroke-width="1.6" fill="none" stroke-linecap="round" stroke-linejoin="round"/><circle cx="3408" cy="480" r="3.2" fill="#fff" stroke="#6D8DDD" stroke-width="1.6"/><path d="M 3538 480 L 3527 485.2 L 3527 474.8 Z" fill="#6D8DDD"/><path d="M 1130 385.73 L 1130 243" stroke="#D16A7F" stroke-width="1.6" fill="none" stroke-linecap="round" stroke-linejoin="round"/><circle cx="1130" cy="385.73" r="3.2" fill="#fff" stroke="#D16A7F" stroke-width="1.6"/><path d="M 1130 232 L 1135.2 243 L 1124.8 243 Z" fill="#D16A7F"/><circle cx="1130" cy="310" r="13" fill="#FAC1CA" stroke="#fff" stroke-width="2"/><path d="M1125.5 305.5 L1134.5 314.5 M1134.5 305.5 L1125.5 314.5" stroke="#C4485F" stroke-width="2.1" fill="none" stroke-linecap="round"/><path d="M 2060 574.27 L 2060 737" stroke="#D16A7F" stroke-width="1.6" fill="none" stroke-linecap="round" stroke-linejoin="round"/><circle cx="2060" cy="574.27" r="3.2" fill="#fff" stroke="#D16A7F" stroke-width="1.6"/><path d="M 2060 748 L 2054.8 737 L 2065.2 737 Z" fill="#D16A7F"/><circle cx="2060" cy="660" r="13" fill="#FAC1CA" stroke="#fff" stroke-width="2"/><path d="M2055.5 655.5 L2064.5 664.5 M2064.5 655.5 L2055.5 664.5" stroke="#C4485F" stroke-width="2.1" fill="none" stroke-linecap="round"/><circle cx="200" cy="480" r="66" fill="#C9D9FF"/><text x="200" y="475.35" font-family="DM Sans, -apple-system, BlinkMacSystemFont, sans-serif" font-size="15" font-weight="600" fill="#101828" text-anchor="middle">Tests</text><text x="200" y="495.15" font-family="DM Sans, -apple-system, BlinkMacSystemFont, sans-serif" font-size="15" font-weight="600" fill="#101828" text-anchor="middle">passing</text><rect x="412" y="441" width="196" height="78" rx="10" fill="#FCFCFD" stroke="#E5E5E7" stroke-width="1.5"/><text x="510" y="485.25" font-family="DM Sans, -apple-system, BlinkMacSystemFont, sans-serif" font-size="15" font-weight="500" fill="#101828" text-anchor="middle">Click Publish</text><path d="M727 404 H913 a5 5 0 0 1 5 5 V552 C885 537, 859 562, 828 550 C794 538, 755 558, 722 549 V409 a5 5 0 0 1 5 -5 Z" fill="#E8EEFF"/><text x="820" y="467.35" font-family="DM Sans, -apple-system, BlinkMacSystemFont, sans-serif" font-size="15" font-weight="500" fill="#101828" text-anchor="middle">Publish Confirm</text><text x="820" y="487.15" font-family="DM Sans, -apple-system, BlinkMacSystemFont, sans-serif" font-size="15" font-weight="500" fill="#101828" text-anchor="middle">Step 1</text><rect x="1069" y="419" width="122" height="122" rx="10" fill="#EAECF0" transform="rotate(45 1130 480)"/><text x="1130" y="475.97" font-family="DM Sans, -apple-system, BlinkMacSystemFont, sans-serif" font-size="13" font-weight="500" fill="#101828" text-anchor="middle">Confirm</text><text x="1130" y="493.13" font-family="DM Sans, -apple-system, BlinkMacSystemFont, sans-serif" font-size="13" font-weight="500" fill="#101828" text-anchor="middle">publish?</text><path d="M1347 404 H1533 a5 5 0 0 1 5 5 V552 C1505 537, 1479 562, 1448 550 C1414 538, 1375 558, 1342 549 V409 a5 5 0 0 1 5 -5 Z" fill="#E8EEFF"/><text x="1440" y="467.35" font-family="DM Sans, -apple-system, BlinkMacSystemFont, sans-serif" font-size="15" font-weight="500" fill="#101828" text-anchor="middle">Final Confirm</text><text x="1440" y="487.15" font-family="DM Sans, -apple-system, BlinkMacSystemFont, sans-serif" font-size="15" font-weight="500" fill="#101828" text-anchor="middle">Step 2</text><path d="M1657 404 H1843 a5 5 0 0 1 5 5 V552 C1815 537, 1789 562, 1758 550 C1724 538, 1685 558, 1652 549 V409 a5 5 0 0 1 5 -5 Z" fill="#E8EEFF"/><text x="1750" y="477.25" font-family="DM Sans, -apple-system, BlinkMacSystemFont, sans-serif" font-size="15" font-weight="500" fill="#101828" text-anchor="middle">Success State</text><rect x="1999" y="419" width="122" height="122" rx="10" fill="#EAECF0" transform="rotate(45 2060 480)"/><text x="2060" y="475.97" font-family="DM Sans, -apple-system, BlinkMacSystemFont, sans-serif" font-size="13" font-weight="500" fill="#101828" text-anchor="middle">Go to</text><text x="2060" y="493.13" font-family="DM Sans, -apple-system, BlinkMacSystemFont, sans-serif" font-size="13" font-weight="500" fill="#101828" text-anchor="middle">dashboard?</text><path d="M2277 404 H2463 a5 5 0 0 1 5 5 V552 C2435 537, 2409 562, 2378 550 C2344 538, 2305 558, 2272 549 V409 a5 5 0 0 1 5 -5 Z" fill="#E8EEFF"/><text x="2370" y="467.35" font-family="DM Sans, -apple-system, BlinkMacSystemFont, sans-serif" font-size="15" font-weight="500" fill="#101828" text-anchor="middle">Workflow</text><text x="2370" y="487.15" font-family="DM Sans, -apple-system, BlinkMacSystemFont, sans-serif" font-size="15" font-weight="500" fill="#101828" text-anchor="middle">Dashboard</text><rect x="2582" y="441" width="196" height="78" rx="10" fill="#FCFCFD" stroke="#E5E5E7" stroke-width="1.5"/><text x="2680" y="475.35" font-family="DM Sans, -apple-system, BlinkMacSystemFont, sans-serif" font-size="15" font-weight="500" fill="#101828" text-anchor="middle">Search, filter</text><text x="2680" y="495.15" font-family="DM Sans, -apple-system, BlinkMacSystemFont, sans-serif" font-size="15" font-weight="500" fill="#101828" text-anchor="middle">&amp; sort</text><path d="M2897 404 H3083 a5 5 0 0 1 5 5 V552 C3055 537, 3029 562, 2998 550 C2964 538, 2925 558, 2892 549 V409 a5 5 0 0 1 5 -5 Z" fill="#E8EEFF"/><text x="2990" y="457.45" font-family="DM Sans, -apple-system, BlinkMacSystemFont, sans-serif" font-size="15" font-weight="500" fill="#101828" text-anchor="middle">Workflow list</text><text x="2990" y="477.25" font-family="DM Sans, -apple-system, BlinkMacSystemFont, sans-serif" font-size="15" font-weight="500" fill="#101828" text-anchor="middle">status &amp; version</text><text x="2990" y="497.05" font-family="DM Sans, -apple-system, BlinkMacSystemFont, sans-serif" font-size="15" font-weight="500" fill="#101828" text-anchor="middle">history</text><rect x="3202" y="441" width="196" height="78" rx="10" fill="#FCFCFD" stroke="#E5E5E7" stroke-width="1.5"/><text x="3300" y="475.35" font-family="DM Sans, -apple-system, BlinkMacSystemFont, sans-serif" font-size="15" font-weight="500" fill="#101828" text-anchor="middle">Pause, rename</text><text x="3300" y="495.15" font-family="DM Sans, -apple-system, BlinkMacSystemFont, sans-serif" font-size="15" font-weight="500" fill="#101828" text-anchor="middle">or delete</text><circle cx="3610" cy="480" r="66" fill="#C9D9FF"/><text x="3610" y="475.35" font-family="DM Sans, -apple-system, BlinkMacSystemFont, sans-serif" font-size="15" font-weight="600" fill="#101828" text-anchor="middle">Workflow</text><text x="3610" y="495.15" font-family="DM Sans, -apple-system, BlinkMacSystemFont, sans-serif" font-size="15" font-weight="600" fill="#101828" text-anchor="middle">managed</text><circle cx="1130" cy="160" r="66" fill="#C9D9FF"/><text x="1130" y="155.35" font-family="DM Sans, -apple-system, BlinkMacSystemFont, sans-serif" font-size="15" font-weight="600" fill="#101828" text-anchor="middle">Back to</text><text x="1130" y="175.15" font-family="DM Sans, -apple-system, BlinkMacSystemFont, sans-serif" font-size="15" font-weight="600" fill="#101828" text-anchor="middle">canvas</text><circle cx="2060" cy="820" r="66" fill="#C9D9FF"/><text x="2060" y="815.35" font-family="DM Sans, -apple-system, BlinkMacSystemFont, sans-serif" font-size="15" font-weight="600" fill="#101828" text-anchor="middle">Keep working</text><text x="2060" y="835.15" font-family="DM Sans, -apple-system, BlinkMacSystemFont, sans-serif" font-size="15" font-weight="600" fill="#101828" text-anchor="middle">on canvas</text></svg>
