<svg xmlns="http://www.w3.org/2000/svg" viewBox="90 37 3320 513" style="width:100%;height:auto;display:block" role="img"><title>Flow 1 — Creating a Workflow: dashboard to first trigger on canvas</title><path d="M 276 420 L 395 420" stroke="#6D8DDD" stroke-width="1.6" fill="none" stroke-linecap="round" stroke-linejoin="round"/><circle cx="276" cy="420" r="3.2" fill="#fff" stroke="#6D8DDD" stroke-width="1.6"/><path d="M 406 420 L 395 425.2 L 395 414.8 Z" fill="#6D8DDD"/><path d="M 618 420 L 705 420" stroke="#6D8DDD" stroke-width="1.6" fill="none" stroke-linecap="round" stroke-linejoin="round"/><circle cx="618" cy="420" r="3.2" fill="#fff" stroke="#6D8DDD" stroke-width="1.6"/><path d="M 716 420 L 705 425.2 L 705 414.8 Z" fill="#6D8DDD"/><path d="M 928 420 L 1015 420" stroke="#6D8DDD" stroke-width="1.6" fill="none" stroke-linecap="round" stroke-linejoin="round"/><circle cx="928" cy="420" r="3.2" fill="#fff" stroke="#6D8DDD" stroke-width="1.6"/><path d="M 1026 420 L 1015 425.2 L 1015 414.8 Z" fill="#6D8DDD"/><path d="M 1238 420 L 1325 420" stroke="#6D8DDD" stroke-width="1.6" fill="none" stroke-linecap="round" stroke-linejoin="round"/><circle cx="1238" cy="420" r="3.2" fill="#fff" stroke="#6D8DDD" stroke-width="1.6"/><path d="M 1336 420 L 1325 425.2 L 1325 414.8 Z" fill="#6D8DDD"/><path d="M 1548 420 L 1635 420" stroke="#6D8DDD" stroke-width="1.6" fill="none" stroke-linecap="round" stroke-linejoin="round"/><circle cx="1548" cy="420" r="3.2" fill="#fff" stroke="#6D8DDD" stroke-width="1.6"/><path d="M 1646 420 L 1635 425.2 L 1635 414.8 Z" fill="#6D8DDD"/><path d="M 1858 420 L 1945 420" stroke="#6D8DDD" stroke-width="1.6" fill="none" stroke-linecap="round" stroke-linejoin="round"/><circle cx="1858" cy="420" r="3.2" fill="#fff" stroke="#6D8DDD" stroke-width="1.6"/><path d="M 1956 420 L 1945 425.2 L 1945 414.8 Z" fill="#6D8DDD"/><path d="M 2168 420 L 2266.73 420" stroke="#6D8DDD" stroke-width="1.6" fill="none" stroke-linecap="round" stroke-linejoin="round"/><circle cx="2168" cy="420" r="3.2" fill="#fff" stroke="#6D8DDD" stroke-width="1.6"/><path d="M 2277.73 420 L 2266.73 425.2 L 2266.73 414.8 Z" fill="#6D8DDD"/><path d="M 2466.27 420 L 2565 420" stroke="#6D8DDD" stroke-width="1.6" fill="none" stroke-linecap="round" stroke-linejoin="round"/><circle cx="2466.27" cy="420" r="3.2" fill="#fff" stroke="#6D8DDD" stroke-width="1.6"/><path d="M 2576 420 L 2565 425.2 L 2565 414.8 Z" fill="#6D8DDD"/><circle cx="2521.1335136523794" cy="420" r="13" fill="#BFF3CD" stroke="#fff" stroke-width="2"/><path d="M2515.6335136523794 420.3 L2519.4335136523796 424 L2526.6335136523794 416.6" stroke="#17966A" stroke-width="2.1" fill="none" stroke-linecap="round" stroke-linejoin="round"/><path d="M 2788 420 L 2875 420" stroke="#6D8DDD" stroke-width="1.6" fill="none" stroke-linecap="round" stroke-linejoin="round"/><circle cx="2788" cy="420" r="3.2" fill="#fff" stroke="#6D8DDD" stroke-width="1.6"/><path d="M 2886 420 L 2875 425.2 L 2875 414.8 Z" fill="#6D8DDD"/><path d="M 3098 420 L 3217 420" stroke="#6D8DDD" stroke-width="1.6" fill="none" stroke-linecap="round" stroke-linejoin="round"/><circle cx="3098" cy="420" r="3.2" fill="#fff" stroke="#6D8DDD" stroke-width="1.6"/><path d="M 3228 420 L 3217 425.2 L 3217 414.8 Z" fill="#6D8DDD"/><path d="M 2370 325.73 L 2370 176" stroke="#D16A7F" stroke-width="1.6" fill="none" stroke-linecap="round" stroke-linejoin="round"/><circle cx="2370" cy="325.73" r="3.2" fill="#fff" stroke="#D16A7F" stroke-width="1.6"/><path d="M 2370 165 L 2375.2 176 L 2364.8 176 Z" fill="#D16A7F"/><circle cx="2370" cy="250" r="13" fill="#FAC1CA" stroke="#fff" stroke-width="2"/><path d="M2365.5 245.5 L2374.5 254.5 M2374.5 245.5 L2365.5 254.5" stroke="#C4485F" stroke-width="2.1" fill="none" stroke-linecap="round"/><path d="M 2262 120 L 2072 120 Q 2060 120 2060 132 L 2060 327" stroke="#6D8DDD" stroke-width="1.6" fill="none" stroke-linecap="round" stroke-linejoin="round" stroke-dasharray="7 6"/><circle cx="2262" cy="120" r="3.2" fill="#fff" stroke="#6D8DDD" stroke-width="1.6"/><path d="M 2060 338 L 2054.8 327 L 2065.2 327 Z" fill="#6D8DDD"/><circle cx="200" cy="420" r="66" fill="#C9D9FF"/><text x="200" y="415.35" font-family="DM Sans, -apple-system, BlinkMacSystemFont, sans-serif" font-size="15" font-weight="600" fill="#101828" text-anchor="middle">Workflow</text><text x="200" y="435.15" font-family="DM Sans, -apple-system, BlinkMacSystemFont, sans-serif" font-size="15" font-weight="600" fill="#101828" text-anchor="middle">Dashboard</text><rect x="412" y="381" width="196" height="78" rx="10" fill="#FCFCFD" stroke="#E5E5E7" stroke-width="1.5"/><text x="510" y="415.35" font-family="DM Sans, -apple-system, BlinkMacSystemFont, sans-serif" font-size="15" font-weight="500" fill="#101828" text-anchor="middle">Click Create</text><text x="510" y="435.15" font-family="DM Sans, -apple-system, BlinkMacSystemFont, sans-serif" font-size="15" font-weight="500" fill="#101828" text-anchor="middle">Workflow</text><path d="M727 344 H913 a5 5 0 0 1 5 5 V492 C885 477, 859 502, 828 490 C794 478, 755 498, 722 489 V349 a5 5 0 0 1 5 -5 Z" fill="#E8EEFF"/><text x="820" y="407.35" font-family="DM Sans, -apple-system, BlinkMacSystemFont, sans-serif" font-size="15" font-weight="500" fill="#101828" text-anchor="middle">Name Workflow</text><text x="820" y="427.15" font-family="DM Sans, -apple-system, BlinkMacSystemFont, sans-serif" font-size="15" font-weight="500" fill="#101828" text-anchor="middle">Modal</text><rect x="1032" y="381" width="196" height="78" rx="10" fill="#FCFCFD" stroke="#E5E5E7" stroke-width="1.5"/><text x="1130" y="415.35" font-family="DM Sans, -apple-system, BlinkMacSystemFont, sans-serif" font-size="15" font-weight="500" fill="#101828" text-anchor="middle">Enter workflow</text><text x="1130" y="435.15" font-family="DM Sans, -apple-system, BlinkMacSystemFont, sans-serif" font-size="15" font-weight="500" fill="#101828" text-anchor="middle">name</text><path d="M1347 344 H1533 a5 5 0 0 1 5 5 V492 C1505 477, 1479 502, 1448 490 C1414 478, 1375 498, 1342 489 V349 a5 5 0 0 1 5 -5 Z" fill="#E8EEFF"/><text x="1440" y="407.35" font-family="DM Sans, -apple-system, BlinkMacSystemFont, sans-serif" font-size="15" font-weight="500" fill="#101828" text-anchor="middle">Blank Canvas</text><text x="1440" y="427.15" font-family="DM Sans, -apple-system, BlinkMacSystemFont, sans-serif" font-size="15" font-weight="500" fill="#101828" text-anchor="middle">Empty State</text><rect x="1652" y="381" width="196" height="78" rx="10" fill="#FCFCFD" stroke="#E5E5E7" stroke-width="1.5"/><text x="1750" y="415.35" font-family="DM Sans, -apple-system, BlinkMacSystemFont, sans-serif" font-size="15" font-weight="500" fill="#101828" text-anchor="middle">Click “Add a</text><text x="1750" y="435.15" font-family="DM Sans, -apple-system, BlinkMacSystemFont, sans-serif" font-size="15" font-weight="500" fill="#101828" text-anchor="middle">Trigger”</text><path d="M1967 344 H2153 a5 5 0 0 1 5 5 V492 C2125 477, 2099 502, 2068 490 C2034 478, 1995 498, 1962 489 V349 a5 5 0 0 1 5 -5 Z" fill="#E8EEFF"/><text x="2060" y="407.35" font-family="DM Sans, -apple-system, BlinkMacSystemFont, sans-serif" font-size="15" font-weight="500" fill="#101828" text-anchor="middle">Sidebar Drawer</text><text x="2060" y="427.15" font-family="DM Sans, -apple-system, BlinkMacSystemFont, sans-serif" font-size="15" font-weight="500" fill="#101828" text-anchor="middle">Trigger List</text><rect x="2309" y="359" width="122" height="122" rx="10" fill="#EAECF0" transform="rotate(45 2370 420)"/><text x="2370" y="415.97" font-family="DM Sans, -apple-system, BlinkMacSystemFont, sans-serif" font-size="13" font-weight="500" fill="#101828" text-anchor="middle">Trigger</text><text x="2370" y="433.13" font-family="DM Sans, -apple-system, BlinkMacSystemFont, sans-serif" font-size="13" font-weight="500" fill="#101828" text-anchor="middle">found?</text><rect x="2582" y="381" width="196" height="78" rx="10" fill="#FCFCFD" stroke="#E5E5E7" stroke-width="1.5"/><text x="2680" y="415.35" font-family="DM Sans, -apple-system, BlinkMacSystemFont, sans-serif" font-size="15" font-weight="500" fill="#101828" text-anchor="middle">Drag trigger to</text><text x="2680" y="435.15" font-family="DM Sans, -apple-system, BlinkMacSystemFont, sans-serif" font-size="15" font-weight="500" fill="#101828" text-anchor="middle">drop zone</text><path d="M2897 344 H3083 a5 5 0 0 1 5 5 V492 C3055 477, 3029 502, 2998 490 C2964 478, 2925 498, 2892 489 V349 a5 5 0 0 1 5 -5 Z" fill="#E8EEFF"/><text x="2990" y="407.35" font-family="DM Sans, -apple-system, BlinkMacSystemFont, sans-serif" font-size="15" font-weight="500" fill="#101828" text-anchor="middle">Trigger Active</text><text x="2990" y="427.15" font-family="DM Sans, -apple-system, BlinkMacSystemFont, sans-serif" font-size="15" font-weight="500" fill="#101828" text-anchor="middle">Setup Tab</text><circle cx="3300" cy="420" r="66" fill="#C9D9FF"/><text x="3300" y="415.35" font-family="DM Sans, -apple-system, BlinkMacSystemFont, sans-serif" font-size="15" font-weight="600" fill="#101828" text-anchor="middle">Trigger on</text><text x="3300" y="435.15" font-family="DM Sans, -apple-system, BlinkMacSystemFont, sans-serif" font-size="15" font-weight="600" fill="#101828" text-anchor="middle">canvas</text><rect x="2272" y="81" width="196" height="78" rx="10" fill="#FCFCFD" stroke="#E5E5E7" stroke-width="1.5"/><text x="2370" y="115.35" font-family="DM Sans, -apple-system, BlinkMacSystemFont, sans-serif" font-size="15" font-weight="500" fill="#101828" text-anchor="middle">Search for</text><text x="2370" y="135.15" font-family="DM Sans, -apple-system, BlinkMacSystemFont, sans-serif" font-size="15" font-weight="500" fill="#101828" text-anchor="middle">trigger</text></svg>
