<svg xmlns="http://www.w3.org/2000/svg" viewBox="90 80 3940 1044" style="width:100%;height:auto;display:block" role="img"><title>Flow 3 — Configuring Split Paths: conditional and percentage branching logic</title><path d="M 276 520 L 395 520" stroke="#6D8DDD" stroke-width="1.6" fill="none" stroke-linecap="round" stroke-linejoin="round"/><circle cx="276" cy="520" r="3.2" fill="#fff" stroke="#6D8DDD" stroke-width="1.6"/><path d="M 406 520 L 395 525.2 L 395 514.8 Z" fill="#6D8DDD"/><path d="M 618 520 L 705 520" stroke="#6D8DDD" stroke-width="1.6" fill="none" stroke-linecap="round" stroke-linejoin="round"/><circle cx="618" cy="520" r="3.2" fill="#fff" stroke="#6D8DDD" stroke-width="1.6"/><path d="M 716 520 L 705 525.2 L 705 514.8 Z" fill="#6D8DDD"/><path d="M 928 520 L 1026.73 520" stroke="#6D8DDD" stroke-width="1.6" fill="none" stroke-linecap="round" stroke-linejoin="round"/><circle cx="928" cy="520" r="3.2" fill="#fff" stroke="#6D8DDD" stroke-width="1.6"/><path d="M 1037.73 520 L 1026.73 525.2 L 1026.73 514.8 Z" fill="#6D8DDD"/><path d="M 1130 425.73 L 1130 212 Q 1130 200 1142 200 L 1325 200" stroke="#6D8DDD" stroke-width="1.6" fill="none" stroke-linecap="round" stroke-linejoin="round"/><circle cx="1130" cy="425.73" r="3.2" fill="#fff" stroke="#6D8DDD" stroke-width="1.6"/><path d="M 1336 200 L 1325 205.2 L 1325 194.8 Z" fill="#6D8DDD"/><text x="1214" y="178" font-family="DM Sans, sans-serif" font-size="13" font-weight="600" fill="#667085" text-anchor="middle">Conditional</text><path d="M 1130 614.27 L 1130 828 Q 1130 840 1142 840 L 1325 840" stroke="#6D8DDD" stroke-width="1.6" fill="none" stroke-linecap="round" stroke-linejoin="round"/><circle cx="1130" cy="614.27" r="3.2" fill="#fff" stroke="#6D8DDD" stroke-width="1.6"/><path d="M 1336 840 L 1325 845.2 L 1325 834.8 Z" fill="#6D8DDD"/><text x="1214" y="818" font-family="DM Sans, sans-serif" font-size="13" font-weight="600" fill="#667085" text-anchor="middle">Percentage</text><path d="M 1548 200 L 1635 200" stroke="#6D8DDD" stroke-width="1.6" fill="none" stroke-linecap="round" stroke-linejoin="round"/><circle cx="1548" cy="200" r="3.2" fill="#fff" stroke="#6D8DDD" stroke-width="1.6"/><path d="M 1646 200 L 1635 205.2 L 1635 194.8 Z" fill="#6D8DDD"/><path d="M 1858 200 L 1945 200" stroke="#6D8DDD" stroke-width="1.6" fill="none" stroke-linecap="round" stroke-linejoin="round"/><circle cx="1858" cy="200" r="3.2" fill="#fff" stroke="#6D8DDD" stroke-width="1.6"/><path d="M 1956 200 L 1945 205.2 L 1945 194.8 Z" fill="#6D8DDD"/><path d="M 1548 840 L 1635 840" stroke="#6D8DDD" stroke-width="1.6" fill="none" stroke-linecap="round" stroke-linejoin="round"/><circle cx="1548" cy="840" r="3.2" fill="#fff" stroke="#6D8DDD" stroke-width="1.6"/><path d="M 1646 840 L 1635 845.2 L 1635 834.8 Z" fill="#6D8DDD"/><path d="M 1858 840 L 1956.73 840" stroke="#6D8DDD" stroke-width="1.6" fill="none" stroke-linecap="round" stroke-linejoin="round"/><circle cx="1858" cy="840" r="3.2" fill="#fff" stroke="#6D8DDD" stroke-width="1.6"/><path d="M 1967.73 840 L 1956.73 845.2 L 1956.73 834.8 Z" fill="#6D8DDD"/><path d="M 2168 200 L 2358 200 Q 2370 200 2370 212 L 2370 464" stroke="#6D8DDD" stroke-width="1.6" fill="none" stroke-linecap="round" stroke-linejoin="round"/><circle cx="2168" cy="200" r="3.2" fill="#fff" stroke="#6D8DDD" stroke-width="1.6"/><path d="M 2370 475 L 2364.8 464 L 2375.2 464 Z" fill="#6D8DDD"/><path d="M 2156.27 840 L 2358 840 Q 2370 840 2370 828 L 2370 576" stroke="#6D8DDD" stroke-width="1.6" fill="none" stroke-linecap="round" stroke-linejoin="round"/><circle cx="2156.27" cy="840" r="3.2" fill="#fff" stroke="#6D8DDD" stroke-width="1.6"/><path d="M 2370 565 L 2375.2 576 L 2364.8 576 Z" fill="#6D8DDD"/><circle cx="2370" cy="750" r="13" fill="#BFF3CD" stroke="#fff" stroke-width="2"/><path d="M2364.5 750.3 L2368.3 754 L2375.5 746.6" stroke="#17966A" stroke-width="2.1" fill="none" stroke-linecap="round" stroke-linejoin="round"/><path d="M 2060 934.27 L 2060 1068 Q 2060 1080 2048 1080 L 1762 1080 Q 1750 1080 1750 1068 L 1750 898" stroke="#D16A7F" stroke-width="1.6" fill="none" stroke-linecap="round" stroke-linejoin="round"/><circle cx="2060" cy="934.27" r="3.2" fill="#fff" stroke="#D16A7F" stroke-width="1.6"/><path d="M 1750 887 L 1755.2 898 L 1744.8 898 Z" fill="#D16A7F"/><circle cx="1905" cy="1080" r="13" fill="#FAC1CA" stroke="#fff" stroke-width="2"/><path d="M1900.5 1075.5 L1909.5 1084.5 M1909.5 1075.5 L1900.5 1084.5" stroke="#C4485F" stroke-width="2.1" fill="none" stroke-linecap="round"/><path d="M 2478 520 L 2565 520" stroke="#6D8DDD" stroke-width="1.6" fill="none" stroke-linecap="round" stroke-linejoin="round"/><circle cx="2478" cy="520" r="3.2" fill="#fff" stroke="#6D8DDD" stroke-width="1.6"/><path d="M 2576 520 L 2565 525.2 L 2565 514.8 Z" fill="#6D8DDD"/><path d="M 2788 520 L 2875 520" stroke="#6D8DDD" stroke-width="1.6" fill="none" stroke-linecap="round" stroke-linejoin="round"/><circle cx="2788" cy="520" r="3.2" fill="#fff" stroke="#6D8DDD" stroke-width="1.6"/><path d="M 2886 520 L 2875 525.2 L 2875 514.8 Z" fill="#6D8DDD"/><path d="M 3098 520 L 3196.73 520" stroke="#6D8DDD" stroke-width="1.6" fill="none" stroke-linecap="round" stroke-linejoin="round"/><circle cx="3098" cy="520" r="3.2" fill="#fff" stroke="#6D8DDD" stroke-width="1.6"/><path d="M 3207.73 520 L 3196.73 525.2 L 3196.73 514.8 Z" fill="#6D8DDD"/><path d="M 3396.27 520 L 3495 520" stroke="#6D8DDD" stroke-width="1.6" fill="none" stroke-linecap="round" stroke-linejoin="round"/><circle cx="3396.27" cy="520" r="3.2" fill="#fff" stroke="#6D8DDD" stroke-width="1.6"/><path d="M 3506 520 L 3495 525.2 L 3495 514.8 Z" fill="#6D8DDD"/><circle cx="3451.1335136523794" cy="520" r="13" fill="#BFF3CD" stroke="#fff" stroke-width="2"/><path d="M3445.6335136523794 520.3 L3449.4335136523796 524 L3456.6335136523794 516.6" stroke="#17966A" stroke-width="2.1" fill="none" stroke-linecap="round" stroke-linejoin="round"/><path d="M 3718 520 L 3837 520" stroke="#6D8DDD" stroke-width="1.6" fill="none" stroke-linecap="round" stroke-linejoin="round"/><circle cx="3718" cy="520" r="3.2" fill="#fff" stroke="#6D8DDD" stroke-width="1.6"/><path d="M 3848 520 L 3837 525.2 L 3837 514.8 Z" fill="#6D8DDD"/><path d="M 3300 425.73 L 3300 312 Q 3300 300 3312 300 L 3908 300 Q 3920 300 3920 312 L 3920 437" stroke="#D16A7F" stroke-width="1.6" fill="none" stroke-linecap="round" stroke-linejoin="round"/><circle cx="3300" cy="425.73" r="3.2" fill="#fff" stroke="#D16A7F" stroke-width="1.6"/><path d="M 3920 448 L 3914.8 437 L 3925.2 437 Z" fill="#D16A7F"/><circle cx="3610" cy="300" r="13" fill="#FAC1CA" stroke="#fff" stroke-width="2"/><path d="M3605.5 295.5 L3614.5 304.5 M3614.5 295.5 L3605.5 304.5" stroke="#C4485F" stroke-width="2.1" fill="none" stroke-linecap="round"/><circle cx="200" cy="520" r="66" fill="#C9D9FF"/><text x="200" y="515.35" font-family="DM Sans, -apple-system, BlinkMacSystemFont, sans-serif" font-size="15" font-weight="600" fill="#101828" text-anchor="middle">Sequence</text><text x="200" y="535.15" font-family="DM Sans, -apple-system, BlinkMacSystemFont, sans-serif" font-size="15" font-weight="600" fill="#101828" text-anchor="middle">built</text><rect x="412" y="481" width="196" height="78" rx="10" fill="#FCFCFD" stroke="#E5E5E7" stroke-width="1.5"/><text x="510" y="515.35" font-family="DM Sans, -apple-system, BlinkMacSystemFont, sans-serif" font-size="15" font-weight="500" fill="#101828" text-anchor="middle">Add Split Path</text><text x="510" y="535.15" font-family="DM Sans, -apple-system, BlinkMacSystemFont, sans-serif" font-size="15" font-weight="500" fill="#101828" text-anchor="middle">node</text><path d="M727 444 H913 a5 5 0 0 1 5 5 V592 C885 577, 859 602, 828 590 C794 578, 755 598, 722 589 V449 a5 5 0 0 1 5 -5 Z" fill="#E8EEFF"/><text x="820" y="507.35" font-family="DM Sans, -apple-system, BlinkMacSystemFont, sans-serif" font-size="15" font-weight="500" fill="#101828" text-anchor="middle">Split Path Setup</text><text x="820" y="527.15" font-family="DM Sans, -apple-system, BlinkMacSystemFont, sans-serif" font-size="15" font-weight="500" fill="#101828" text-anchor="middle">Sidebar</text><rect x="1069" y="459" width="122" height="122" rx="10" fill="#EAECF0" transform="rotate(45 1130 520)"/><text x="1130" y="515.97" font-family="DM Sans, -apple-system, BlinkMacSystemFont, sans-serif" font-size="13" font-weight="500" fill="#101828" text-anchor="middle">Split</text><text x="1130" y="533.13" font-family="DM Sans, -apple-system, BlinkMacSystemFont, sans-serif" font-size="13" font-weight="500" fill="#101828" text-anchor="middle">type?</text><path d="M1347 124 H1533 a5 5 0 0 1 5 5 V272 C1505 257, 1479 282, 1448 270 C1414 258, 1375 278, 1342 269 V129 a5 5 0 0 1 5 -5 Z" fill="#E8EEFF"/><text x="1440" y="187.35" font-family="DM Sans, -apple-system, BlinkMacSystemFont, sans-serif" font-size="15" font-weight="500" fill="#101828" text-anchor="middle">Conditions Tab</text><text x="1440" y="207.15" font-family="DM Sans, -apple-system, BlinkMacSystemFont, sans-serif" font-size="15" font-weight="500" fill="#101828" text-anchor="middle">AND/OR builder</text><rect x="1652" y="161" width="196" height="78" rx="10" fill="#FCFCFD" stroke="#E5E5E7" stroke-width="1.5"/><text x="1750" y="195.35" font-family="DM Sans, -apple-system, BlinkMacSystemFont, sans-serif" font-size="15" font-weight="500" fill="#101828" text-anchor="middle">Build condition</text><text x="1750" y="215.15" font-family="DM Sans, -apple-system, BlinkMacSystemFont, sans-serif" font-size="15" font-weight="500" fill="#101828" text-anchor="middle">rules</text><path d="M1967 124 H2153 a5 5 0 0 1 5 5 V272 C2125 257, 2099 282, 2068 270 C2034 258, 1995 278, 1962 269 V129 a5 5 0 0 1 5 -5 Z" fill="#E8EEFF"/><text x="2060" y="187.35" font-family="DM Sans, -apple-system, BlinkMacSystemFont, sans-serif" font-size="15" font-weight="500" fill="#101828" text-anchor="middle">Data Flyout</text><text x="2060" y="207.15" font-family="DM Sans, -apple-system, BlinkMacSystemFont, sans-serif" font-size="15" font-weight="500" fill="#101828" text-anchor="middle">field picker</text><path d="M1347 764 H1533 a5 5 0 0 1 5 5 V912 C1505 897, 1479 922, 1448 910 C1414 898, 1375 918, 1342 909 V769 a5 5 0 0 1 5 -5 Z" fill="#E8EEFF"/><text x="1440" y="827.35" font-family="DM Sans, -apple-system, BlinkMacSystemFont, sans-serif" font-size="15" font-weight="500" fill="#101828" text-anchor="middle">Percentage Split</text><text x="1440" y="847.15" font-family="DM Sans, -apple-system, BlinkMacSystemFont, sans-serif" font-size="15" font-weight="500" fill="#101828" text-anchor="middle">tab</text><rect x="1652" y="801" width="196" height="78" rx="10" fill="#FCFCFD" stroke="#E5E5E7" stroke-width="1.5"/><text x="1750" y="835.35" font-family="DM Sans, -apple-system, BlinkMacSystemFont, sans-serif" font-size="15" font-weight="500" fill="#101828" text-anchor="middle">Set distribution</text><text x="1750" y="855.15" font-family="DM Sans, -apple-system, BlinkMacSystemFont, sans-serif" font-size="15" font-weight="500" fill="#101828" text-anchor="middle">across paths</text><rect x="1999" y="779" width="122" height="122" rx="10" fill="#EAECF0" transform="rotate(45 2060 840)"/><text x="2060" y="835.97" font-family="DM Sans, -apple-system, BlinkMacSystemFont, sans-serif" font-size="13" font-weight="500" fill="#101828" text-anchor="middle">Totals</text><text x="2060" y="853.13" font-family="DM Sans, -apple-system, BlinkMacSystemFont, sans-serif" font-size="13" font-weight="500" fill="#101828" text-anchor="middle">100%?</text><rect x="2272" y="481" width="196" height="78" rx="10" fill="#FCFCFD" stroke="#E5E5E7" stroke-width="1.5"/><text x="2370" y="515.35" font-family="DM Sans, -apple-system, BlinkMacSystemFont, sans-serif" font-size="15" font-weight="500" fill="#101828" text-anchor="middle">Name each</text><text x="2370" y="535.15" font-family="DM Sans, -apple-system, BlinkMacSystemFont, sans-serif" font-size="15" font-weight="500" fill="#101828" text-anchor="middle">path</text><path d="M2587 444 H2773 a5 5 0 0 1 5 5 V592 C2745 577, 2719 602, 2688 590 C2654 578, 2615 598, 2582 589 V449 a5 5 0 0 1 5 -5 Z" fill="#E8EEFF"/><text x="2680" y="507.35" font-family="DM Sans, -apple-system, BlinkMacSystemFont, sans-serif" font-size="15" font-weight="500" fill="#101828" text-anchor="middle">Path Preview</text><text x="2680" y="527.15" font-family="DM Sans, -apple-system, BlinkMacSystemFont, sans-serif" font-size="15" font-weight="500" fill="#101828" text-anchor="middle">contact routing</text><rect x="2892" y="481" width="196" height="78" rx="10" fill="#FCFCFD" stroke="#E5E5E7" stroke-width="1.5"/><text x="2990" y="515.35" font-family="DM Sans, -apple-system, BlinkMacSystemFont, sans-serif" font-size="15" font-weight="500" fill="#101828" text-anchor="middle">Add steps to</text><text x="2990" y="535.15" font-family="DM Sans, -apple-system, BlinkMacSystemFont, sans-serif" font-size="15" font-weight="500" fill="#101828" text-anchor="middle">each branch</text><rect x="3239" y="459" width="122" height="122" rx="10" fill="#EAECF0" transform="rotate(45 3300 520)"/><text x="3300" y="515.97" font-family="DM Sans, -apple-system, BlinkMacSystemFont, sans-serif" font-size="13" font-weight="500" fill="#101828" text-anchor="middle">Merge</text><text x="3300" y="533.13" font-family="DM Sans, -apple-system, BlinkMacSystemFont, sans-serif" font-size="13" font-weight="500" fill="#101828" text-anchor="middle">paths?</text><rect x="3512" y="481" width="196" height="78" rx="10" fill="#FCFCFD" stroke="#E5E5E7" stroke-width="1.5"/><text x="3610" y="515.35" font-family="DM Sans, -apple-system, BlinkMacSystemFont, sans-serif" font-size="15" font-weight="500" fill="#101828" text-anchor="middle">Set merge</text><text x="3610" y="535.15" font-family="DM Sans, -apple-system, BlinkMacSystemFont, sans-serif" font-size="15" font-weight="500" fill="#101828" text-anchor="middle">point</text><circle cx="3920" cy="520" r="66" fill="#C9D9FF"/><text x="3920" y="515.35" font-family="DM Sans, -apple-system, BlinkMacSystemFont, sans-serif" font-size="15" font-weight="600" fill="#101828" text-anchor="middle">Branching</text><text x="3920" y="535.15" font-family="DM Sans, -apple-system, BlinkMacSystemFont, sans-serif" font-size="15" font-weight="600" fill="#101828" text-anchor="middle">configured</text></svg>
