<svg xmlns="http://www.w3.org/2000/svg" viewBox="90 20 2390 550" style="width:100%;height:auto;display:block" role="img"><title>Flow 4, Testing a Workflow: run test, review pass/fail, debug failed nodes</title><path d="M 276 440 L 395 440" stroke="#6D8DDD" stroke-width="1.6" fill="none" stroke-linecap="round" stroke-linejoin="round"/><circle cx="276" cy="440" r="3.2" fill="#fff" stroke="#6D8DDD" stroke-width="1.6"/><path d="M 406 440 L 395 445.2 L 395 434.8 Z" fill="#6D8DDD"/><path d="M 618 440 L 705 440" stroke="#6D8DDD" stroke-width="1.6" fill="none" stroke-linecap="round" stroke-linejoin="round"/><circle cx="618" cy="440" r="3.2" fill="#fff" stroke="#6D8DDD" stroke-width="1.6"/><path d="M 716 440 L 705 445.2 L 705 434.8 Z" fill="#6D8DDD"/><path d="M 928 440 L 1015 440" stroke="#6D8DDD" stroke-width="1.6" fill="none" stroke-linecap="round" stroke-linejoin="round"/><circle cx="928" cy="440" r="3.2" fill="#fff" stroke="#6D8DDD" stroke-width="1.6"/><path d="M 1026 440 L 1015 445.2 L 1015 434.8 Z" fill="#6D8DDD"/><path d="M 1238 440 L 1325 440" stroke="#6D8DDD" stroke-width="1.6" fill="none" stroke-linecap="round" stroke-linejoin="round"/><circle cx="1238" cy="440" r="3.2" fill="#fff" stroke="#6D8DDD" stroke-width="1.6"/><path d="M 1336 440 L 1325 445.2 L 1325 434.8 Z" fill="#6D8DDD"/><path d="M 1548 440 L 1646.73 440" stroke="#6D8DDD" stroke-width="1.6" fill="none" stroke-linecap="round" stroke-linejoin="round"/><circle cx="1548" cy="440" r="3.2" fill="#fff" stroke="#6D8DDD" stroke-width="1.6"/><path d="M 1657.73 440 L 1646.73 445.2 L 1646.73 434.8 Z" fill="#6D8DDD"/><path d="M 1846.27 440 L 1945 440" stroke="#6D8DDD" stroke-width="1.6" fill="none" stroke-linecap="round" stroke-linejoin="round"/><circle cx="1846.27" cy="440" r="3.2" fill="#fff" stroke="#6D8DDD" stroke-width="1.6"/><path d="M 1956 440 L 1945 445.2 L 1945 434.8 Z" fill="#6D8DDD"/><circle cx="1901.1335136523794" cy="440" r="13" fill="#BFF3CD" stroke="#fff" stroke-width="2"/><path d="M1895.6335136523794 440.3 L1899.4335136523794 444 L1906.6335136523794 436.6" stroke="#17966A" stroke-width="2.1" fill="none" stroke-linecap="round" stroke-linejoin="round"/><path d="M 2168 440 L 2287 440" stroke="#6D8DDD" stroke-width="1.6" fill="none" stroke-linecap="round" stroke-linejoin="round"/><circle cx="2168" cy="440" r="3.2" fill="#fff" stroke="#6D8DDD" stroke-width="1.6"/><path d="M 2298 440 L 2287 445.2 L 2287 434.8 Z" fill="#6D8DDD"/><path d="M 1750 345.73 L 1750 196" stroke="#D16A7F" stroke-width="1.6" fill="none" stroke-linecap="round" stroke-linejoin="round"/><circle cx="1750" cy="345.73" r="3.2" fill="#fff" stroke="#D16A7F" stroke-width="1.6"/><path d="M 1750 185 L 1755.2 196 L 1744.8 196 Z" fill="#D16A7F"/><circle cx="1750" cy="280" r="13" fill="#FAC1CA" stroke="#fff" stroke-width="2"/><path d="M1745.5 275.5 L1754.5 284.5 M1754.5 275.5 L1745.5 284.5" stroke="#C4485F" stroke-width="2.1" fill="none" stroke-linecap="round"/><path d="M 1642 140 L 1555 140" stroke="#6D8DDD" stroke-width="1.6" fill="none" stroke-linecap="round" stroke-linejoin="round"/><circle cx="1642" cy="140" r="3.2" fill="#fff" stroke="#6D8DDD" stroke-width="1.6"/><path d="M 1544 140 L 1555 134.8 L 1555 145.2 Z" fill="#6D8DDD"/><path d="M 1332 140 L 1245 140" stroke="#6D8DDD" stroke-width="1.6" fill="none" stroke-linecap="round" stroke-linejoin="round"/><circle cx="1332" cy="140" r="3.2" fill="#fff" stroke="#6D8DDD" stroke-width="1.6"/><path d="M 1234 140 L 1245 134.8 L 1245 145.2 Z" fill="#6D8DDD"/><path d="M 1022 140 L 832 140 Q 820 140 820 152 L 820 384" stroke="#6D8DDD" stroke-width="1.6" fill="none" stroke-linecap="round" stroke-linejoin="round" stroke-dasharray="7 6"/><circle cx="1022" cy="140" r="3.2" fill="#fff" stroke="#6D8DDD" stroke-width="1.6"/><path d="M 820 395 L 814.8 384 L 825.2 384 Z" fill="#6D8DDD"/><circle cx="200" cy="440" r="66" fill="#C9D9FF"/><text x="200" y="435.35" font-family="DM Sans, -apple-system, BlinkMacSystemFont, sans-serif" font-size="15" font-weight="600" fill="#101828" text-anchor="middle">Workflow</text><text x="200" y="455.15" font-family="DM Sans, -apple-system, BlinkMacSystemFont, sans-serif" font-size="15" font-weight="600" fill="#101828" text-anchor="middle">built</text><rect x="412" y="401" width="196" height="78" rx="10" fill="#FCFCFD" stroke="#E5E5E7" stroke-width="1.5"/><text x="510" y="435.35" font-family="DM Sans, -apple-system, BlinkMacSystemFont, sans-serif" font-size="15" font-weight="500" fill="#101828" text-anchor="middle">Open workflow</text><text x="510" y="455.15" font-family="DM Sans, -apple-system, BlinkMacSystemFont, sans-serif" font-size="15" font-weight="500" fill="#101828" text-anchor="middle">options menu</text><rect x="722" y="401" width="196" height="78" rx="10" fill="#FCFCFD" stroke="#E5E5E7" stroke-width="1.5"/><text x="820" y="435.35" font-family="DM Sans, -apple-system, BlinkMacSystemFont, sans-serif" font-size="15" font-weight="500" fill="#101828" text-anchor="middle">Select “Run</text><text x="820" y="455.15" font-family="DM Sans, -apple-system, BlinkMacSystemFont, sans-serif" font-size="15" font-weight="500" fill="#101828" text-anchor="middle">Workflow Test”</text><path d="M1037 364 H1223 a5 5 0 0 1 5 5 V512 C1195 497, 1169 522, 1138 510 C1104 498, 1065 518, 1032 509 V369 a5 5 0 0 1 5 -5 Z" fill="#E8EEFF"/><text x="1130" y="427.35" font-family="DM Sans, -apple-system, BlinkMacSystemFont, sans-serif" font-size="15" font-weight="500" fill="#101828" text-anchor="middle">Test Running</text><text x="1130" y="447.15" font-family="DM Sans, -apple-system, BlinkMacSystemFont, sans-serif" font-size="15" font-weight="500" fill="#101828" text-anchor="middle">state</text><path d="M1347 364 H1533 a5 5 0 0 1 5 5 V512 C1505 497, 1479 522, 1448 510 C1414 498, 1375 518, 1342 509 V369 a5 5 0 0 1 5 -5 Z" fill="#E8EEFF"/><text x="1440" y="417.45" font-family="DM Sans, -apple-system, BlinkMacSystemFont, sans-serif" font-size="15" font-weight="500" fill="#101828" text-anchor="middle">Test Results</text><text x="1440" y="437.25" font-family="DM Sans, -apple-system, BlinkMacSystemFont, sans-serif" font-size="15" font-weight="500" fill="#101828" text-anchor="middle">pass / fail per</text><text x="1440" y="457.05" font-family="DM Sans, -apple-system, BlinkMacSystemFont, sans-serif" font-size="15" font-weight="500" fill="#101828" text-anchor="middle">connection</text><rect x="1689" y="379" width="122" height="122" rx="10" fill="#EAECF0" transform="rotate(45 1750 440)"/><text x="1750" y="435.97" font-family="DM Sans, -apple-system, BlinkMacSystemFont, sans-serif" font-size="13" font-weight="500" fill="#101828" text-anchor="middle">All steps</text><text x="1750" y="453.13" font-family="DM Sans, -apple-system, BlinkMacSystemFont, sans-serif" font-size="13" font-weight="500" fill="#101828" text-anchor="middle">pass?</text><path d="M1967 364 H2153 a5 5 0 0 1 5 5 V512 C2125 497, 2099 522, 2068 510 C2034 498, 1995 518, 1962 509 V369 a5 5 0 0 1 5 -5 Z" fill="#E8EEFF"/><text x="2060" y="427.35" font-family="DM Sans, -apple-system, BlinkMacSystemFont, sans-serif" font-size="15" font-weight="500" fill="#101828" text-anchor="middle">Ready to</text><text x="2060" y="447.15" font-family="DM Sans, -apple-system, BlinkMacSystemFont, sans-serif" font-size="15" font-weight="500" fill="#101828" text-anchor="middle">Publish</text><circle cx="2370" cy="440" r="66" fill="#C9D9FF"/><text x="2370" y="435.35" font-family="DM Sans, -apple-system, BlinkMacSystemFont, sans-serif" font-size="15" font-weight="600" fill="#101828" text-anchor="middle">Tests</text><text x="2370" y="455.15" font-family="DM Sans, -apple-system, BlinkMacSystemFont, sans-serif" font-size="15" font-weight="600" fill="#101828" text-anchor="middle">passing</text><rect x="1652" y="101" width="196" height="78" rx="10" fill="#FCFCFD" stroke="#E5E5E7" stroke-width="1.5"/><text x="1750" y="135.35" font-family="DM Sans, -apple-system, BlinkMacSystemFont, sans-serif" font-size="15" font-weight="500" fill="#101828" text-anchor="middle">Expand failed</text><text x="1750" y="155.15" font-family="DM Sans, -apple-system, BlinkMacSystemFont, sans-serif" font-size="15" font-weight="500" fill="#101828" text-anchor="middle">node details</text><path d="M1347 64 H1533 a5 5 0 0 1 5 5 V212 C1505 197, 1479 222, 1448 210 C1414 198, 1375 218, 1342 209 V69 a5 5 0 0 1 5 -5 Z" fill="#E8EEFF"/><text x="1440" y="127.35" font-family="DM Sans, -apple-system, BlinkMacSystemFont, sans-serif" font-size="15" font-weight="500" fill="#101828" text-anchor="middle">Inline error</text><text x="1440" y="147.15" font-family="DM Sans, -apple-system, BlinkMacSystemFont, sans-serif" font-size="15" font-weight="500" fill="#101828" text-anchor="middle">detail on node</text><rect x="1032" y="101" width="196" height="78" rx="10" fill="#FCFCFD" stroke="#E5E5E7" stroke-width="1.5"/><text x="1130" y="135.35" font-family="DM Sans, -apple-system, BlinkMacSystemFont, sans-serif" font-size="15" font-weight="500" fill="#101828" text-anchor="middle">Fix node</text><text x="1130" y="155.15" font-family="DM Sans, -apple-system, BlinkMacSystemFont, sans-serif" font-size="15" font-weight="500" fill="#101828" text-anchor="middle">configuration</text></svg>
