<svg xmlns="http://www.w3.org/2000/svg" viewBox="72 38 1756 464" style="width:100%;height:auto;display:block" role="img"><rect x="102" y="381" width="196" height="78" rx="12" fill="#EEF3FF" stroke="#C9D9FF" stroke-width="1.5"/><text x="200" y="425" font-family="DM Sans, -apple-system, BlinkMacSystemFont, Segoe UI, sans-serif" font-size="14" font-weight="600" fill="#101828" text-anchor="middle">Dashboard</text><circle cx="298" cy="420" r="3.2" fill="#fff" stroke="#6D8DDD" stroke-width="1.6"/><path d="M 298 420 L 393.0 420.0" stroke="#6D8DDD" stroke-width="1.6" fill="none" stroke-linecap="round"/><path d="M 402.0 420.0 L 393.0 425.2 L 393.0 414.8 Z" fill="#6D8DDD"/><rect x="402" y="381" width="196" height="78" rx="12" fill="#FCFCFD" stroke="#E5E5E7" stroke-width="1.5"/><text x="500" y="425" font-family="DM Sans, -apple-system, BlinkMacSystemFont, Segoe UI, sans-serif" font-size="14" font-weight="500" fill="#101828" text-anchor="middle">Search a drug</text><circle cx="598" cy="420" r="3.2" fill="#fff" stroke="#6D8DDD" stroke-width="1.6"/><path d="M 598 420 L 704.7 420.0" stroke="#6D8DDD" stroke-width="1.6" fill="none" stroke-linecap="round"/><path d="M 713.7 420.0 L 704.7 425.2 L 704.7 414.8 Z" fill="#6D8DDD"/><rect x="739" y="359" width="122" height="122" rx="10" fill="#EAECF0" transform="rotate(45 800 420)"/><text x="800" y="425" font-family="DM Sans, -apple-system, BlinkMacSystemFont, Segoe UI, sans-serif" font-size="14" font-weight="500" fill="#101828" text-anchor="middle">Local or mail?</text><rect x="702" y="71" width="196" height="78" rx="12" fill="#FFFFFF" stroke="#E5E5E7" stroke-width="1.5"/><text x="800" y="115" font-family="DM Sans, -apple-system, BlinkMacSystemFont, Segoe UI, sans-serif" font-size="14" font-weight="500" fill="#101828" text-anchor="middle">Mail Order Price</text><circle cx="800" cy="334" r="3.2" fill="#fff" stroke="#6D8DDD" stroke-width="1.6"/><path d="M 800 334 L 800.0 158.0" stroke="#6D8DDD" stroke-width="1.6" fill="none" stroke-linecap="round"/><path d="M 800.0 149.0 L 805.2 158.0 L 794.8 158.0 Z" fill="#6D8DDD"/><text x="822" y="241" font-family="DM Sans, -apple-system, BlinkMacSystemFont, Segoe UI, sans-serif" font-size="12" font-weight="600" fill="#6D8DDD" text-anchor="middle">No</text><circle cx="886" cy="420" r="3.2" fill="#fff" stroke="#6D8DDD" stroke-width="1.6"/><path d="M 886 420 L 993.0 420.0" stroke="#6D8DDD" stroke-width="1.6" fill="none" stroke-linecap="round"/><path d="M 1002.0 420.0 L 993.0 425.2 L 993.0 414.8 Z" fill="#6D8DDD"/><text x="944" y="410" font-family="DM Sans, -apple-system, BlinkMacSystemFont, Segoe UI, sans-serif" font-size="12" font-weight="600" fill="#6D8DDD" text-anchor="middle">Yes</text><rect x="1002" y="381" width="196" height="78" rx="12" fill="#FCFCFD" stroke="#E5E5E7" stroke-width="1.5"/><text x="1100" y="425" font-family="DM Sans, -apple-system, BlinkMacSystemFont, Segoe UI, sans-serif" font-size="14" font-weight="500" fill="#101828" text-anchor="middle">Best Local Price</text><circle cx="1198" cy="420" r="3.2" fill="#fff" stroke="#6D8DDD" stroke-width="1.6"/><path d="M 1198 420 L 1293.0 420.0" stroke="#6D8DDD" stroke-width="1.6" fill="none" stroke-linecap="round"/><path d="M 1302.0 420.0 L 1293.0 425.2 L 1293.0 414.8 Z" fill="#6D8DDD"/><rect x="1302" y="381" width="196" height="78" rx="12" fill="#FCFCFD" stroke="#E5E5E7" stroke-width="1.5"/><text x="1400" y="416" font-family="DM Sans, -apple-system, BlinkMacSystemFont, Segoe UI, sans-serif" font-size="14" font-weight="500" fill="#101828" text-anchor="middle">Savings</text><text x="1400" y="435" font-family="DM Sans, -apple-system, BlinkMacSystemFont, Segoe UI, sans-serif" font-size="14" font-weight="500" fill="#101828" text-anchor="middle">Calculator</text><circle cx="1498" cy="420" r="3.2" fill="#fff" stroke="#6D8DDD" stroke-width="1.6"/><path d="M 1498 420 L 1593.0 420.0" stroke="#6D8DDD" stroke-width="1.6" fill="none" stroke-linecap="round"/><path d="M 1602.0 420.0 L 1593.0 425.2 L 1593.0 414.8 Z" fill="#6D8DDD"/><rect x="1602" y="381" width="196" height="78" rx="12" fill="#EAF7EE" stroke="#17966A" stroke-width="1.5"/><text x="1700" y="425" font-family="DM Sans, -apple-system, BlinkMacSystemFont, Segoe UI, sans-serif" font-size="14" font-weight="600" fill="#101828" text-anchor="middle">Add to cart</text></svg>