<svg xmlns="http://www.w3.org/2000/svg" viewBox="0 0 64 64" role="img" aria-label="Christopher Torres">
  <title>Christopher Torres</title>
  <rect width="64" height="64" rx="13" fill="#f5e642"/>
  <path transform="translate(8.693 53.833) scale(0.05671)" fill="#1a1a1a" d="M688 -708 707 -770H756L736 -517H696Q675 -609 614.5 -662.0Q554 -715 468 -715Q390 -715 334.5 -674.5Q279 -634 250.0 -558.5Q221 -483 221 -378Q221 -224 285.0 -140.0Q349 -56 472 -56Q571 -56 637.0 -110.5Q703 -165 731 -271H775V0H728L714 -79Q604 10 447 10Q326 10 236.0 -37.0Q146 -84 96.5 -169.5Q47 -255 47 -372Q47 -463 77.0 -537.5Q107 -612 161.5 -666.5Q216 -721 292.0 -750.5Q368 -780 459 -780Q520 -780 573.5 -763.0Q627 -746 688 -708Z"/>
</svg>
