<svg xmlns="http://www.w3.org/2000/svg" viewBox="0 0 1300 860" width="1300" height="860" role="img"><title>Final feature: options menu and confirmation modals for destructive and irreversible actions</title><rect width="1300" height="860" fill="#FFFFFF"/><rect x="0" y="0" width="1300" height="860" rx="0" fill="#FBFBFB" stroke="none" stroke-width="1.2"/><path d="M18 18h1M18 36h1M18 54h1M18 72h1M18 90h1M18 108h1M18 126h1M18 144h1M18 162h1M18 180h1M18 198h1M18 216h1M18 234h1M18 252h1M18 270h1M18 288h1M18 306h1M18 324h1M18 342h1M18 360h1M18 378h1M18 396h1M18 414h1M18 432h1M18 450h1M18 468h1M18 486h1M18 504h1M18 522h1M18 540h1M18 558h1M18 576h1M18 594h1M18 612h1M18 630h1M18 648h1M18 666h1M18 684h1M18 702h1M18 720h1M18 738h1M18 756h1M18 774h1M18 792h1M18 810h1M18 828h1M18 846h1M36 18h1M36 36h1M36 54h1M36 72h1M36 90h1M36 108h1M36 126h1M36 144h1M36 162h1M36 180h1M36 198h1M36 216h1M36 234h1M36 252h1M36 270h1M36 288h1M36 306h1M36 324h1M36 342h1M36 360h1M36 378h1M36 396h1M36 414h1M36 432h1M36 450h1M36 468h1M36 486h1M36 504h1M36 522h1M36 540h1M36 558h1M36 576h1M36 594h1M36 612h1M36 630h1M36 648h1M36 666h1M36 684h1M36 702h1M36 720h1M36 738h1M36 756h1M36 774h1M36 792h1M36 810h1M36 828h1M36 846h1M54 18h1M54 36h1M54 54h1M54 72h1M54 90h1M54 108h1M54 126h1M54 144h1M54 162h1M54 180h1M54 198h1M54 216h1M54 234h1M54 252h1M54 270h1M54 288h1M54 306h1M54 324h1M54 342h1M54 360h1M54 378h1M54 396h1M54 414h1M54 432h1M54 450h1M54 468h1M54 486h1M54 504h1M54 522h1M54 540h1M54 558h1M54 576h1M54 594h1M54 612h1M54 630h1M54 648h1M54 666h1M54 684h1M54 702h1M54 720h1M54 738h1M54 756h1M54 774h1M54 792h1M54 810h1M54 828h1M54 846h1M72 18h1M72 36h1M72 54h1M72 72h1M72 90h1M72 108h1M72 126h1M72 144h1M72 162h1M72 180h1M72 198h1M72 216h1M72 234h1M72 252h1M72 270h1M72 288h1M72 306h1M72 324h1M72 342h1M72 360h1M72 378h1M72 396h1M72 414h1M72 432h1M72 450h1M72 468h1M72 486h1M72 504h1M72 522h1M72 540h1M72 558h1M72 576h1M72 594h1M72 612h1M72 630h1M72 648h1M72 666h1M72 684h1M72 702h1M72 720h1M72 738h1M72 756h1M72 774h1M72 792h1M72 810h1M72 828h1M72 846h1M90 18h1M90 36h1M90 54h1M90 72h1M90 90h1M90 108h1M90 126h1M90 144h1M90 162h1M90 180h1M90 198h1M90 216h1M90 234h1M90 252h1M90 270h1M90 288h1M90 306h1M90 324h1M90 342h1M90 360h1M90 378h1M90 396h1M90 414h1M90 432h1M90 450h1M90 468h1M90 486h1M90 504h1M90 522h1M90 540h1M90 558h1M90 576h1M90 594h1M90 612h1M90 630h1M90 648h1M90 666h1M90 684h1M90 702h1M90 720h1M90 738h1M90 756h1M90 774h1M90 792h1M90 810h1M90 828h1M90 846h1M108 18h1M108 36h1M108 54h1M108 72h1M108 90h1M108 108h1M108 126h1M108 144h1M108 162h1M108 180h1M108 198h1M108 216h1M108 234h1M108 252h1M108 270h1M108 288h1M108 306h1M108 324h1M108 342h1M108 360h1M108 378h1M108 396h1M108 414h1M108 432h1M108 450h1M108 468h1M108 486h1M108 504h1M108 522h1M108 540h1M108 558h1M108 576h1M108 594h1M108 612h1M108 630h1M108 648h1M108 666h1M108 684h1M108 702h1M108 720h1M108 738h1M108 756h1M108 774h1M108 792h1M108 810h1M108 828h1M108 846h1M126 18h1M126 36h1M126 54h1M126 72h1M126 90h1M126 108h1M126 126h1M126 144h1M126 162h1M126 180h1M126 198h1M126 216h1M126 234h1M126 252h1M126 270h1M126 288h1M126 306h1M126 324h1M126 342h1M126 360h1M126 378h1M126 396h1M126 414h1M126 432h1M126 450h1M126 468h1M126 486h1M126 504h1M126 522h1M126 540h1M126 558h1M126 576h1M126 594h1M126 612h1M126 630h1M126 648h1M126 666h1M126 684h1M126 702h1M126 720h1M126 738h1M126 756h1M126 774h1M126 792h1M126 810h1M126 828h1M126 846h1M144 18h1M144 36h1M144 54h1M144 72h1M144 90h1M144 108h1M144 126h1M144 144h1M144 162h1M144 180h1M144 198h1M144 216h1M144 234h1M144 252h1M144 270h1M144 288h1M144 306h1M144 324h1M144 342h1M144 360h1M144 378h1M144 396h1M144 414h1M144 432h1M144 450h1M144 468h1M144 486h1M144 504h1M144 522h1M144 540h1M144 558h1M144 576h1M144 594h1M144 612h1M144 630h1M144 648h1M144 666h1M144 684h1M144 702h1M144 720h1M144 738h1M144 756h1M144 774h1M144 792h1M144 810h1M144 828h1M144 846h1M162 18h1M162 36h1M162 54h1M162 72h1M162 90h1M162 108h1M162 126h1M162 144h1M162 162h1M162 180h1M162 198h1M162 216h1M162 234h1M162 252h1M162 270h1M162 288h1M162 306h1M162 324h1M162 342h1M162 360h1M162 378h1M162 396h1M162 414h1M162 432h1M162 450h1M162 468h1M162 486h1M162 504h1M162 522h1M162 540h1M162 558h1M162 576h1M162 594h1M162 612h1M162 630h1M162 648h1M162 666h1M162 684h1M162 702h1M162 720h1M162 738h1M162 756h1M162 774h1M162 792h1M162 810h1M162 828h1M162 846h1M180 18h1M180 36h1M180 54h1M180 72h1M180 90h1M180 108h1M180 126h1M180 144h1M180 162h1M180 180h1M180 198h1M180 216h1M180 234h1M180 252h1M180 270h1M180 288h1M180 306h1M180 324h1M180 342h1M180 360h1M180 378h1M180 396h1M180 414h1M180 432h1M180 450h1M180 468h1M180 486h1M180 504h1M180 522h1M180 540h1M180 558h1M180 576h1M180 594h1M180 612h1M180 630h1M180 648h1M180 666h1M180 684h1M180 702h1M180 720h1M180 738h1M180 756h1M180 774h1M180 792h1M180 810h1M180 828h1M180 846h1M198 18h1M198 36h1M198 54h1M198 72h1M198 90h1M198 108h1M198 126h1M198 144h1M198 162h1M198 180h1M198 198h1M198 216h1M198 234h1M198 252h1M198 270h1M198 288h1M198 306h1M198 324h1M198 342h1M198 360h1M198 378h1M198 396h1M198 414h1M198 432h1M198 450h1M198 468h1M198 486h1M198 504h1M198 522h1M198 540h1M198 558h1M198 576h1M198 594h1M198 612h1M198 630h1M198 648h1M198 666h1M198 684h1M198 702h1M198 720h1M198 738h1M198 756h1M198 774h1M198 792h1M198 810h1M198 828h1M198 846h1M216 18h1M216 36h1M216 54h1M216 72h1M216 90h1M216 108h1M216 126h1M216 144h1M216 162h1M216 180h1M216 198h1M216 216h1M216 234h1M216 252h1M216 270h1M216 288h1M216 306h1M216 324h1M216 342h1M216 360h1M216 378h1M216 396h1M216 414h1M216 432h1M216 450h1M216 468h1M216 486h1M216 504h1M216 522h1M216 540h1M216 558h1M216 576h1M216 594h1M216 612h1M216 630h1M216 648h1M216 666h1M216 684h1M216 702h1M216 720h1M216 738h1M216 756h1M216 774h1M216 792h1M216 810h1M216 828h1M216 846h1M234 18h1M234 36h1M234 54h1M234 72h1M234 90h1M234 108h1M234 126h1M234 144h1M234 162h1M234 180h1M234 198h1M234 216h1M234 234h1M234 252h1M234 270h1M234 288h1M234 306h1M234 324h1M234 342h1M234 360h1M234 378h1M234 396h1M234 414h1M234 432h1M234 450h1M234 468h1M234 486h1M234 504h1M234 522h1M234 540h1M234 558h1M234 576h1M234 594h1M234 612h1M234 630h1M234 648h1M234 666h1M234 684h1M234 702h1M234 720h1M234 738h1M234 756h1M234 774h1M234 792h1M234 810h1M234 828h1M234 846h1M252 18h1M252 36h1M252 54h1M252 72h1M252 90h1M252 108h1M252 126h1M252 144h1M252 162h1M252 180h1M252 198h1M252 216h1M252 234h1M252 252h1M252 270h1M252 288h1M252 306h1M252 324h1M252 342h1M252 360h1M252 378h1M252 396h1M252 414h1M252 432h1M252 450h1M252 468h1M252 486h1M252 504h1M252 522h1M252 540h1M252 558h1M252 576h1M252 594h1M252 612h1M252 630h1M252 648h1M252 666h1M252 684h1M252 702h1M252 720h1M252 738h1M252 756h1M252 774h1M252 792h1M252 810h1M252 828h1M252 846h1M270 18h1M270 36h1M270 54h1M270 72h1M270 90h1M270 108h1M270 126h1M270 144h1M270 162h1M270 180h1M270 198h1M270 216h1M270 234h1M270 252h1M270 270h1M270 288h1M270 306h1M270 324h1M270 342h1M270 360h1M270 378h1M270 396h1M270 414h1M270 432h1M270 450h1M270 468h1M270 486h1M270 504h1M270 522h1M270 540h1M270 558h1M270 576h1M270 594h1M270 612h1M270 630h1M270 648h1M270 666h1M270 684h1M270 702h1M270 720h1M270 738h1M270 756h1M270 774h1M270 792h1M270 810h1M270 828h1M270 846h1M288 18h1M288 36h1M288 54h1M288 72h1M288 90h1M288 108h1M288 126h1M288 144h1M288 162h1M288 180h1M288 198h1M288 216h1M288 234h1M288 252h1M288 270h1M288 288h1M288 306h1M288 324h1M288 342h1M288 360h1M288 378h1M288 396h1M288 414h1M288 432h1M288 450h1M288 468h1M288 486h1M288 504h1M288 522h1M288 540h1M288 558h1M288 576h1M288 594h1M288 612h1M288 630h1M288 648h1M288 666h1M288 684h1M288 702h1M288 720h1M288 738h1M288 756h1M288 774h1M288 792h1M288 810h1M288 828h1M288 846h1M306 18h1M306 36h1M306 54h1M306 72h1M306 90h1M306 108h1M306 126h1M306 144h1M306 162h1M306 180h1M306 198h1M306 216h1M306 234h1M306 252h1M306 270h1M306 288h1M306 306h1M306 324h1M306 342h1M306 360h1M306 378h1M306 396h1M306 414h1M306 432h1M306 450h1M306 468h1M306 486h1M306 504h1M306 522h1M306 540h1M306 558h1M306 576h1M306 594h1M306 612h1M306 630h1M306 648h1M306 666h1M306 684h1M306 702h1M306 720h1M306 738h1M306 756h1M306 774h1M306 792h1M306 810h1M306 828h1M306 846h1M324 18h1M324 36h1M324 54h1M324 72h1M324 90h1M324 108h1M324 126h1M324 144h1M324 162h1M324 180h1M324 198h1M324 216h1M324 234h1M324 252h1M324 270h1M324 288h1M324 306h1M324 324h1M324 342h1M324 360h1M324 378h1M324 396h1M324 414h1M324 432h1M324 450h1M324 468h1M324 486h1M324 504h1M324 522h1M324 540h1M324 558h1M324 576h1M324 594h1M324 612h1M324 630h1M324 648h1M324 666h1M324 684h1M324 702h1M324 720h1M324 738h1M324 756h1M324 774h1M324 792h1M324 810h1M324 828h1M324 846h1M342 18h1M342 36h1M342 54h1M342 72h1M342 90h1M342 108h1M342 126h1M342 144h1M342 162h1M342 180h1M342 198h1M342 216h1M342 234h1M342 252h1M342 270h1M342 288h1M342 306h1M342 324h1M342 342h1M342 360h1M342 378h1M342 396h1M342 414h1M342 432h1M342 450h1M342 468h1M342 486h1M342 504h1M342 522h1M342 540h1M342 558h1M342 576h1M342 594h1M342 612h1M342 630h1M342 648h1M342 666h1M342 684h1M342 702h1M342 720h1M342 738h1M342 756h1M342 774h1M342 792h1M342 810h1M342 828h1M342 846h1M360 18h1M360 36h1M360 54h1M360 72h1M360 90h1M360 108h1M360 126h1M360 144h1M360 162h1M360 180h1M360 198h1M360 216h1M360 234h1M360 252h1M360 270h1M360 288h1M360 306h1M360 324h1M360 342h1M360 360h1M360 378h1M360 396h1M360 414h1M360 432h1M360 450h1M360 468h1M360 486h1M360 504h1M360 522h1M360 540h1M360 558h1M360 576h1M360 594h1M360 612h1M360 630h1M360 648h1M360 666h1M360 684h1M360 702h1M360 720h1M360 738h1M360 756h1M360 774h1M360 792h1M360 810h1M360 828h1M360 846h1M378 18h1M378 36h1M378 54h1M378 72h1M378 90h1M378 108h1M378 126h1M378 144h1M378 162h1M378 180h1M378 198h1M378 216h1M378 234h1M378 252h1M378 270h1M378 288h1M378 306h1M378 324h1M378 342h1M378 360h1M378 378h1M378 396h1M378 414h1M378 432h1M378 450h1M378 468h1M378 486h1M378 504h1M378 522h1M378 540h1M378 558h1M378 576h1M378 594h1M378 612h1M378 630h1M378 648h1M378 666h1M378 684h1M378 702h1M378 720h1M378 738h1M378 756h1M378 774h1M378 792h1M378 810h1M378 828h1M378 846h1M396 18h1M396 36h1M396 54h1M396 72h1M396 90h1M396 108h1M396 126h1M396 144h1M396 162h1M396 180h1M396 198h1M396 216h1M396 234h1M396 252h1M396 270h1M396 288h1M396 306h1M396 324h1M396 342h1M396 360h1M396 378h1M396 396h1M396 414h1M396 432h1M396 450h1M396 468h1M396 486h1M396 504h1M396 522h1M396 540h1M396 558h1M396 576h1M396 594h1M396 612h1M396 630h1M396 648h1M396 666h1M396 684h1M396 702h1M396 720h1M396 738h1M396 756h1M396 774h1M396 792h1M396 810h1M396 828h1M396 846h1M414 18h1M414 36h1M414 54h1M414 72h1M414 90h1M414 108h1M414 126h1M414 144h1M414 162h1M414 180h1M414 198h1M414 216h1M414 234h1M414 252h1M414 270h1M414 288h1M414 306h1M414 324h1M414 342h1M414 360h1M414 378h1M414 396h1M414 414h1M414 432h1M414 450h1M414 468h1M414 486h1M414 504h1M414 522h1M414 540h1M414 558h1M414 576h1M414 594h1M414 612h1M414 630h1M414 648h1M414 666h1M414 684h1M414 702h1M414 720h1M414 738h1M414 756h1M414 774h1M414 792h1M414 810h1M414 828h1M414 846h1M432 18h1M432 36h1M432 54h1M432 72h1M432 90h1M432 108h1M432 126h1M432 144h1M432 162h1M432 180h1M432 198h1M432 216h1M432 234h1M432 252h1M432 270h1M432 288h1M432 306h1M432 324h1M432 342h1M432 360h1M432 378h1M432 396h1M432 414h1M432 432h1M432 450h1M432 468h1M432 486h1M432 504h1M432 522h1M432 540h1M432 558h1M432 576h1M432 594h1M432 612h1M432 630h1M432 648h1M432 666h1M432 684h1M432 702h1M432 720h1M432 738h1M432 756h1M432 774h1M432 792h1M432 810h1M432 828h1M432 846h1M450 18h1M450 36h1M450 54h1M450 72h1M450 90h1M450 108h1M450 126h1M450 144h1M450 162h1M450 180h1M450 198h1M450 216h1M450 234h1M450 252h1M450 270h1M450 288h1M450 306h1M450 324h1M450 342h1M450 360h1M450 378h1M450 396h1M450 414h1M450 432h1M450 450h1M450 468h1M450 486h1M450 504h1M450 522h1M450 540h1M450 558h1M450 576h1M450 594h1M450 612h1M450 630h1M450 648h1M450 666h1M450 684h1M450 702h1M450 720h1M450 738h1M450 756h1M450 774h1M450 792h1M450 810h1M450 828h1M450 846h1M468 18h1M468 36h1M468 54h1M468 72h1M468 90h1M468 108h1M468 126h1M468 144h1M468 162h1M468 180h1M468 198h1M468 216h1M468 234h1M468 252h1M468 270h1M468 288h1M468 306h1M468 324h1M468 342h1M468 360h1M468 378h1M468 396h1M468 414h1M468 432h1M468 450h1M468 468h1M468 486h1M468 504h1M468 522h1M468 540h1M468 558h1M468 576h1M468 594h1M468 612h1M468 630h1M468 648h1M468 666h1M468 684h1M468 702h1M468 720h1M468 738h1M468 756h1M468 774h1M468 792h1M468 810h1M468 828h1M468 846h1M486 18h1M486 36h1M486 54h1M486 72h1M486 90h1M486 108h1M486 126h1M486 144h1M486 162h1M486 180h1M486 198h1M486 216h1M486 234h1M486 252h1M486 270h1M486 288h1M486 306h1M486 324h1M486 342h1M486 360h1M486 378h1M486 396h1M486 414h1M486 432h1M486 450h1M486 468h1M486 486h1M486 504h1M486 522h1M486 540h1M486 558h1M486 576h1M486 594h1M486 612h1M486 630h1M486 648h1M486 666h1M486 684h1M486 702h1M486 720h1M486 738h1M486 756h1M486 774h1M486 792h1M486 810h1M486 828h1M486 846h1M504 18h1M504 36h1M504 54h1M504 72h1M504 90h1M504 108h1M504 126h1M504 144h1M504 162h1M504 180h1M504 198h1M504 216h1M504 234h1M504 252h1M504 270h1M504 288h1M504 306h1M504 324h1M504 342h1M504 360h1M504 378h1M504 396h1M504 414h1M504 432h1M504 450h1M504 468h1M504 486h1M504 504h1M504 522h1M504 540h1M504 558h1M504 576h1M504 594h1M504 612h1M504 630h1M504 648h1M504 666h1M504 684h1M504 702h1M504 720h1M504 738h1M504 756h1M504 774h1M504 792h1M504 810h1M504 828h1M504 846h1M522 18h1M522 36h1M522 54h1M522 72h1M522 90h1M522 108h1M522 126h1M522 144h1M522 162h1M522 180h1M522 198h1M522 216h1M522 234h1M522 252h1M522 270h1M522 288h1M522 306h1M522 324h1M522 342h1M522 360h1M522 378h1M522 396h1M522 414h1M522 432h1M522 450h1M522 468h1M522 486h1M522 504h1M522 522h1M522 540h1M522 558h1M522 576h1M522 594h1M522 612h1M522 630h1M522 648h1M522 666h1M522 684h1M522 702h1M522 720h1M522 738h1M522 756h1M522 774h1M522 792h1M522 810h1M522 828h1M522 846h1M540 18h1M540 36h1M540 54h1M540 72h1M540 90h1M540 108h1M540 126h1M540 144h1M540 162h1M540 180h1M540 198h1M540 216h1M540 234h1M540 252h1M540 270h1M540 288h1M540 306h1M540 324h1M540 342h1M540 360h1M540 378h1M540 396h1M540 414h1M540 432h1M540 450h1M540 468h1M540 486h1M540 504h1M540 522h1M540 540h1M540 558h1M540 576h1M540 594h1M540 612h1M540 630h1M540 648h1M540 666h1M540 684h1M540 702h1M540 720h1M540 738h1M540 756h1M540 774h1M540 792h1M540 810h1M540 828h1M540 846h1M558 18h1M558 36h1M558 54h1M558 72h1M558 90h1M558 108h1M558 126h1M558 144h1M558 162h1M558 180h1M558 198h1M558 216h1M558 234h1M558 252h1M558 270h1M558 288h1M558 306h1M558 324h1M558 342h1M558 360h1M558 378h1M558 396h1M558 414h1M558 432h1M558 450h1M558 468h1M558 486h1M558 504h1M558 522h1M558 540h1M558 558h1M558 576h1M558 594h1M558 612h1M558 630h1M558 648h1M558 666h1M558 684h1M558 702h1M558 720h1M558 738h1M558 756h1M558 774h1M558 792h1M558 810h1M558 828h1M558 846h1M576 18h1M576 36h1M576 54h1M576 72h1M576 90h1M576 108h1M576 126h1M576 144h1M576 162h1M576 180h1M576 198h1M576 216h1M576 234h1M576 252h1M576 270h1M576 288h1M576 306h1M576 324h1M576 342h1M576 360h1M576 378h1M576 396h1M576 414h1M576 432h1M576 450h1M576 468h1M576 486h1M576 504h1M576 522h1M576 540h1M576 558h1M576 576h1M576 594h1M576 612h1M576 630h1M576 648h1M576 666h1M576 684h1M576 702h1M576 720h1M576 738h1M576 756h1M576 774h1M576 792h1M576 810h1M576 828h1M576 846h1M594 18h1M594 36h1M594 54h1M594 72h1M594 90h1M594 108h1M594 126h1M594 144h1M594 162h1M594 180h1M594 198h1M594 216h1M594 234h1M594 252h1M594 270h1M594 288h1M594 306h1M594 324h1M594 342h1M594 360h1M594 378h1M594 396h1M594 414h1M594 432h1M594 450h1M594 468h1M594 486h1M594 504h1M594 522h1M594 540h1M594 558h1M594 576h1M594 594h1M594 612h1M594 630h1M594 648h1M594 666h1M594 684h1M594 702h1M594 720h1M594 738h1M594 756h1M594 774h1M594 792h1M594 810h1M594 828h1M594 846h1M612 18h1M612 36h1M612 54h1M612 72h1M612 90h1M612 108h1M612 126h1M612 144h1M612 162h1M612 180h1M612 198h1M612 216h1M612 234h1M612 252h1M612 270h1M612 288h1M612 306h1M612 324h1M612 342h1M612 360h1M612 378h1M612 396h1M612 414h1M612 432h1M612 450h1M612 468h1M612 486h1M612 504h1M612 522h1M612 540h1M612 558h1M612 576h1M612 594h1M612 612h1M612 630h1M612 648h1M612 666h1M612 684h1M612 702h1M612 720h1M612 738h1M612 756h1M612 774h1M612 792h1M612 810h1M612 828h1M612 846h1M630 18h1M630 36h1M630 54h1M630 72h1M630 90h1M630 108h1M630 126h1M630 144h1M630 162h1M630 180h1M630 198h1M630 216h1M630 234h1M630 252h1M630 270h1M630 288h1M630 306h1M630 324h1M630 342h1M630 360h1M630 378h1M630 396h1M630 414h1M630 432h1M630 450h1M630 468h1M630 486h1M630 504h1M630 522h1M630 540h1M630 558h1M630 576h1M630 594h1M630 612h1M630 630h1M630 648h1M630 666h1M630 684h1M630 702h1M630 720h1M630 738h1M630 756h1M630 774h1M630 792h1M630 810h1M630 828h1M630 846h1M648 18h1M648 36h1M648 54h1M648 72h1M648 90h1M648 108h1M648 126h1M648 144h1M648 162h1M648 180h1M648 198h1M648 216h1M648 234h1M648 252h1M648 270h1M648 288h1M648 306h1M648 324h1M648 342h1M648 360h1M648 378h1M648 396h1M648 414h1M648 432h1M648 450h1M648 468h1M648 486h1M648 504h1M648 522h1M648 540h1M648 558h1M648 576h1M648 594h1M648 612h1M648 630h1M648 648h1M648 666h1M648 684h1M648 702h1M648 720h1M648 738h1M648 756h1M648 774h1M648 792h1M648 810h1M648 828h1M648 846h1M666 18h1M666 36h1M666 54h1M666 72h1M666 90h1M666 108h1M666 126h1M666 144h1M666 162h1M666 180h1M666 198h1M666 216h1M666 234h1M666 252h1M666 270h1M666 288h1M666 306h1M666 324h1M666 342h1M666 360h1M666 378h1M666 396h1M666 414h1M666 432h1M666 450h1M666 468h1M666 486h1M666 504h1M666 522h1M666 540h1M666 558h1M666 576h1M666 594h1M666 612h1M666 630h1M666 648h1M666 666h1M666 684h1M666 702h1M666 720h1M666 738h1M666 756h1M666 774h1M666 792h1M666 810h1M666 828h1M666 846h1M684 18h1M684 36h1M684 54h1M684 72h1M684 90h1M684 108h1M684 126h1M684 144h1M684 162h1M684 180h1M684 198h1M684 216h1M684 234h1M684 252h1M684 270h1M684 288h1M684 306h1M684 324h1M684 342h1M684 360h1M684 378h1M684 396h1M684 414h1M684 432h1M684 450h1M684 468h1M684 486h1M684 504h1M684 522h1M684 540h1M684 558h1M684 576h1M684 594h1M684 612h1M684 630h1M684 648h1M684 666h1M684 684h1M684 702h1M684 720h1M684 738h1M684 756h1M684 774h1M684 792h1M684 810h1M684 828h1M684 846h1M702 18h1M702 36h1M702 54h1M702 72h1M702 90h1M702 108h1M702 126h1M702 144h1M702 162h1M702 180h1M702 198h1M702 216h1M702 234h1M702 252h1M702 270h1M702 288h1M702 306h1M702 324h1M702 342h1M702 360h1M702 378h1M702 396h1M702 414h1M702 432h1M702 450h1M702 468h1M702 486h1M702 504h1M702 522h1M702 540h1M702 558h1M702 576h1M702 594h1M702 612h1M702 630h1M702 648h1M702 666h1M702 684h1M702 702h1M702 720h1M702 738h1M702 756h1M702 774h1M702 792h1M702 810h1M702 828h1M702 846h1M720 18h1M720 36h1M720 54h1M720 72h1M720 90h1M720 108h1M720 126h1M720 144h1M720 162h1M720 180h1M720 198h1M720 216h1M720 234h1M720 252h1M720 270h1M720 288h1M720 306h1M720 324h1M720 342h1M720 360h1M720 378h1M720 396h1M720 414h1M720 432h1M720 450h1M720 468h1M720 486h1M720 504h1M720 522h1M720 540h1M720 558h1M720 576h1M720 594h1M720 612h1M720 630h1M720 648h1M720 666h1M720 684h1M720 702h1M720 720h1M720 738h1M720 756h1M720 774h1M720 792h1M720 810h1M720 828h1M720 846h1M738 18h1M738 36h1M738 54h1M738 72h1M738 90h1M738 108h1M738 126h1M738 144h1M738 162h1M738 180h1M738 198h1M738 216h1M738 234h1M738 252h1M738 270h1M738 288h1M738 306h1M738 324h1M738 342h1M738 360h1M738 378h1M738 396h1M738 414h1M738 432h1M738 450h1M738 468h1M738 486h1M738 504h1M738 522h1M738 540h1M738 558h1M738 576h1M738 594h1M738 612h1M738 630h1M738 648h1M738 666h1M738 684h1M738 702h1M738 720h1M738 738h1M738 756h1M738 774h1M738 792h1M738 810h1M738 828h1M738 846h1M756 18h1M756 36h1M756 54h1M756 72h1M756 90h1M756 108h1M756 126h1M756 144h1M756 162h1M756 180h1M756 198h1M756 216h1M756 234h1M756 252h1M756 270h1M756 288h1M756 306h1M756 324h1M756 342h1M756 360h1M756 378h1M756 396h1M756 414h1M756 432h1M756 450h1M756 468h1M756 486h1M756 504h1M756 522h1M756 540h1M756 558h1M756 576h1M756 594h1M756 612h1M756 630h1M756 648h1M756 666h1M756 684h1M756 702h1M756 720h1M756 738h1M756 756h1M756 774h1M756 792h1M756 810h1M756 828h1M756 846h1M774 18h1M774 36h1M774 54h1M774 72h1M774 90h1M774 108h1M774 126h1M774 144h1M774 162h1M774 180h1M774 198h1M774 216h1M774 234h1M774 252h1M774 270h1M774 288h1M774 306h1M774 324h1M774 342h1M774 360h1M774 378h1M774 396h1M774 414h1M774 432h1M774 450h1M774 468h1M774 486h1M774 504h1M774 522h1M774 540h1M774 558h1M774 576h1M774 594h1M774 612h1M774 630h1M774 648h1M774 666h1M774 684h1M774 702h1M774 720h1M774 738h1M774 756h1M774 774h1M774 792h1M774 810h1M774 828h1M774 846h1M792 18h1M792 36h1M792 54h1M792 72h1M792 90h1M792 108h1M792 126h1M792 144h1M792 162h1M792 180h1M792 198h1M792 216h1M792 234h1M792 252h1M792 270h1M792 288h1M792 306h1M792 324h1M792 342h1M792 360h1M792 378h1M792 396h1M792 414h1M792 432h1M792 450h1M792 468h1M792 486h1M792 504h1M792 522h1M792 540h1M792 558h1M792 576h1M792 594h1M792 612h1M792 630h1M792 648h1M792 666h1M792 684h1M792 702h1M792 720h1M792 738h1M792 756h1M792 774h1M792 792h1M792 810h1M792 828h1M792 846h1M810 18h1M810 36h1M810 54h1M810 72h1M810 90h1M810 108h1M810 126h1M810 144h1M810 162h1M810 180h1M810 198h1M810 216h1M810 234h1M810 252h1M810 270h1M810 288h1M810 306h1M810 324h1M810 342h1M810 360h1M810 378h1M810 396h1M810 414h1M810 432h1M810 450h1M810 468h1M810 486h1M810 504h1M810 522h1M810 540h1M810 558h1M810 576h1M810 594h1M810 612h1M810 630h1M810 648h1M810 666h1M810 684h1M810 702h1M810 720h1M810 738h1M810 756h1M810 774h1M810 792h1M810 810h1M810 828h1M810 846h1M828 18h1M828 36h1M828 54h1M828 72h1M828 90h1M828 108h1M828 126h1M828 144h1M828 162h1M828 180h1M828 198h1M828 216h1M828 234h1M828 252h1M828 270h1M828 288h1M828 306h1M828 324h1M828 342h1M828 360h1M828 378h1M828 396h1M828 414h1M828 432h1M828 450h1M828 468h1M828 486h1M828 504h1M828 522h1M828 540h1M828 558h1M828 576h1M828 594h1M828 612h1M828 630h1M828 648h1M828 666h1M828 684h1M828 702h1M828 720h1M828 738h1M828 756h1M828 774h1M828 792h1M828 810h1M828 828h1M828 846h1M846 18h1M846 36h1M846 54h1M846 72h1M846 90h1M846 108h1M846 126h1M846 144h1M846 162h1M846 180h1M846 198h1M846 216h1M846 234h1M846 252h1M846 270h1M846 288h1M846 306h1M846 324h1M846 342h1M846 360h1M846 378h1M846 396h1M846 414h1M846 432h1M846 450h1M846 468h1M846 486h1M846 504h1M846 522h1M846 540h1M846 558h1M846 576h1M846 594h1M846 612h1M846 630h1M846 648h1M846 666h1M846 684h1M846 702h1M846 720h1M846 738h1M846 756h1M846 774h1M846 792h1M846 810h1M846 828h1M846 846h1M864 18h1M864 36h1M864 54h1M864 72h1M864 90h1M864 108h1M864 126h1M864 144h1M864 162h1M864 180h1M864 198h1M864 216h1M864 234h1M864 252h1M864 270h1M864 288h1M864 306h1M864 324h1M864 342h1M864 360h1M864 378h1M864 396h1M864 414h1M864 432h1M864 450h1M864 468h1M864 486h1M864 504h1M864 522h1M864 540h1M864 558h1M864 576h1M864 594h1M864 612h1M864 630h1M864 648h1M864 666h1M864 684h1M864 702h1M864 720h1M864 738h1M864 756h1M864 774h1M864 792h1M864 810h1M864 828h1M864 846h1M882 18h1M882 36h1M882 54h1M882 72h1M882 90h1M882 108h1M882 126h1M882 144h1M882 162h1M882 180h1M882 198h1M882 216h1M882 234h1M882 252h1M882 270h1M882 288h1M882 306h1M882 324h1M882 342h1M882 360h1M882 378h1M882 396h1M882 414h1M882 432h1M882 450h1M882 468h1M882 486h1M882 504h1M882 522h1M882 540h1M882 558h1M882 576h1M882 594h1M882 612h1M882 630h1M882 648h1M882 666h1M882 684h1M882 702h1M882 720h1M882 738h1M882 756h1M882 774h1M882 792h1M882 810h1M882 828h1M882 846h1M900 18h1M900 36h1M900 54h1M900 72h1M900 90h1M900 108h1M900 126h1M900 144h1M900 162h1M900 180h1M900 198h1M900 216h1M900 234h1M900 252h1M900 270h1M900 288h1M900 306h1M900 324h1M900 342h1M900 360h1M900 378h1M900 396h1M900 414h1M900 432h1M900 450h1M900 468h1M900 486h1M900 504h1M900 522h1M900 540h1M900 558h1M900 576h1M900 594h1M900 612h1M900 630h1M900 648h1M900 666h1M900 684h1M900 702h1M900 720h1M900 738h1M900 756h1M900 774h1M900 792h1M900 810h1M900 828h1M900 846h1M918 18h1M918 36h1M918 54h1M918 72h1M918 90h1M918 108h1M918 126h1M918 144h1M918 162h1M918 180h1M918 198h1M918 216h1M918 234h1M918 252h1M918 270h1M918 288h1M918 306h1M918 324h1M918 342h1M918 360h1M918 378h1M918 396h1M918 414h1M918 432h1M918 450h1M918 468h1M918 486h1M918 504h1M918 522h1M918 540h1M918 558h1M918 576h1M918 594h1M918 612h1M918 630h1M918 648h1M918 666h1M918 684h1M918 702h1M918 720h1M918 738h1M918 756h1M918 774h1M918 792h1M918 810h1M918 828h1M918 846h1M936 18h1M936 36h1M936 54h1M936 72h1M936 90h1M936 108h1M936 126h1M936 144h1M936 162h1M936 180h1M936 198h1M936 216h1M936 234h1M936 252h1M936 270h1M936 288h1M936 306h1M936 324h1M936 342h1M936 360h1M936 378h1M936 396h1M936 414h1M936 432h1M936 450h1M936 468h1M936 486h1M936 504h1M936 522h1M936 540h1M936 558h1M936 576h1M936 594h1M936 612h1M936 630h1M936 648h1M936 666h1M936 684h1M936 702h1M936 720h1M936 738h1M936 756h1M936 774h1M936 792h1M936 810h1M936 828h1M936 846h1M954 18h1M954 36h1M954 54h1M954 72h1M954 90h1M954 108h1M954 126h1M954 144h1M954 162h1M954 180h1M954 198h1M954 216h1M954 234h1M954 252h1M954 270h1M954 288h1M954 306h1M954 324h1M954 342h1M954 360h1M954 378h1M954 396h1M954 414h1M954 432h1M954 450h1M954 468h1M954 486h1M954 504h1M954 522h1M954 540h1M954 558h1M954 576h1M954 594h1M954 612h1M954 630h1M954 648h1M954 666h1M954 684h1M954 702h1M954 720h1M954 738h1M954 756h1M954 774h1M954 792h1M954 810h1M954 828h1M954 846h1M972 18h1M972 36h1M972 54h1M972 72h1M972 90h1M972 108h1M972 126h1M972 144h1M972 162h1M972 180h1M972 198h1M972 216h1M972 234h1M972 252h1M972 270h1M972 288h1M972 306h1M972 324h1M972 342h1M972 360h1M972 378h1M972 396h1M972 414h1M972 432h1M972 450h1M972 468h1M972 486h1M972 504h1M972 522h1M972 540h1M972 558h1M972 576h1M972 594h1M972 612h1M972 630h1M972 648h1M972 666h1M972 684h1M972 702h1M972 720h1M972 738h1M972 756h1M972 774h1M972 792h1M972 810h1M972 828h1M972 846h1M990 18h1M990 36h1M990 54h1M990 72h1M990 90h1M990 108h1M990 126h1M990 144h1M990 162h1M990 180h1M990 198h1M990 216h1M990 234h1M990 252h1M990 270h1M990 288h1M990 306h1M990 324h1M990 342h1M990 360h1M990 378h1M990 396h1M990 414h1M990 432h1M990 450h1M990 468h1M990 486h1M990 504h1M990 522h1M990 540h1M990 558h1M990 576h1M990 594h1M990 612h1M990 630h1M990 648h1M990 666h1M990 684h1M990 702h1M990 720h1M990 738h1M990 756h1M990 774h1M990 792h1M990 810h1M990 828h1M990 846h1M1008 18h1M1008 36h1M1008 54h1M1008 72h1M1008 90h1M1008 108h1M1008 126h1M1008 144h1M1008 162h1M1008 180h1M1008 198h1M1008 216h1M1008 234h1M1008 252h1M1008 270h1M1008 288h1M1008 306h1M1008 324h1M1008 342h1M1008 360h1M1008 378h1M1008 396h1M1008 414h1M1008 432h1M1008 450h1M1008 468h1M1008 486h1M1008 504h1M1008 522h1M1008 540h1M1008 558h1M1008 576h1M1008 594h1M1008 612h1M1008 630h1M1008 648h1M1008 666h1M1008 684h1M1008 702h1M1008 720h1M1008 738h1M1008 756h1M1008 774h1M1008 792h1M1008 810h1M1008 828h1M1008 846h1M1026 18h1M1026 36h1M1026 54h1M1026 72h1M1026 90h1M1026 108h1M1026 126h1M1026 144h1M1026 162h1M1026 180h1M1026 198h1M1026 216h1M1026 234h1M1026 252h1M1026 270h1M1026 288h1M1026 306h1M1026 324h1M1026 342h1M1026 360h1M1026 378h1M1026 396h1M1026 414h1M1026 432h1M1026 450h1M1026 468h1M1026 486h1M1026 504h1M1026 522h1M1026 540h1M1026 558h1M1026 576h1M1026 594h1M1026 612h1M1026 630h1M1026 648h1M1026 666h1M1026 684h1M1026 702h1M1026 720h1M1026 738h1M1026 756h1M1026 774h1M1026 792h1M1026 810h1M1026 828h1M1026 846h1M1044 18h1M1044 36h1M1044 54h1M1044 72h1M1044 90h1M1044 108h1M1044 126h1M1044 144h1M1044 162h1M1044 180h1M1044 198h1M1044 216h1M1044 234h1M1044 252h1M1044 270h1M1044 288h1M1044 306h1M1044 324h1M1044 342h1M1044 360h1M1044 378h1M1044 396h1M1044 414h1M1044 432h1M1044 450h1M1044 468h1M1044 486h1M1044 504h1M1044 522h1M1044 540h1M1044 558h1M1044 576h1M1044 594h1M1044 612h1M1044 630h1M1044 648h1M1044 666h1M1044 684h1M1044 702h1M1044 720h1M1044 738h1M1044 756h1M1044 774h1M1044 792h1M1044 810h1M1044 828h1M1044 846h1M1062 18h1M1062 36h1M1062 54h1M1062 72h1M1062 90h1M1062 108h1M1062 126h1M1062 144h1M1062 162h1M1062 180h1M1062 198h1M1062 216h1M1062 234h1M1062 252h1M1062 270h1M1062 288h1M1062 306h1M1062 324h1M1062 342h1M1062 360h1M1062 378h1M1062 396h1M1062 414h1M1062 432h1M1062 450h1M1062 468h1M1062 486h1M1062 504h1M1062 522h1M1062 540h1M1062 558h1M1062 576h1M1062 594h1M1062 612h1M1062 630h1M1062 648h1M1062 666h1M1062 684h1M1062 702h1M1062 720h1M1062 738h1M1062 756h1M1062 774h1M1062 792h1M1062 810h1M1062 828h1M1062 846h1M1080 18h1M1080 36h1M1080 54h1M1080 72h1M1080 90h1M1080 108h1M1080 126h1M1080 144h1M1080 162h1M1080 180h1M1080 198h1M1080 216h1M1080 234h1M1080 252h1M1080 270h1M1080 288h1M1080 306h1M1080 324h1M1080 342h1M1080 360h1M1080 378h1M1080 396h1M1080 414h1M1080 432h1M1080 450h1M1080 468h1M1080 486h1M1080 504h1M1080 522h1M1080 540h1M1080 558h1M1080 576h1M1080 594h1M1080 612h1M1080 630h1M1080 648h1M1080 666h1M1080 684h1M1080 702h1M1080 720h1M1080 738h1M1080 756h1M1080 774h1M1080 792h1M1080 810h1M1080 828h1M1080 846h1M1098 18h1M1098 36h1M1098 54h1M1098 72h1M1098 90h1M1098 108h1M1098 126h1M1098 144h1M1098 162h1M1098 180h1M1098 198h1M1098 216h1M1098 234h1M1098 252h1M1098 270h1M1098 288h1M1098 306h1M1098 324h1M1098 342h1M1098 360h1M1098 378h1M1098 396h1M1098 414h1M1098 432h1M1098 450h1M1098 468h1M1098 486h1M1098 504h1M1098 522h1M1098 540h1M1098 558h1M1098 576h1M1098 594h1M1098 612h1M1098 630h1M1098 648h1M1098 666h1M1098 684h1M1098 702h1M1098 720h1M1098 738h1M1098 756h1M1098 774h1M1098 792h1M1098 810h1M1098 828h1M1098 846h1M1116 18h1M1116 36h1M1116 54h1M1116 72h1M1116 90h1M1116 108h1M1116 126h1M1116 144h1M1116 162h1M1116 180h1M1116 198h1M1116 216h1M1116 234h1M1116 252h1M1116 270h1M1116 288h1M1116 306h1M1116 324h1M1116 342h1M1116 360h1M1116 378h1M1116 396h1M1116 414h1M1116 432h1M1116 450h1M1116 468h1M1116 486h1M1116 504h1M1116 522h1M1116 540h1M1116 558h1M1116 576h1M1116 594h1M1116 612h1M1116 630h1M1116 648h1M1116 666h1M1116 684h1M1116 702h1M1116 720h1M1116 738h1M1116 756h1M1116 774h1M1116 792h1M1116 810h1M1116 828h1M1116 846h1M1134 18h1M1134 36h1M1134 54h1M1134 72h1M1134 90h1M1134 108h1M1134 126h1M1134 144h1M1134 162h1M1134 180h1M1134 198h1M1134 216h1M1134 234h1M1134 252h1M1134 270h1M1134 288h1M1134 306h1M1134 324h1M1134 342h1M1134 360h1M1134 378h1M1134 396h1M1134 414h1M1134 432h1M1134 450h1M1134 468h1M1134 486h1M1134 504h1M1134 522h1M1134 540h1M1134 558h1M1134 576h1M1134 594h1M1134 612h1M1134 630h1M1134 648h1M1134 666h1M1134 684h1M1134 702h1M1134 720h1M1134 738h1M1134 756h1M1134 774h1M1134 792h1M1134 810h1M1134 828h1M1134 846h1M1152 18h1M1152 36h1M1152 54h1M1152 72h1M1152 90h1M1152 108h1M1152 126h1M1152 144h1M1152 162h1M1152 180h1M1152 198h1M1152 216h1M1152 234h1M1152 252h1M1152 270h1M1152 288h1M1152 306h1M1152 324h1M1152 342h1M1152 360h1M1152 378h1M1152 396h1M1152 414h1M1152 432h1M1152 450h1M1152 468h1M1152 486h1M1152 504h1M1152 522h1M1152 540h1M1152 558h1M1152 576h1M1152 594h1M1152 612h1M1152 630h1M1152 648h1M1152 666h1M1152 684h1M1152 702h1M1152 720h1M1152 738h1M1152 756h1M1152 774h1M1152 792h1M1152 810h1M1152 828h1M1152 846h1M1170 18h1M1170 36h1M1170 54h1M1170 72h1M1170 90h1M1170 108h1M1170 126h1M1170 144h1M1170 162h1M1170 180h1M1170 198h1M1170 216h1M1170 234h1M1170 252h1M1170 270h1M1170 288h1M1170 306h1M1170 324h1M1170 342h1M1170 360h1M1170 378h1M1170 396h1M1170 414h1M1170 432h1M1170 450h1M1170 468h1M1170 486h1M1170 504h1M1170 522h1M1170 540h1M1170 558h1M1170 576h1M1170 594h1M1170 612h1M1170 630h1M1170 648h1M1170 666h1M1170 684h1M1170 702h1M1170 720h1M1170 738h1M1170 756h1M1170 774h1M1170 792h1M1170 810h1M1170 828h1M1170 846h1M1188 18h1M1188 36h1M1188 54h1M1188 72h1M1188 90h1M1188 108h1M1188 126h1M1188 144h1M1188 162h1M1188 180h1M1188 198h1M1188 216h1M1188 234h1M1188 252h1M1188 270h1M1188 288h1M1188 306h1M1188 324h1M1188 342h1M1188 360h1M1188 378h1M1188 396h1M1188 414h1M1188 432h1M1188 450h1M1188 468h1M1188 486h1M1188 504h1M1188 522h1M1188 540h1M1188 558h1M1188 576h1M1188 594h1M1188 612h1M1188 630h1M1188 648h1M1188 666h1M1188 684h1M1188 702h1M1188 720h1M1188 738h1M1188 756h1M1188 774h1M1188 792h1M1188 810h1M1188 828h1M1188 846h1M1206 18h1M1206 36h1M1206 54h1M1206 72h1M1206 90h1M1206 108h1M1206 126h1M1206 144h1M1206 162h1M1206 180h1M1206 198h1M1206 216h1M1206 234h1M1206 252h1M1206 270h1M1206 288h1M1206 306h1M1206 324h1M1206 342h1M1206 360h1M1206 378h1M1206 396h1M1206 414h1M1206 432h1M1206 450h1M1206 468h1M1206 486h1M1206 504h1M1206 522h1M1206 540h1M1206 558h1M1206 576h1M1206 594h1M1206 612h1M1206 630h1M1206 648h1M1206 666h1M1206 684h1M1206 702h1M1206 720h1M1206 738h1M1206 756h1M1206 774h1M1206 792h1M1206 810h1M1206 828h1M1206 846h1M1224 18h1M1224 36h1M1224 54h1M1224 72h1M1224 90h1M1224 108h1M1224 126h1M1224 144h1M1224 162h1M1224 180h1M1224 198h1M1224 216h1M1224 234h1M1224 252h1M1224 270h1M1224 288h1M1224 306h1M1224 324h1M1224 342h1M1224 360h1M1224 378h1M1224 396h1M1224 414h1M1224 432h1M1224 450h1M1224 468h1M1224 486h1M1224 504h1M1224 522h1M1224 540h1M1224 558h1M1224 576h1M1224 594h1M1224 612h1M1224 630h1M1224 648h1M1224 666h1M1224 684h1M1224 702h1M1224 720h1M1224 738h1M1224 756h1M1224 774h1M1224 792h1M1224 810h1M1224 828h1M1224 846h1M1242 18h1M1242 36h1M1242 54h1M1242 72h1M1242 90h1M1242 108h1M1242 126h1M1242 144h1M1242 162h1M1242 180h1M1242 198h1M1242 216h1M1242 234h1M1242 252h1M1242 270h1M1242 288h1M1242 306h1M1242 324h1M1242 342h1M1242 360h1M1242 378h1M1242 396h1M1242 414h1M1242 432h1M1242 450h1M1242 468h1M1242 486h1M1242 504h1M1242 522h1M1242 540h1M1242 558h1M1242 576h1M1242 594h1M1242 612h1M1242 630h1M1242 648h1M1242 666h1M1242 684h1M1242 702h1M1242 720h1M1242 738h1M1242 756h1M1242 774h1M1242 792h1M1242 810h1M1242 828h1M1242 846h1M1260 18h1M1260 36h1M1260 54h1M1260 72h1M1260 90h1M1260 108h1M1260 126h1M1260 144h1M1260 162h1M1260 180h1M1260 198h1M1260 216h1M1260 234h1M1260 252h1M1260 270h1M1260 288h1M1260 306h1M1260 324h1M1260 342h1M1260 360h1M1260 378h1M1260 396h1M1260 414h1M1260 432h1M1260 450h1M1260 468h1M1260 486h1M1260 504h1M1260 522h1M1260 540h1M1260 558h1M1260 576h1M1260 594h1M1260 612h1M1260 630h1M1260 648h1M1260 666h1M1260 684h1M1260 702h1M1260 720h1M1260 738h1M1260 756h1M1260 774h1M1260 792h1M1260 810h1M1260 828h1M1260 846h1M1278 18h1M1278 36h1M1278 54h1M1278 72h1M1278 90h1M1278 108h1M1278 126h1M1278 144h1M1278 162h1M1278 180h1M1278 198h1M1278 216h1M1278 234h1M1278 252h1M1278 270h1M1278 288h1M1278 306h1M1278 324h1M1278 342h1M1278 360h1M1278 378h1M1278 396h1M1278 414h1M1278 432h1M1278 450h1M1278 468h1M1278 486h1M1278 504h1M1278 522h1M1278 540h1M1278 558h1M1278 576h1M1278 594h1M1278 612h1M1278 630h1M1278 648h1M1278 666h1M1278 684h1M1278 702h1M1278 720h1M1278 738h1M1278 756h1M1278 774h1M1278 792h1M1278 810h1M1278 828h1M1278 846h1M1296 18h1M1296 36h1M1296 54h1M1296 72h1M1296 90h1M1296 108h1M1296 126h1M1296 144h1M1296 162h1M1296 180h1M1296 198h1M1296 216h1M1296 234h1M1296 252h1M1296 270h1M1296 288h1M1296 306h1M1296 324h1M1296 342h1M1296 360h1M1296 378h1M1296 396h1M1296 414h1M1296 432h1M1296 450h1M1296 468h1M1296 486h1M1296 504h1M1296 522h1M1296 540h1M1296 558h1M1296 576h1M1296 594h1M1296 612h1M1296 630h1M1296 648h1M1296 666h1M1296 684h1M1296 702h1M1296 720h1M1296 738h1M1296 756h1M1296 774h1M1296 792h1M1296 810h1M1296 828h1M1296 846h1" stroke="#DCDCDC" stroke-width="1.2" stroke-linecap="round"/><rect x="60" y="60" width="300" height="210" rx="12" fill="#FFFFFF" stroke="#DCDCDC" stroke-width="1.2"/><text x="88" y="96" font-family="DM Sans, -apple-system, BlinkMacSystemFont, sans-serif" font-size="11" font-weight="700" fill="#8C8C8C" text-anchor="start">Workflow options</text><rect x="76" y="108" width="24" height="24" rx="5" fill="none" stroke="#DCDCDC" stroke-width="1.2"/><text x="112" y="125" font-family="DM Sans, -apple-system, BlinkMacSystemFont, sans-serif" font-size="12" font-weight="500" fill="#3F3F3F" text-anchor="start">Clone Workflow</text><rect x="76" y="142" width="24" height="24" rx="5" fill="none" stroke="#DCDCDC" stroke-width="1.2"/><text x="112" y="159" font-family="DM Sans, -apple-system, BlinkMacSystemFont, sans-serif" font-size="12" font-weight="500" fill="#3F3F3F" text-anchor="start">Run Workflow Test</text><rect x="76" y="176" width="24" height="24" rx="5" fill="none" stroke="#DCDCDC" stroke-width="1.2"/><text x="112" y="193" font-family="DM Sans, -apple-system, BlinkMacSystemFont, sans-serif" font-size="12" font-weight="500" fill="#3F3F3F" text-anchor="start">Pause Workflow</text><rect x="76" y="210" width="24" height="24" rx="5" fill="none" stroke="#DCDCDC" stroke-width="1.2"/><text x="112" y="227" font-family="DM Sans, -apple-system, BlinkMacSystemFont, sans-serif" font-size="12" font-weight="500" fill="#3F3F3F" text-anchor="start">Search</text><path d="M76 246 L344 246" stroke="#EBEBEB" stroke-width="1.2" fill="none"/><rect x="76" y="254" width="24" height="24" rx="5" fill="none" stroke="#111111" stroke-width="1.2"/><text x="112" y="271" font-family="DM Sans, -apple-system, BlinkMacSystemFont, sans-serif" font-size="12" font-weight="700" fill="#111111" text-anchor="start">Delete Workflow</text><text x="210" y="306" font-family="DM Sans, -apple-system, BlinkMacSystemFont, sans-serif" font-size="10.5" font-weight="700" fill="#8C8C8C" text-anchor="middle">Options menu</text><rect x="420" y="60" width="400" height="246" rx="12" fill="#FFFFFF" stroke="#DCDCDC" stroke-width="1.2"/><circle cx="460" cy="106" r="16" fill="#FFFFFF" stroke="#111111" stroke-width="1.6"/><path d="M460 101.6 v4.8 M460 109.4 v0.8" stroke="#111111" stroke-width="1.6" stroke-linecap="round"/><text x="492" y="112" font-family="DM Sans, -apple-system, BlinkMacSystemFont, sans-serif" font-size="16" font-weight="700" fill="#111111" text-anchor="start">Delete this workflow?</text><text x="452" y="152" font-family="DM Sans, -apple-system, BlinkMacSystemFont, sans-serif" font-size="11.5" font-weight="500" fill="#3F3F3F" text-anchor="start">This workflow and its 5 steps will be moved to trash.</text><text x="452" y="174" font-family="DM Sans, -apple-system, BlinkMacSystemFont, sans-serif" font-size="11.5" font-weight="500" fill="#3F3F3F" text-anchor="start">You can restore it for 30 days.</text><rect x="452" y="210" width="100" height="38" rx="7" fill="#FFFFFF" stroke="#DCDCDC" stroke-width="1.2"/><text x="502" y="233.2" font-family="DM Sans, -apple-system, BlinkMacSystemFont, sans-serif" font-size="12" font-weight="700" fill="#111111" text-anchor="middle">Cancel</text><rect x="564" y="210" width="100" height="38" rx="7" fill="#1C1C1C" stroke="#1C1C1C" stroke-width="1.2"/><text x="614" y="233.2" font-family="DM Sans, -apple-system, BlinkMacSystemFont, sans-serif" font-size="12" font-weight="700" fill="#FFFFFF" text-anchor="middle">Delete</text><text x="620" y="306" font-family="DM Sans, -apple-system, BlinkMacSystemFont, sans-serif" font-size="10.5" font-weight="700" fill="#8C8C8C" text-anchor="middle">Destructive confirmation</text><rect x="880" y="60" width="360" height="246" rx="12" fill="#FFFFFF" stroke="#DCDCDC" stroke-width="1.2"/><text x="912" y="112" font-family="DM Sans, -apple-system, BlinkMacSystemFont, sans-serif" font-size="16" font-weight="700" fill="#111111" text-anchor="start">Exit without publishing?</text><text x="912" y="152" font-family="DM Sans, -apple-system, BlinkMacSystemFont, sans-serif" font-size="11.5" font-weight="500" fill="#3F3F3F" text-anchor="start">Your changes are saved as a draft. The live</text><text x="912" y="174" font-family="DM Sans, -apple-system, BlinkMacSystemFont, sans-serif" font-size="11.5" font-weight="500" fill="#3F3F3F" text-anchor="start">workflow keeps running the last published version.</text><rect x="912" y="210" width="100" height="38" rx="7" fill="#FFFFFF" stroke="#DCDCDC" stroke-width="1.2"/><text x="962" y="233.2" font-family="DM Sans, -apple-system, BlinkMacSystemFont, sans-serif" font-size="12" font-weight="700" fill="#111111" text-anchor="middle">Cancel</text><rect x="1024" y="210" width="120" height="38" rx="7" fill="#1C1C1C" stroke="#1C1C1C" stroke-width="1.2"/><text x="1084" y="233.2" font-family="DM Sans, -apple-system, BlinkMacSystemFont, sans-serif" font-size="12" font-weight="700" fill="#FFFFFF" text-anchor="middle">Yes, exit</text><text x="1060" y="306" font-family="DM Sans, -apple-system, BlinkMacSystemFont, sans-serif" font-size="10.5" font-weight="700" fill="#8C8C8C" text-anchor="middle">Exit protection</text><rect x="60" y="366" width="300" height="190" rx="12" fill="#FFFFFF" stroke="#DCDCDC" stroke-width="1.2"/><text x="88" y="412" font-family="DM Sans, -apple-system, BlinkMacSystemFont, sans-serif" font-size="14" font-weight="700" fill="#111111" text-anchor="start">Delete this trigger?</text><text x="88" y="444" font-family="DM Sans, -apple-system, BlinkMacSystemFont, sans-serif" font-size="10.5" font-weight="500" fill="#8C8C8C" text-anchor="start">The trigger and its setup will be removed.</text><rect x="88" y="476" width="88" height="34" rx="7" fill="#FFFFFF" stroke="#DCDCDC" stroke-width="1.2"/><text x="132" y="497.2" font-family="DM Sans, -apple-system, BlinkMacSystemFont, sans-serif" font-size="11" font-weight="700" fill="#111111" text-anchor="middle">Cancel</text><rect x="188" y="476" width="100" height="34" rx="7" fill="#1C1C1C" stroke="#1C1C1C" stroke-width="1.2"/><text x="238" y="497.2" font-family="DM Sans, -apple-system, BlinkMacSystemFont, sans-serif" font-size="11" font-weight="700" fill="#FFFFFF" text-anchor="middle">Confirm</text><rect x="500" y="366" width="300" height="190" rx="12" fill="#FFFFFF" stroke="#DCDCDC" stroke-width="1.2"/><text x="528" y="412" font-family="DM Sans, -apple-system, BlinkMacSystemFont, sans-serif" font-size="14" font-weight="700" fill="#111111" text-anchor="start">Delete this step?</text><text x="528" y="444" font-family="DM Sans, -apple-system, BlinkMacSystemFont, sans-serif" font-size="10.5" font-weight="500" fill="#8C8C8C" text-anchor="start">Steps downstream keep their configuration.</text><rect x="528" y="476" width="88" height="34" rx="7" fill="#FFFFFF" stroke="#DCDCDC" stroke-width="1.2"/><text x="572" y="497.2" font-family="DM Sans, -apple-system, BlinkMacSystemFont, sans-serif" font-size="11" font-weight="700" fill="#111111" text-anchor="middle">Cancel</text><rect x="628" y="476" width="100" height="34" rx="7" fill="#1C1C1C" stroke="#1C1C1C" stroke-width="1.2"/><text x="678" y="497.2" font-family="DM Sans, -apple-system, BlinkMacSystemFont, sans-serif" font-size="11" font-weight="700" fill="#FFFFFF" text-anchor="middle">Confirm</text><rect x="940" y="366" width="300" height="190" rx="12" fill="#FFFFFF" stroke="#DCDCDC" stroke-width="1.2"/><text x="968" y="412" font-family="DM Sans, -apple-system, BlinkMacSystemFont, sans-serif" font-size="14" font-weight="700" fill="#111111" text-anchor="start">Publish this workflow?</text><text x="968" y="444" font-family="DM Sans, -apple-system, BlinkMacSystemFont, sans-serif" font-size="10.5" font-weight="500" fill="#8C8C8C" text-anchor="start">It will go live immediately.</text><rect x="968" y="476" width="88" height="34" rx="7" fill="#FFFFFF" stroke="#DCDCDC" stroke-width="1.2"/><text x="1012" y="497.2" font-family="DM Sans, -apple-system, BlinkMacSystemFont, sans-serif" font-size="11" font-weight="700" fill="#111111" text-anchor="middle">Cancel</text><rect x="1068" y="476" width="100" height="34" rx="7" fill="#1C1C1C" stroke="#1C1C1C" stroke-width="1.2"/><text x="1118" y="497.2" font-family="DM Sans, -apple-system, BlinkMacSystemFont, sans-serif" font-size="11" font-weight="700" fill="#FFFFFF" text-anchor="middle">Confirm</text><text x="650" y="596" font-family="DM Sans, -apple-system, BlinkMacSystemFont, sans-serif" font-size="10.5" font-weight="700" fill="#8C8C8C" text-anchor="middle">Every destructive or irreversible action is confirmed in the same shape</text><rect x="0.6" y="0.6" width="1298.8" height="858.8" rx="6" fill="none" stroke="#EBEBEB"/></svg>
