<svg xmlns="http://www.w3.org/2000/svg" viewBox="0 0 1300 560" width="1300" height="560" role="img"><title>Final feature: Authorization — username/password, API key and Google OAuth account picker</title><rect width="1300" height="560" fill="#FFFFFF"/><rect x="0" y="0" width="1300" height="560" rx="0" fill="#FBFBFB" stroke="none" stroke-width="1.2"/><path d="M18 18h1M18 36h1M18 54h1M18 72h1M18 90h1M18 108h1M18 126h1M18 144h1M18 162h1M18 180h1M18 198h1M18 216h1M18 234h1M18 252h1M18 270h1M18 288h1M18 306h1M18 324h1M18 342h1M18 360h1M18 378h1M18 396h1M18 414h1M18 432h1M18 450h1M18 468h1M18 486h1M18 504h1M18 522h1M18 540h1M18 558h1M36 18h1M36 36h1M36 54h1M36 72h1M36 90h1M36 108h1M36 126h1M36 144h1M36 162h1M36 180h1M36 198h1M36 216h1M36 234h1M36 252h1M36 270h1M36 288h1M36 306h1M36 324h1M36 342h1M36 360h1M36 378h1M36 396h1M36 414h1M36 432h1M36 450h1M36 468h1M36 486h1M36 504h1M36 522h1M36 540h1M36 558h1M54 18h1M54 36h1M54 54h1M54 72h1M54 90h1M54 108h1M54 126h1M54 144h1M54 162h1M54 180h1M54 198h1M54 216h1M54 234h1M54 252h1M54 270h1M54 288h1M54 306h1M54 324h1M54 342h1M54 360h1M54 378h1M54 396h1M54 414h1M54 432h1M54 450h1M54 468h1M54 486h1M54 504h1M54 522h1M54 540h1M54 558h1M72 18h1M72 36h1M72 54h1M72 72h1M72 90h1M72 108h1M72 126h1M72 144h1M72 162h1M72 180h1M72 198h1M72 216h1M72 234h1M72 252h1M72 270h1M72 288h1M72 306h1M72 324h1M72 342h1M72 360h1M72 378h1M72 396h1M72 414h1M72 432h1M72 450h1M72 468h1M72 486h1M72 504h1M72 522h1M72 540h1M72 558h1M90 18h1M90 36h1M90 54h1M90 72h1M90 90h1M90 108h1M90 126h1M90 144h1M90 162h1M90 180h1M90 198h1M90 216h1M90 234h1M90 252h1M90 270h1M90 288h1M90 306h1M90 324h1M90 342h1M90 360h1M90 378h1M90 396h1M90 414h1M90 432h1M90 450h1M90 468h1M90 486h1M90 504h1M90 522h1M90 540h1M90 558h1M108 18h1M108 36h1M108 54h1M108 72h1M108 90h1M108 108h1M108 126h1M108 144h1M108 162h1M108 180h1M108 198h1M108 216h1M108 234h1M108 252h1M108 270h1M108 288h1M108 306h1M108 324h1M108 342h1M108 360h1M108 378h1M108 396h1M108 414h1M108 432h1M108 450h1M108 468h1M108 486h1M108 504h1M108 522h1M108 540h1M108 558h1M126 18h1M126 36h1M126 54h1M126 72h1M126 90h1M126 108h1M126 126h1M126 144h1M126 162h1M126 180h1M126 198h1M126 216h1M126 234h1M126 252h1M126 270h1M126 288h1M126 306h1M126 324h1M126 342h1M126 360h1M126 378h1M126 396h1M126 414h1M126 432h1M126 450h1M126 468h1M126 486h1M126 504h1M126 522h1M126 540h1M126 558h1M144 18h1M144 36h1M144 54h1M144 72h1M144 90h1M144 108h1M144 126h1M144 144h1M144 162h1M144 180h1M144 198h1M144 216h1M144 234h1M144 252h1M144 270h1M144 288h1M144 306h1M144 324h1M144 342h1M144 360h1M144 378h1M144 396h1M144 414h1M144 432h1M144 450h1M144 468h1M144 486h1M144 504h1M144 522h1M144 540h1M144 558h1M162 18h1M162 36h1M162 54h1M162 72h1M162 90h1M162 108h1M162 126h1M162 144h1M162 162h1M162 180h1M162 198h1M162 216h1M162 234h1M162 252h1M162 270h1M162 288h1M162 306h1M162 324h1M162 342h1M162 360h1M162 378h1M162 396h1M162 414h1M162 432h1M162 450h1M162 468h1M162 486h1M162 504h1M162 522h1M162 540h1M162 558h1M180 18h1M180 36h1M180 54h1M180 72h1M180 90h1M180 108h1M180 126h1M180 144h1M180 162h1M180 180h1M180 198h1M180 216h1M180 234h1M180 252h1M180 270h1M180 288h1M180 306h1M180 324h1M180 342h1M180 360h1M180 378h1M180 396h1M180 414h1M180 432h1M180 450h1M180 468h1M180 486h1M180 504h1M180 522h1M180 540h1M180 558h1M198 18h1M198 36h1M198 54h1M198 72h1M198 90h1M198 108h1M198 126h1M198 144h1M198 162h1M198 180h1M198 198h1M198 216h1M198 234h1M198 252h1M198 270h1M198 288h1M198 306h1M198 324h1M198 342h1M198 360h1M198 378h1M198 396h1M198 414h1M198 432h1M198 450h1M198 468h1M198 486h1M198 504h1M198 522h1M198 540h1M198 558h1M216 18h1M216 36h1M216 54h1M216 72h1M216 90h1M216 108h1M216 126h1M216 144h1M216 162h1M216 180h1M216 198h1M216 216h1M216 234h1M216 252h1M216 270h1M216 288h1M216 306h1M216 324h1M216 342h1M216 360h1M216 378h1M216 396h1M216 414h1M216 432h1M216 450h1M216 468h1M216 486h1M216 504h1M216 522h1M216 540h1M216 558h1M234 18h1M234 36h1M234 54h1M234 72h1M234 90h1M234 108h1M234 126h1M234 144h1M234 162h1M234 180h1M234 198h1M234 216h1M234 234h1M234 252h1M234 270h1M234 288h1M234 306h1M234 324h1M234 342h1M234 360h1M234 378h1M234 396h1M234 414h1M234 432h1M234 450h1M234 468h1M234 486h1M234 504h1M234 522h1M234 540h1M234 558h1M252 18h1M252 36h1M252 54h1M252 72h1M252 90h1M252 108h1M252 126h1M252 144h1M252 162h1M252 180h1M252 198h1M252 216h1M252 234h1M252 252h1M252 270h1M252 288h1M252 306h1M252 324h1M252 342h1M252 360h1M252 378h1M252 396h1M252 414h1M252 432h1M252 450h1M252 468h1M252 486h1M252 504h1M252 522h1M252 540h1M252 558h1M270 18h1M270 36h1M270 54h1M270 72h1M270 90h1M270 108h1M270 126h1M270 144h1M270 162h1M270 180h1M270 198h1M270 216h1M270 234h1M270 252h1M270 270h1M270 288h1M270 306h1M270 324h1M270 342h1M270 360h1M270 378h1M270 396h1M270 414h1M270 432h1M270 450h1M270 468h1M270 486h1M270 504h1M270 522h1M270 540h1M270 558h1M288 18h1M288 36h1M288 54h1M288 72h1M288 90h1M288 108h1M288 126h1M288 144h1M288 162h1M288 180h1M288 198h1M288 216h1M288 234h1M288 252h1M288 270h1M288 288h1M288 306h1M288 324h1M288 342h1M288 360h1M288 378h1M288 396h1M288 414h1M288 432h1M288 450h1M288 468h1M288 486h1M288 504h1M288 522h1M288 540h1M288 558h1M306 18h1M306 36h1M306 54h1M306 72h1M306 90h1M306 108h1M306 126h1M306 144h1M306 162h1M306 180h1M306 198h1M306 216h1M306 234h1M306 252h1M306 270h1M306 288h1M306 306h1M306 324h1M306 342h1M306 360h1M306 378h1M306 396h1M306 414h1M306 432h1M306 450h1M306 468h1M306 486h1M306 504h1M306 522h1M306 540h1M306 558h1M324 18h1M324 36h1M324 54h1M324 72h1M324 90h1M324 108h1M324 126h1M324 144h1M324 162h1M324 180h1M324 198h1M324 216h1M324 234h1M324 252h1M324 270h1M324 288h1M324 306h1M324 324h1M324 342h1M324 360h1M324 378h1M324 396h1M324 414h1M324 432h1M324 450h1M324 468h1M324 486h1M324 504h1M324 522h1M324 540h1M324 558h1M342 18h1M342 36h1M342 54h1M342 72h1M342 90h1M342 108h1M342 126h1M342 144h1M342 162h1M342 180h1M342 198h1M342 216h1M342 234h1M342 252h1M342 270h1M342 288h1M342 306h1M342 324h1M342 342h1M342 360h1M342 378h1M342 396h1M342 414h1M342 432h1M342 450h1M342 468h1M342 486h1M342 504h1M342 522h1M342 540h1M342 558h1M360 18h1M360 36h1M360 54h1M360 72h1M360 90h1M360 108h1M360 126h1M360 144h1M360 162h1M360 180h1M360 198h1M360 216h1M360 234h1M360 252h1M360 270h1M360 288h1M360 306h1M360 324h1M360 342h1M360 360h1M360 378h1M360 396h1M360 414h1M360 432h1M360 450h1M360 468h1M360 486h1M360 504h1M360 522h1M360 540h1M360 558h1M378 18h1M378 36h1M378 54h1M378 72h1M378 90h1M378 108h1M378 126h1M378 144h1M378 162h1M378 180h1M378 198h1M378 216h1M378 234h1M378 252h1M378 270h1M378 288h1M378 306h1M378 324h1M378 342h1M378 360h1M378 378h1M378 396h1M378 414h1M378 432h1M378 450h1M378 468h1M378 486h1M378 504h1M378 522h1M378 540h1M378 558h1M396 18h1M396 36h1M396 54h1M396 72h1M396 90h1M396 108h1M396 126h1M396 144h1M396 162h1M396 180h1M396 198h1M396 216h1M396 234h1M396 252h1M396 270h1M396 288h1M396 306h1M396 324h1M396 342h1M396 360h1M396 378h1M396 396h1M396 414h1M396 432h1M396 450h1M396 468h1M396 486h1M396 504h1M396 522h1M396 540h1M396 558h1M414 18h1M414 36h1M414 54h1M414 72h1M414 90h1M414 108h1M414 126h1M414 144h1M414 162h1M414 180h1M414 198h1M414 216h1M414 234h1M414 252h1M414 270h1M414 288h1M414 306h1M414 324h1M414 342h1M414 360h1M414 378h1M414 396h1M414 414h1M414 432h1M414 450h1M414 468h1M414 486h1M414 504h1M414 522h1M414 540h1M414 558h1M432 18h1M432 36h1M432 54h1M432 72h1M432 90h1M432 108h1M432 126h1M432 144h1M432 162h1M432 180h1M432 198h1M432 216h1M432 234h1M432 252h1M432 270h1M432 288h1M432 306h1M432 324h1M432 342h1M432 360h1M432 378h1M432 396h1M432 414h1M432 432h1M432 450h1M432 468h1M432 486h1M432 504h1M432 522h1M432 540h1M432 558h1M450 18h1M450 36h1M450 54h1M450 72h1M450 90h1M450 108h1M450 126h1M450 144h1M450 162h1M450 180h1M450 198h1M450 216h1M450 234h1M450 252h1M450 270h1M450 288h1M450 306h1M450 324h1M450 342h1M450 360h1M450 378h1M450 396h1M450 414h1M450 432h1M450 450h1M450 468h1M450 486h1M450 504h1M450 522h1M450 540h1M450 558h1M468 18h1M468 36h1M468 54h1M468 72h1M468 90h1M468 108h1M468 126h1M468 144h1M468 162h1M468 180h1M468 198h1M468 216h1M468 234h1M468 252h1M468 270h1M468 288h1M468 306h1M468 324h1M468 342h1M468 360h1M468 378h1M468 396h1M468 414h1M468 432h1M468 450h1M468 468h1M468 486h1M468 504h1M468 522h1M468 540h1M468 558h1M486 18h1M486 36h1M486 54h1M486 72h1M486 90h1M486 108h1M486 126h1M486 144h1M486 162h1M486 180h1M486 198h1M486 216h1M486 234h1M486 252h1M486 270h1M486 288h1M486 306h1M486 324h1M486 342h1M486 360h1M486 378h1M486 396h1M486 414h1M486 432h1M486 450h1M486 468h1M486 486h1M486 504h1M486 522h1M486 540h1M486 558h1M504 18h1M504 36h1M504 54h1M504 72h1M504 90h1M504 108h1M504 126h1M504 144h1M504 162h1M504 180h1M504 198h1M504 216h1M504 234h1M504 252h1M504 270h1M504 288h1M504 306h1M504 324h1M504 342h1M504 360h1M504 378h1M504 396h1M504 414h1M504 432h1M504 450h1M504 468h1M504 486h1M504 504h1M504 522h1M504 540h1M504 558h1M522 18h1M522 36h1M522 54h1M522 72h1M522 90h1M522 108h1M522 126h1M522 144h1M522 162h1M522 180h1M522 198h1M522 216h1M522 234h1M522 252h1M522 270h1M522 288h1M522 306h1M522 324h1M522 342h1M522 360h1M522 378h1M522 396h1M522 414h1M522 432h1M522 450h1M522 468h1M522 486h1M522 504h1M522 522h1M522 540h1M522 558h1M540 18h1M540 36h1M540 54h1M540 72h1M540 90h1M540 108h1M540 126h1M540 144h1M540 162h1M540 180h1M540 198h1M540 216h1M540 234h1M540 252h1M540 270h1M540 288h1M540 306h1M540 324h1M540 342h1M540 360h1M540 378h1M540 396h1M540 414h1M540 432h1M540 450h1M540 468h1M540 486h1M540 504h1M540 522h1M540 540h1M540 558h1M558 18h1M558 36h1M558 54h1M558 72h1M558 90h1M558 108h1M558 126h1M558 144h1M558 162h1M558 180h1M558 198h1M558 216h1M558 234h1M558 252h1M558 270h1M558 288h1M558 306h1M558 324h1M558 342h1M558 360h1M558 378h1M558 396h1M558 414h1M558 432h1M558 450h1M558 468h1M558 486h1M558 504h1M558 522h1M558 540h1M558 558h1M576 18h1M576 36h1M576 54h1M576 72h1M576 90h1M576 108h1M576 126h1M576 144h1M576 162h1M576 180h1M576 198h1M576 216h1M576 234h1M576 252h1M576 270h1M576 288h1M576 306h1M576 324h1M576 342h1M576 360h1M576 378h1M576 396h1M576 414h1M576 432h1M576 450h1M576 468h1M576 486h1M576 504h1M576 522h1M576 540h1M576 558h1M594 18h1M594 36h1M594 54h1M594 72h1M594 90h1M594 108h1M594 126h1M594 144h1M594 162h1M594 180h1M594 198h1M594 216h1M594 234h1M594 252h1M594 270h1M594 288h1M594 306h1M594 324h1M594 342h1M594 360h1M594 378h1M594 396h1M594 414h1M594 432h1M594 450h1M594 468h1M594 486h1M594 504h1M594 522h1M594 540h1M594 558h1M612 18h1M612 36h1M612 54h1M612 72h1M612 90h1M612 108h1M612 126h1M612 144h1M612 162h1M612 180h1M612 198h1M612 216h1M612 234h1M612 252h1M612 270h1M612 288h1M612 306h1M612 324h1M612 342h1M612 360h1M612 378h1M612 396h1M612 414h1M612 432h1M612 450h1M612 468h1M612 486h1M612 504h1M612 522h1M612 540h1M612 558h1M630 18h1M630 36h1M630 54h1M630 72h1M630 90h1M630 108h1M630 126h1M630 144h1M630 162h1M630 180h1M630 198h1M630 216h1M630 234h1M630 252h1M630 270h1M630 288h1M630 306h1M630 324h1M630 342h1M630 360h1M630 378h1M630 396h1M630 414h1M630 432h1M630 450h1M630 468h1M630 486h1M630 504h1M630 522h1M630 540h1M630 558h1M648 18h1M648 36h1M648 54h1M648 72h1M648 90h1M648 108h1M648 126h1M648 144h1M648 162h1M648 180h1M648 198h1M648 216h1M648 234h1M648 252h1M648 270h1M648 288h1M648 306h1M648 324h1M648 342h1M648 360h1M648 378h1M648 396h1M648 414h1M648 432h1M648 450h1M648 468h1M648 486h1M648 504h1M648 522h1M648 540h1M648 558h1M666 18h1M666 36h1M666 54h1M666 72h1M666 90h1M666 108h1M666 126h1M666 144h1M666 162h1M666 180h1M666 198h1M666 216h1M666 234h1M666 252h1M666 270h1M666 288h1M666 306h1M666 324h1M666 342h1M666 360h1M666 378h1M666 396h1M666 414h1M666 432h1M666 450h1M666 468h1M666 486h1M666 504h1M666 522h1M666 540h1M666 558h1M684 18h1M684 36h1M684 54h1M684 72h1M684 90h1M684 108h1M684 126h1M684 144h1M684 162h1M684 180h1M684 198h1M684 216h1M684 234h1M684 252h1M684 270h1M684 288h1M684 306h1M684 324h1M684 342h1M684 360h1M684 378h1M684 396h1M684 414h1M684 432h1M684 450h1M684 468h1M684 486h1M684 504h1M684 522h1M684 540h1M684 558h1M702 18h1M702 36h1M702 54h1M702 72h1M702 90h1M702 108h1M702 126h1M702 144h1M702 162h1M702 180h1M702 198h1M702 216h1M702 234h1M702 252h1M702 270h1M702 288h1M702 306h1M702 324h1M702 342h1M702 360h1M702 378h1M702 396h1M702 414h1M702 432h1M702 450h1M702 468h1M702 486h1M702 504h1M702 522h1M702 540h1M702 558h1M720 18h1M720 36h1M720 54h1M720 72h1M720 90h1M720 108h1M720 126h1M720 144h1M720 162h1M720 180h1M720 198h1M720 216h1M720 234h1M720 252h1M720 270h1M720 288h1M720 306h1M720 324h1M720 342h1M720 360h1M720 378h1M720 396h1M720 414h1M720 432h1M720 450h1M720 468h1M720 486h1M720 504h1M720 522h1M720 540h1M720 558h1M738 18h1M738 36h1M738 54h1M738 72h1M738 90h1M738 108h1M738 126h1M738 144h1M738 162h1M738 180h1M738 198h1M738 216h1M738 234h1M738 252h1M738 270h1M738 288h1M738 306h1M738 324h1M738 342h1M738 360h1M738 378h1M738 396h1M738 414h1M738 432h1M738 450h1M738 468h1M738 486h1M738 504h1M738 522h1M738 540h1M738 558h1M756 18h1M756 36h1M756 54h1M756 72h1M756 90h1M756 108h1M756 126h1M756 144h1M756 162h1M756 180h1M756 198h1M756 216h1M756 234h1M756 252h1M756 270h1M756 288h1M756 306h1M756 324h1M756 342h1M756 360h1M756 378h1M756 396h1M756 414h1M756 432h1M756 450h1M756 468h1M756 486h1M756 504h1M756 522h1M756 540h1M756 558h1M774 18h1M774 36h1M774 54h1M774 72h1M774 90h1M774 108h1M774 126h1M774 144h1M774 162h1M774 180h1M774 198h1M774 216h1M774 234h1M774 252h1M774 270h1M774 288h1M774 306h1M774 324h1M774 342h1M774 360h1M774 378h1M774 396h1M774 414h1M774 432h1M774 450h1M774 468h1M774 486h1M774 504h1M774 522h1M774 540h1M774 558h1M792 18h1M792 36h1M792 54h1M792 72h1M792 90h1M792 108h1M792 126h1M792 144h1M792 162h1M792 180h1M792 198h1M792 216h1M792 234h1M792 252h1M792 270h1M792 288h1M792 306h1M792 324h1M792 342h1M792 360h1M792 378h1M792 396h1M792 414h1M792 432h1M792 450h1M792 468h1M792 486h1M792 504h1M792 522h1M792 540h1M792 558h1M810 18h1M810 36h1M810 54h1M810 72h1M810 90h1M810 108h1M810 126h1M810 144h1M810 162h1M810 180h1M810 198h1M810 216h1M810 234h1M810 252h1M810 270h1M810 288h1M810 306h1M810 324h1M810 342h1M810 360h1M810 378h1M810 396h1M810 414h1M810 432h1M810 450h1M810 468h1M810 486h1M810 504h1M810 522h1M810 540h1M810 558h1M828 18h1M828 36h1M828 54h1M828 72h1M828 90h1M828 108h1M828 126h1M828 144h1M828 162h1M828 180h1M828 198h1M828 216h1M828 234h1M828 252h1M828 270h1M828 288h1M828 306h1M828 324h1M828 342h1M828 360h1M828 378h1M828 396h1M828 414h1M828 432h1M828 450h1M828 468h1M828 486h1M828 504h1M828 522h1M828 540h1M828 558h1M846 18h1M846 36h1M846 54h1M846 72h1M846 90h1M846 108h1M846 126h1M846 144h1M846 162h1M846 180h1M846 198h1M846 216h1M846 234h1M846 252h1M846 270h1M846 288h1M846 306h1M846 324h1M846 342h1M846 360h1M846 378h1M846 396h1M846 414h1M846 432h1M846 450h1M846 468h1M846 486h1M846 504h1M846 522h1M846 540h1M846 558h1M864 18h1M864 36h1M864 54h1M864 72h1M864 90h1M864 108h1M864 126h1M864 144h1M864 162h1M864 180h1M864 198h1M864 216h1M864 234h1M864 252h1M864 270h1M864 288h1M864 306h1M864 324h1M864 342h1M864 360h1M864 378h1M864 396h1M864 414h1M864 432h1M864 450h1M864 468h1M864 486h1M864 504h1M864 522h1M864 540h1M864 558h1M882 18h1M882 36h1M882 54h1M882 72h1M882 90h1M882 108h1M882 126h1M882 144h1M882 162h1M882 180h1M882 198h1M882 216h1M882 234h1M882 252h1M882 270h1M882 288h1M882 306h1M882 324h1M882 342h1M882 360h1M882 378h1M882 396h1M882 414h1M882 432h1M882 450h1M882 468h1M882 486h1M882 504h1M882 522h1M882 540h1M882 558h1M900 18h1M900 36h1M900 54h1M900 72h1M900 90h1M900 108h1M900 126h1M900 144h1M900 162h1M900 180h1M900 198h1M900 216h1M900 234h1M900 252h1M900 270h1M900 288h1M900 306h1M900 324h1M900 342h1M900 360h1M900 378h1M900 396h1M900 414h1M900 432h1M900 450h1M900 468h1M900 486h1M900 504h1M900 522h1M900 540h1M900 558h1M918 18h1M918 36h1M918 54h1M918 72h1M918 90h1M918 108h1M918 126h1M918 144h1M918 162h1M918 180h1M918 198h1M918 216h1M918 234h1M918 252h1M918 270h1M918 288h1M918 306h1M918 324h1M918 342h1M918 360h1M918 378h1M918 396h1M918 414h1M918 432h1M918 450h1M918 468h1M918 486h1M918 504h1M918 522h1M918 540h1M918 558h1M936 18h1M936 36h1M936 54h1M936 72h1M936 90h1M936 108h1M936 126h1M936 144h1M936 162h1M936 180h1M936 198h1M936 216h1M936 234h1M936 252h1M936 270h1M936 288h1M936 306h1M936 324h1M936 342h1M936 360h1M936 378h1M936 396h1M936 414h1M936 432h1M936 450h1M936 468h1M936 486h1M936 504h1M936 522h1M936 540h1M936 558h1M954 18h1M954 36h1M954 54h1M954 72h1M954 90h1M954 108h1M954 126h1M954 144h1M954 162h1M954 180h1M954 198h1M954 216h1M954 234h1M954 252h1M954 270h1M954 288h1M954 306h1M954 324h1M954 342h1M954 360h1M954 378h1M954 396h1M954 414h1M954 432h1M954 450h1M954 468h1M954 486h1M954 504h1M954 522h1M954 540h1M954 558h1M972 18h1M972 36h1M972 54h1M972 72h1M972 90h1M972 108h1M972 126h1M972 144h1M972 162h1M972 180h1M972 198h1M972 216h1M972 234h1M972 252h1M972 270h1M972 288h1M972 306h1M972 324h1M972 342h1M972 360h1M972 378h1M972 396h1M972 414h1M972 432h1M972 450h1M972 468h1M972 486h1M972 504h1M972 522h1M972 540h1M972 558h1M990 18h1M990 36h1M990 54h1M990 72h1M990 90h1M990 108h1M990 126h1M990 144h1M990 162h1M990 180h1M990 198h1M990 216h1M990 234h1M990 252h1M990 270h1M990 288h1M990 306h1M990 324h1M990 342h1M990 360h1M990 378h1M990 396h1M990 414h1M990 432h1M990 450h1M990 468h1M990 486h1M990 504h1M990 522h1M990 540h1M990 558h1M1008 18h1M1008 36h1M1008 54h1M1008 72h1M1008 90h1M1008 108h1M1008 126h1M1008 144h1M1008 162h1M1008 180h1M1008 198h1M1008 216h1M1008 234h1M1008 252h1M1008 270h1M1008 288h1M1008 306h1M1008 324h1M1008 342h1M1008 360h1M1008 378h1M1008 396h1M1008 414h1M1008 432h1M1008 450h1M1008 468h1M1008 486h1M1008 504h1M1008 522h1M1008 540h1M1008 558h1M1026 18h1M1026 36h1M1026 54h1M1026 72h1M1026 90h1M1026 108h1M1026 126h1M1026 144h1M1026 162h1M1026 180h1M1026 198h1M1026 216h1M1026 234h1M1026 252h1M1026 270h1M1026 288h1M1026 306h1M1026 324h1M1026 342h1M1026 360h1M1026 378h1M1026 396h1M1026 414h1M1026 432h1M1026 450h1M1026 468h1M1026 486h1M1026 504h1M1026 522h1M1026 540h1M1026 558h1M1044 18h1M1044 36h1M1044 54h1M1044 72h1M1044 90h1M1044 108h1M1044 126h1M1044 144h1M1044 162h1M1044 180h1M1044 198h1M1044 216h1M1044 234h1M1044 252h1M1044 270h1M1044 288h1M1044 306h1M1044 324h1M1044 342h1M1044 360h1M1044 378h1M1044 396h1M1044 414h1M1044 432h1M1044 450h1M1044 468h1M1044 486h1M1044 504h1M1044 522h1M1044 540h1M1044 558h1M1062 18h1M1062 36h1M1062 54h1M1062 72h1M1062 90h1M1062 108h1M1062 126h1M1062 144h1M1062 162h1M1062 180h1M1062 198h1M1062 216h1M1062 234h1M1062 252h1M1062 270h1M1062 288h1M1062 306h1M1062 324h1M1062 342h1M1062 360h1M1062 378h1M1062 396h1M1062 414h1M1062 432h1M1062 450h1M1062 468h1M1062 486h1M1062 504h1M1062 522h1M1062 540h1M1062 558h1M1080 18h1M1080 36h1M1080 54h1M1080 72h1M1080 90h1M1080 108h1M1080 126h1M1080 144h1M1080 162h1M1080 180h1M1080 198h1M1080 216h1M1080 234h1M1080 252h1M1080 270h1M1080 288h1M1080 306h1M1080 324h1M1080 342h1M1080 360h1M1080 378h1M1080 396h1M1080 414h1M1080 432h1M1080 450h1M1080 468h1M1080 486h1M1080 504h1M1080 522h1M1080 540h1M1080 558h1M1098 18h1M1098 36h1M1098 54h1M1098 72h1M1098 90h1M1098 108h1M1098 126h1M1098 144h1M1098 162h1M1098 180h1M1098 198h1M1098 216h1M1098 234h1M1098 252h1M1098 270h1M1098 288h1M1098 306h1M1098 324h1M1098 342h1M1098 360h1M1098 378h1M1098 396h1M1098 414h1M1098 432h1M1098 450h1M1098 468h1M1098 486h1M1098 504h1M1098 522h1M1098 540h1M1098 558h1M1116 18h1M1116 36h1M1116 54h1M1116 72h1M1116 90h1M1116 108h1M1116 126h1M1116 144h1M1116 162h1M1116 180h1M1116 198h1M1116 216h1M1116 234h1M1116 252h1M1116 270h1M1116 288h1M1116 306h1M1116 324h1M1116 342h1M1116 360h1M1116 378h1M1116 396h1M1116 414h1M1116 432h1M1116 450h1M1116 468h1M1116 486h1M1116 504h1M1116 522h1M1116 540h1M1116 558h1M1134 18h1M1134 36h1M1134 54h1M1134 72h1M1134 90h1M1134 108h1M1134 126h1M1134 144h1M1134 162h1M1134 180h1M1134 198h1M1134 216h1M1134 234h1M1134 252h1M1134 270h1M1134 288h1M1134 306h1M1134 324h1M1134 342h1M1134 360h1M1134 378h1M1134 396h1M1134 414h1M1134 432h1M1134 450h1M1134 468h1M1134 486h1M1134 504h1M1134 522h1M1134 540h1M1134 558h1M1152 18h1M1152 36h1M1152 54h1M1152 72h1M1152 90h1M1152 108h1M1152 126h1M1152 144h1M1152 162h1M1152 180h1M1152 198h1M1152 216h1M1152 234h1M1152 252h1M1152 270h1M1152 288h1M1152 306h1M1152 324h1M1152 342h1M1152 360h1M1152 378h1M1152 396h1M1152 414h1M1152 432h1M1152 450h1M1152 468h1M1152 486h1M1152 504h1M1152 522h1M1152 540h1M1152 558h1M1170 18h1M1170 36h1M1170 54h1M1170 72h1M1170 90h1M1170 108h1M1170 126h1M1170 144h1M1170 162h1M1170 180h1M1170 198h1M1170 216h1M1170 234h1M1170 252h1M1170 270h1M1170 288h1M1170 306h1M1170 324h1M1170 342h1M1170 360h1M1170 378h1M1170 396h1M1170 414h1M1170 432h1M1170 450h1M1170 468h1M1170 486h1M1170 504h1M1170 522h1M1170 540h1M1170 558h1M1188 18h1M1188 36h1M1188 54h1M1188 72h1M1188 90h1M1188 108h1M1188 126h1M1188 144h1M1188 162h1M1188 180h1M1188 198h1M1188 216h1M1188 234h1M1188 252h1M1188 270h1M1188 288h1M1188 306h1M1188 324h1M1188 342h1M1188 360h1M1188 378h1M1188 396h1M1188 414h1M1188 432h1M1188 450h1M1188 468h1M1188 486h1M1188 504h1M1188 522h1M1188 540h1M1188 558h1M1206 18h1M1206 36h1M1206 54h1M1206 72h1M1206 90h1M1206 108h1M1206 126h1M1206 144h1M1206 162h1M1206 180h1M1206 198h1M1206 216h1M1206 234h1M1206 252h1M1206 270h1M1206 288h1M1206 306h1M1206 324h1M1206 342h1M1206 360h1M1206 378h1M1206 396h1M1206 414h1M1206 432h1M1206 450h1M1206 468h1M1206 486h1M1206 504h1M1206 522h1M1206 540h1M1206 558h1M1224 18h1M1224 36h1M1224 54h1M1224 72h1M1224 90h1M1224 108h1M1224 126h1M1224 144h1M1224 162h1M1224 180h1M1224 198h1M1224 216h1M1224 234h1M1224 252h1M1224 270h1M1224 288h1M1224 306h1M1224 324h1M1224 342h1M1224 360h1M1224 378h1M1224 396h1M1224 414h1M1224 432h1M1224 450h1M1224 468h1M1224 486h1M1224 504h1M1224 522h1M1224 540h1M1224 558h1M1242 18h1M1242 36h1M1242 54h1M1242 72h1M1242 90h1M1242 108h1M1242 126h1M1242 144h1M1242 162h1M1242 180h1M1242 198h1M1242 216h1M1242 234h1M1242 252h1M1242 270h1M1242 288h1M1242 306h1M1242 324h1M1242 342h1M1242 360h1M1242 378h1M1242 396h1M1242 414h1M1242 432h1M1242 450h1M1242 468h1M1242 486h1M1242 504h1M1242 522h1M1242 540h1M1242 558h1M1260 18h1M1260 36h1M1260 54h1M1260 72h1M1260 90h1M1260 108h1M1260 126h1M1260 144h1M1260 162h1M1260 180h1M1260 198h1M1260 216h1M1260 234h1M1260 252h1M1260 270h1M1260 288h1M1260 306h1M1260 324h1M1260 342h1M1260 360h1M1260 378h1M1260 396h1M1260 414h1M1260 432h1M1260 450h1M1260 468h1M1260 486h1M1260 504h1M1260 522h1M1260 540h1M1260 558h1M1278 18h1M1278 36h1M1278 54h1M1278 72h1M1278 90h1M1278 108h1M1278 126h1M1278 144h1M1278 162h1M1278 180h1M1278 198h1M1278 216h1M1278 234h1M1278 252h1M1278 270h1M1278 288h1M1278 306h1M1278 324h1M1278 342h1M1278 360h1M1278 378h1M1278 396h1M1278 414h1M1278 432h1M1278 450h1M1278 468h1M1278 486h1M1278 504h1M1278 522h1M1278 540h1M1278 558h1M1296 18h1M1296 36h1M1296 54h1M1296 72h1M1296 90h1M1296 108h1M1296 126h1M1296 144h1M1296 162h1M1296 180h1M1296 198h1M1296 216h1M1296 234h1M1296 252h1M1296 270h1M1296 288h1M1296 306h1M1296 324h1M1296 342h1M1296 360h1M1296 378h1M1296 396h1M1296 414h1M1296 432h1M1296 450h1M1296 468h1M1296 486h1M1296 504h1M1296 522h1M1296 540h1M1296 558h1" stroke="#DCDCDC" stroke-width="1.2" stroke-linecap="round"/><rect x="40" y="60" width="380" height="440" rx="12" fill="#FFFFFF" stroke="#DCDCDC" stroke-width="1.2"/><rect x="68" y="92" width="34" height="34" rx="6" fill="#FFFFFF" stroke="#DCDCDC" stroke-width="1.2"/><rect x="76.84" y="100.84" width="16.32" height="16.32" rx="2" fill="#DEDEDE" stroke="none" stroke-width="1.2"/><text x="68" y="156" font-family="DM Sans, -apple-system, BlinkMacSystemFont, sans-serif" font-size="15" font-weight="700" fill="#111111" text-anchor="start">Username &amp; Password</text><text x="68" y="178" font-family="DM Sans, -apple-system, BlinkMacSystemFont, sans-serif" font-size="10.5" font-weight="500" fill="#8C8C8C" text-anchor="start">Authorize Blend Metrics to access your account.</text><text x="68" y="218" font-family="DM Sans, -apple-system, BlinkMacSystemFont, sans-serif" font-size="11" font-weight="600" fill="#3F3F3F" text-anchor="start">Username</text><rect x="68" y="228" width="324" height="42" rx="7" fill="#FFFFFF" stroke="#DCDCDC" stroke-width="1.2"/><text x="82" y="255" font-family="DM Sans, -apple-system, BlinkMacSystemFont, sans-serif" font-size="11" font-weight="500" fill="#B4B4B4" text-anchor="start">Enter username</text><text x="68" y="292" font-family="DM Sans, -apple-system, BlinkMacSystemFont, sans-serif" font-size="11" font-weight="600" fill="#3F3F3F" text-anchor="start">Password</text><rect x="68" y="302" width="324" height="42" rx="7" fill="#FFFFFF" stroke="#DCDCDC" stroke-width="1.2"/><text x="82" y="329" font-family="DM Sans, -apple-system, BlinkMacSystemFont, sans-serif" font-size="11" font-weight="500" fill="#B4B4B4" text-anchor="start">Enter password</text><rect x="68" y="372" width="324" height="42" rx="7" fill="#1C1C1C" stroke="#1C1C1C" stroke-width="1.2"/><text x="230" y="397.2" font-family="DM Sans, -apple-system, BlinkMacSystemFont, sans-serif" font-size="12" font-weight="700" fill="#FFFFFF" text-anchor="middle">Connect</text><text x="68" y="442" font-family="DM Sans, -apple-system, BlinkMacSystemFont, sans-serif" font-size="9.6" font-weight="500" fill="#8C8C8C" text-anchor="start">Credentials are encrypted and can be</text><text x="68" y="458" font-family="DM Sans, -apple-system, BlinkMacSystemFont, sans-serif" font-size="9.6" font-weight="500" fill="#8C8C8C" text-anchor="start">removed at any time.</text><rect x="460" y="60" width="380" height="440" rx="12" fill="#FFFFFF" stroke="#DCDCDC" stroke-width="1.2"/><rect x="488" y="92" width="34" height="34" rx="6" fill="#FFFFFF" stroke="#DCDCDC" stroke-width="1.2"/><rect x="496.84" y="100.84" width="16.32" height="16.32" rx="2" fill="#DEDEDE" stroke="none" stroke-width="1.2"/><text x="488" y="156" font-family="DM Sans, -apple-system, BlinkMacSystemFont, sans-serif" font-size="15" font-weight="700" fill="#111111" text-anchor="start">Email &amp; API Key</text><text x="488" y="178" font-family="DM Sans, -apple-system, BlinkMacSystemFont, sans-serif" font-size="10.5" font-weight="500" fill="#8C8C8C" text-anchor="start">Authorize Blend Metrics to access your account.</text><text x="488" y="218" font-family="DM Sans, -apple-system, BlinkMacSystemFont, sans-serif" font-size="11" font-weight="600" fill="#3F3F3F" text-anchor="start">Email address</text><rect x="488" y="228" width="324" height="42" rx="7" fill="#FFFFFF" stroke="#DCDCDC" stroke-width="1.2"/><text x="502" y="255" font-family="DM Sans, -apple-system, BlinkMacSystemFont, sans-serif" font-size="11" font-weight="500" fill="#B4B4B4" text-anchor="start">Enter email address</text><text x="488" y="292" font-family="DM Sans, -apple-system, BlinkMacSystemFont, sans-serif" font-size="11" font-weight="600" fill="#3F3F3F" text-anchor="start">API key</text><rect x="488" y="302" width="324" height="42" rx="7" fill="#FFFFFF" stroke="#DCDCDC" stroke-width="1.2"/><text x="502" y="329" font-family="DM Sans, -apple-system, BlinkMacSystemFont, sans-serif" font-size="11" font-weight="500" fill="#B4B4B4" text-anchor="start">Enter api key</text><rect x="488" y="372" width="324" height="42" rx="7" fill="#1C1C1C" stroke="#1C1C1C" stroke-width="1.2"/><text x="650" y="397.2" font-family="DM Sans, -apple-system, BlinkMacSystemFont, sans-serif" font-size="12" font-weight="700" fill="#FFFFFF" text-anchor="middle">Connect</text><text x="488" y="442" font-family="DM Sans, -apple-system, BlinkMacSystemFont, sans-serif" font-size="9.6" font-weight="500" fill="#8C8C8C" text-anchor="start">Credentials are encrypted and can be</text><text x="488" y="458" font-family="DM Sans, -apple-system, BlinkMacSystemFont, sans-serif" font-size="9.6" font-weight="500" fill="#8C8C8C" text-anchor="start">removed at any time.</text><rect x="880" y="60" width="380" height="440" rx="12" fill="#FFFFFF" stroke="#DCDCDC" stroke-width="1.2"/><rect x="908" y="92" width="34" height="34" rx="6" fill="#FFFFFF" stroke="#DCDCDC" stroke-width="1.2"/><rect x="916.84" y="100.84" width="16.32" height="16.32" rx="2" fill="#DEDEDE" stroke="none" stroke-width="1.2"/><text x="908" y="156" font-family="DM Sans, -apple-system, BlinkMacSystemFont, sans-serif" font-size="15" font-weight="700" fill="#111111" text-anchor="start">Google Account Picker</text><text x="908" y="178" font-family="DM Sans, -apple-system, BlinkMacSystemFont, sans-serif" font-size="10.5" font-weight="500" fill="#8C8C8C" text-anchor="start">Choose an account to continue to Blend Metrics.</text><rect x="908" y="202" width="324" height="54" rx="8" fill="#FFFFFF" stroke="#DCDCDC" stroke-width="1.2"/><circle cx="932" cy="229" r="13" fill="#DEDEDE" stroke="none" stroke-width="1.2"/><text x="956" y="234" font-family="DM Sans, -apple-system, BlinkMacSystemFont, sans-serif" font-size="11" font-weight="600" fill="#111111" text-anchor="start">chris@marketeqdigital.com</text><rect x="908" y="268" width="324" height="54" rx="8" fill="#FFFFFF" stroke="#DCDCDC" stroke-width="1.2"/><circle cx="932" cy="295" r="13" fill="#DEDEDE" stroke="none" stroke-width="1.2"/><text x="956" y="300" font-family="DM Sans, -apple-system, BlinkMacSystemFont, sans-serif" font-size="11" font-weight="600" fill="#111111" text-anchor="start">christopher@gmail.com</text><rect x="908" y="334" width="324" height="54" rx="8" fill="#FFFFFF" stroke="#DCDCDC" stroke-width="1.2" stroke-dasharray="5 4"/><text x="932" y="366" font-family="DM Sans, -apple-system, BlinkMacSystemFont, sans-serif" font-size="11" font-weight="600" fill="#3F3F3F" text-anchor="start">+   Use another account</text><text x="908" y="424" font-family="DM Sans, -apple-system, BlinkMacSystemFont, sans-serif" font-size="9.6" font-weight="500" fill="#8C8C8C" text-anchor="start">Blend Metrics will receive your name, email</text><text x="908" y="440" font-family="DM Sans, -apple-system, BlinkMacSystemFont, sans-serif" font-size="9.6" font-weight="500" fill="#8C8C8C" text-anchor="start">address and profile picture.</text><text x="908" y="466" font-family="DM Sans, -apple-system, BlinkMacSystemFont, sans-serif" font-size="10" font-weight="700" fill="#111111" text-anchor="start">Manage connected accounts</text><rect x="0.6" y="0.6" width="1298.8" height="558.8" rx="6" fill="none" stroke="#EBEBEB"/></svg>
