<svg xmlns="http://www.w3.org/2000/svg" viewBox="0 0 1300 820" width="1300" height="820" role="img"><title>Final feature: Split Path Configuration — conditional and percentage routing with an AND/OR builder</title><rect width="1300" height="820" fill="#FFFFFF"/><rect x="0" y="0" width="1300" height="52" rx="0" fill="#FFFFFF" stroke="none" stroke-width="1.2"/><path d="M0 52 L1300 52" stroke="#DCDCDC" stroke-width="1.2" fill="none"/><rect x="16" y="12" width="28" height="28" rx="6" fill="#F3F3F3" stroke="#DCDCDC" stroke-width="1.2"/><path d="M34 26 l-8 0 M29 21 l-5 5 5 5" stroke="#3F3F3F" stroke-width="1.5" fill="none" stroke-linecap="round" stroke-linejoin="round"/><text x="56" y="31" font-family="DM Sans, -apple-system, BlinkMacSystemFont, sans-serif" font-size="14" font-weight="700" fill="#111111" text-anchor="start">Test Workflow</text><circle cx="1032" cy="26" r="6" fill="none" stroke="#8C8C8C" stroke-width="1.2"/><path d="M1032 26 L1032 22" stroke="#8C8C8C" stroke-width="1.2" fill="none"/><text x="1044" y="30" font-family="DM Sans, -apple-system, BlinkMacSystemFont, sans-serif" font-size="11" font-weight="500" fill="#8C8C8C" text-anchor="start">Saved at 10:38AM</text><rect x="1152" y="12" width="30" height="28" rx="6" fill="#FFFFFF" stroke="#DCDCDC" stroke-width="1.2"/><text x="1167" y="31" font-family="DM Sans, -apple-system, BlinkMacSystemFont, sans-serif" font-size="13" font-weight="500" fill="#3F3F3F" text-anchor="middle">…</text><rect x="1192" y="12" width="62" height="28" rx="7" fill="#1C1C1C" stroke="#1C1C1C" stroke-width="1.2"/><text x="1223" y="30.2" font-family="DM Sans, -apple-system, BlinkMacSystemFont, sans-serif" font-size="11" font-weight="700" fill="#FFFFFF" text-anchor="middle">Publish</text><text x="1274" y="31" font-family="DM Sans, -apple-system, BlinkMacSystemFont, sans-serif" font-size="12" font-weight="500" fill="#3F3F3F" text-anchor="middle">✕</text><defs><clipPath id="fc2"><rect x="0" y="52" width="960" height="768"/></clipPath></defs><g clip-path="url(#fc2)"><rect x="0" y="52" width="960" height="768" rx="0" fill="#FBFBFB" stroke="none" stroke-width="1.2"/><path d="M18 70h1M18 88h1M18 106h1M18 124h1M18 142h1M18 160h1M18 178h1M18 196h1M18 214h1M18 232h1M18 250h1M18 268h1M18 286h1M18 304h1M18 322h1M18 340h1M18 358h1M18 376h1M18 394h1M18 412h1M18 430h1M18 448h1M18 466h1M18 484h1M18 502h1M18 520h1M18 538h1M18 556h1M18 574h1M18 592h1M18 610h1M18 628h1M18 646h1M18 664h1M18 682h1M18 700h1M18 718h1M18 736h1M18 754h1M18 772h1M18 790h1M18 808h1M36 70h1M36 88h1M36 106h1M36 124h1M36 142h1M36 160h1M36 178h1M36 196h1M36 214h1M36 232h1M36 250h1M36 268h1M36 286h1M36 304h1M36 322h1M36 340h1M36 358h1M36 376h1M36 394h1M36 412h1M36 430h1M36 448h1M36 466h1M36 484h1M36 502h1M36 520h1M36 538h1M36 556h1M36 574h1M36 592h1M36 610h1M36 628h1M36 646h1M36 664h1M36 682h1M36 700h1M36 718h1M36 736h1M36 754h1M36 772h1M36 790h1M36 808h1M54 70h1M54 88h1M54 106h1M54 124h1M54 142h1M54 160h1M54 178h1M54 196h1M54 214h1M54 232h1M54 250h1M54 268h1M54 286h1M54 304h1M54 322h1M54 340h1M54 358h1M54 376h1M54 394h1M54 412h1M54 430h1M54 448h1M54 466h1M54 484h1M54 502h1M54 520h1M54 538h1M54 556h1M54 574h1M54 592h1M54 610h1M54 628h1M54 646h1M54 664h1M54 682h1M54 700h1M54 718h1M54 736h1M54 754h1M54 772h1M54 790h1M54 808h1M72 70h1M72 88h1M72 106h1M72 124h1M72 142h1M72 160h1M72 178h1M72 196h1M72 214h1M72 232h1M72 250h1M72 268h1M72 286h1M72 304h1M72 322h1M72 340h1M72 358h1M72 376h1M72 394h1M72 412h1M72 430h1M72 448h1M72 466h1M72 484h1M72 502h1M72 520h1M72 538h1M72 556h1M72 574h1M72 592h1M72 610h1M72 628h1M72 646h1M72 664h1M72 682h1M72 700h1M72 718h1M72 736h1M72 754h1M72 772h1M72 790h1M72 808h1M90 70h1M90 88h1M90 106h1M90 124h1M90 142h1M90 160h1M90 178h1M90 196h1M90 214h1M90 232h1M90 250h1M90 268h1M90 286h1M90 304h1M90 322h1M90 340h1M90 358h1M90 376h1M90 394h1M90 412h1M90 430h1M90 448h1M90 466h1M90 484h1M90 502h1M90 520h1M90 538h1M90 556h1M90 574h1M90 592h1M90 610h1M90 628h1M90 646h1M90 664h1M90 682h1M90 700h1M90 718h1M90 736h1M90 754h1M90 772h1M90 790h1M90 808h1M108 70h1M108 88h1M108 106h1M108 124h1M108 142h1M108 160h1M108 178h1M108 196h1M108 214h1M108 232h1M108 250h1M108 268h1M108 286h1M108 304h1M108 322h1M108 340h1M108 358h1M108 376h1M108 394h1M108 412h1M108 430h1M108 448h1M108 466h1M108 484h1M108 502h1M108 520h1M108 538h1M108 556h1M108 574h1M108 592h1M108 610h1M108 628h1M108 646h1M108 664h1M108 682h1M108 700h1M108 718h1M108 736h1M108 754h1M108 772h1M108 790h1M108 808h1M126 70h1M126 88h1M126 106h1M126 124h1M126 142h1M126 160h1M126 178h1M126 196h1M126 214h1M126 232h1M126 250h1M126 268h1M126 286h1M126 304h1M126 322h1M126 340h1M126 358h1M126 376h1M126 394h1M126 412h1M126 430h1M126 448h1M126 466h1M126 484h1M126 502h1M126 520h1M126 538h1M126 556h1M126 574h1M126 592h1M126 610h1M126 628h1M126 646h1M126 664h1M126 682h1M126 700h1M126 718h1M126 736h1M126 754h1M126 772h1M126 790h1M126 808h1M144 70h1M144 88h1M144 106h1M144 124h1M144 142h1M144 160h1M144 178h1M144 196h1M144 214h1M144 232h1M144 250h1M144 268h1M144 286h1M144 304h1M144 322h1M144 340h1M144 358h1M144 376h1M144 394h1M144 412h1M144 430h1M144 448h1M144 466h1M144 484h1M144 502h1M144 520h1M144 538h1M144 556h1M144 574h1M144 592h1M144 610h1M144 628h1M144 646h1M144 664h1M144 682h1M144 700h1M144 718h1M144 736h1M144 754h1M144 772h1M144 790h1M144 808h1M162 70h1M162 88h1M162 106h1M162 124h1M162 142h1M162 160h1M162 178h1M162 196h1M162 214h1M162 232h1M162 250h1M162 268h1M162 286h1M162 304h1M162 322h1M162 340h1M162 358h1M162 376h1M162 394h1M162 412h1M162 430h1M162 448h1M162 466h1M162 484h1M162 502h1M162 520h1M162 538h1M162 556h1M162 574h1M162 592h1M162 610h1M162 628h1M162 646h1M162 664h1M162 682h1M162 700h1M162 718h1M162 736h1M162 754h1M162 772h1M162 790h1M162 808h1M180 70h1M180 88h1M180 106h1M180 124h1M180 142h1M180 160h1M180 178h1M180 196h1M180 214h1M180 232h1M180 250h1M180 268h1M180 286h1M180 304h1M180 322h1M180 340h1M180 358h1M180 376h1M180 394h1M180 412h1M180 430h1M180 448h1M180 466h1M180 484h1M180 502h1M180 520h1M180 538h1M180 556h1M180 574h1M180 592h1M180 610h1M180 628h1M180 646h1M180 664h1M180 682h1M180 700h1M180 718h1M180 736h1M180 754h1M180 772h1M180 790h1M180 808h1M198 70h1M198 88h1M198 106h1M198 124h1M198 142h1M198 160h1M198 178h1M198 196h1M198 214h1M198 232h1M198 250h1M198 268h1M198 286h1M198 304h1M198 322h1M198 340h1M198 358h1M198 376h1M198 394h1M198 412h1M198 430h1M198 448h1M198 466h1M198 484h1M198 502h1M198 520h1M198 538h1M198 556h1M198 574h1M198 592h1M198 610h1M198 628h1M198 646h1M198 664h1M198 682h1M198 700h1M198 718h1M198 736h1M198 754h1M198 772h1M198 790h1M198 808h1M216 70h1M216 88h1M216 106h1M216 124h1M216 142h1M216 160h1M216 178h1M216 196h1M216 214h1M216 232h1M216 250h1M216 268h1M216 286h1M216 304h1M216 322h1M216 340h1M216 358h1M216 376h1M216 394h1M216 412h1M216 430h1M216 448h1M216 466h1M216 484h1M216 502h1M216 520h1M216 538h1M216 556h1M216 574h1M216 592h1M216 610h1M216 628h1M216 646h1M216 664h1M216 682h1M216 700h1M216 718h1M216 736h1M216 754h1M216 772h1M216 790h1M216 808h1M234 70h1M234 88h1M234 106h1M234 124h1M234 142h1M234 160h1M234 178h1M234 196h1M234 214h1M234 232h1M234 250h1M234 268h1M234 286h1M234 304h1M234 322h1M234 340h1M234 358h1M234 376h1M234 394h1M234 412h1M234 430h1M234 448h1M234 466h1M234 484h1M234 502h1M234 520h1M234 538h1M234 556h1M234 574h1M234 592h1M234 610h1M234 628h1M234 646h1M234 664h1M234 682h1M234 700h1M234 718h1M234 736h1M234 754h1M234 772h1M234 790h1M234 808h1M252 70h1M252 88h1M252 106h1M252 124h1M252 142h1M252 160h1M252 178h1M252 196h1M252 214h1M252 232h1M252 250h1M252 268h1M252 286h1M252 304h1M252 322h1M252 340h1M252 358h1M252 376h1M252 394h1M252 412h1M252 430h1M252 448h1M252 466h1M252 484h1M252 502h1M252 520h1M252 538h1M252 556h1M252 574h1M252 592h1M252 610h1M252 628h1M252 646h1M252 664h1M252 682h1M252 700h1M252 718h1M252 736h1M252 754h1M252 772h1M252 790h1M252 808h1M270 70h1M270 88h1M270 106h1M270 124h1M270 142h1M270 160h1M270 178h1M270 196h1M270 214h1M270 232h1M270 250h1M270 268h1M270 286h1M270 304h1M270 322h1M270 340h1M270 358h1M270 376h1M270 394h1M270 412h1M270 430h1M270 448h1M270 466h1M270 484h1M270 502h1M270 520h1M270 538h1M270 556h1M270 574h1M270 592h1M270 610h1M270 628h1M270 646h1M270 664h1M270 682h1M270 700h1M270 718h1M270 736h1M270 754h1M270 772h1M270 790h1M270 808h1M288 70h1M288 88h1M288 106h1M288 124h1M288 142h1M288 160h1M288 178h1M288 196h1M288 214h1M288 232h1M288 250h1M288 268h1M288 286h1M288 304h1M288 322h1M288 340h1M288 358h1M288 376h1M288 394h1M288 412h1M288 430h1M288 448h1M288 466h1M288 484h1M288 502h1M288 520h1M288 538h1M288 556h1M288 574h1M288 592h1M288 610h1M288 628h1M288 646h1M288 664h1M288 682h1M288 700h1M288 718h1M288 736h1M288 754h1M288 772h1M288 790h1M288 808h1M306 70h1M306 88h1M306 106h1M306 124h1M306 142h1M306 160h1M306 178h1M306 196h1M306 214h1M306 232h1M306 250h1M306 268h1M306 286h1M306 304h1M306 322h1M306 340h1M306 358h1M306 376h1M306 394h1M306 412h1M306 430h1M306 448h1M306 466h1M306 484h1M306 502h1M306 520h1M306 538h1M306 556h1M306 574h1M306 592h1M306 610h1M306 628h1M306 646h1M306 664h1M306 682h1M306 700h1M306 718h1M306 736h1M306 754h1M306 772h1M306 790h1M306 808h1M324 70h1M324 88h1M324 106h1M324 124h1M324 142h1M324 160h1M324 178h1M324 196h1M324 214h1M324 232h1M324 250h1M324 268h1M324 286h1M324 304h1M324 322h1M324 340h1M324 358h1M324 376h1M324 394h1M324 412h1M324 430h1M324 448h1M324 466h1M324 484h1M324 502h1M324 520h1M324 538h1M324 556h1M324 574h1M324 592h1M324 610h1M324 628h1M324 646h1M324 664h1M324 682h1M324 700h1M324 718h1M324 736h1M324 754h1M324 772h1M324 790h1M324 808h1M342 70h1M342 88h1M342 106h1M342 124h1M342 142h1M342 160h1M342 178h1M342 196h1M342 214h1M342 232h1M342 250h1M342 268h1M342 286h1M342 304h1M342 322h1M342 340h1M342 358h1M342 376h1M342 394h1M342 412h1M342 430h1M342 448h1M342 466h1M342 484h1M342 502h1M342 520h1M342 538h1M342 556h1M342 574h1M342 592h1M342 610h1M342 628h1M342 646h1M342 664h1M342 682h1M342 700h1M342 718h1M342 736h1M342 754h1M342 772h1M342 790h1M342 808h1M360 70h1M360 88h1M360 106h1M360 124h1M360 142h1M360 160h1M360 178h1M360 196h1M360 214h1M360 232h1M360 250h1M360 268h1M360 286h1M360 304h1M360 322h1M360 340h1M360 358h1M360 376h1M360 394h1M360 412h1M360 430h1M360 448h1M360 466h1M360 484h1M360 502h1M360 520h1M360 538h1M360 556h1M360 574h1M360 592h1M360 610h1M360 628h1M360 646h1M360 664h1M360 682h1M360 700h1M360 718h1M360 736h1M360 754h1M360 772h1M360 790h1M360 808h1M378 70h1M378 88h1M378 106h1M378 124h1M378 142h1M378 160h1M378 178h1M378 196h1M378 214h1M378 232h1M378 250h1M378 268h1M378 286h1M378 304h1M378 322h1M378 340h1M378 358h1M378 376h1M378 394h1M378 412h1M378 430h1M378 448h1M378 466h1M378 484h1M378 502h1M378 520h1M378 538h1M378 556h1M378 574h1M378 592h1M378 610h1M378 628h1M378 646h1M378 664h1M378 682h1M378 700h1M378 718h1M378 736h1M378 754h1M378 772h1M378 790h1M378 808h1M396 70h1M396 88h1M396 106h1M396 124h1M396 142h1M396 160h1M396 178h1M396 196h1M396 214h1M396 232h1M396 250h1M396 268h1M396 286h1M396 304h1M396 322h1M396 340h1M396 358h1M396 376h1M396 394h1M396 412h1M396 430h1M396 448h1M396 466h1M396 484h1M396 502h1M396 520h1M396 538h1M396 556h1M396 574h1M396 592h1M396 610h1M396 628h1M396 646h1M396 664h1M396 682h1M396 700h1M396 718h1M396 736h1M396 754h1M396 772h1M396 790h1M396 808h1M414 70h1M414 88h1M414 106h1M414 124h1M414 142h1M414 160h1M414 178h1M414 196h1M414 214h1M414 232h1M414 250h1M414 268h1M414 286h1M414 304h1M414 322h1M414 340h1M414 358h1M414 376h1M414 394h1M414 412h1M414 430h1M414 448h1M414 466h1M414 484h1M414 502h1M414 520h1M414 538h1M414 556h1M414 574h1M414 592h1M414 610h1M414 628h1M414 646h1M414 664h1M414 682h1M414 700h1M414 718h1M414 736h1M414 754h1M414 772h1M414 790h1M414 808h1M432 70h1M432 88h1M432 106h1M432 124h1M432 142h1M432 160h1M432 178h1M432 196h1M432 214h1M432 232h1M432 250h1M432 268h1M432 286h1M432 304h1M432 322h1M432 340h1M432 358h1M432 376h1M432 394h1M432 412h1M432 430h1M432 448h1M432 466h1M432 484h1M432 502h1M432 520h1M432 538h1M432 556h1M432 574h1M432 592h1M432 610h1M432 628h1M432 646h1M432 664h1M432 682h1M432 700h1M432 718h1M432 736h1M432 754h1M432 772h1M432 790h1M432 808h1M450 70h1M450 88h1M450 106h1M450 124h1M450 142h1M450 160h1M450 178h1M450 196h1M450 214h1M450 232h1M450 250h1M450 268h1M450 286h1M450 304h1M450 322h1M450 340h1M450 358h1M450 376h1M450 394h1M450 412h1M450 430h1M450 448h1M450 466h1M450 484h1M450 502h1M450 520h1M450 538h1M450 556h1M450 574h1M450 592h1M450 610h1M450 628h1M450 646h1M450 664h1M450 682h1M450 700h1M450 718h1M450 736h1M450 754h1M450 772h1M450 790h1M450 808h1M468 70h1M468 88h1M468 106h1M468 124h1M468 142h1M468 160h1M468 178h1M468 196h1M468 214h1M468 232h1M468 250h1M468 268h1M468 286h1M468 304h1M468 322h1M468 340h1M468 358h1M468 376h1M468 394h1M468 412h1M468 430h1M468 448h1M468 466h1M468 484h1M468 502h1M468 520h1M468 538h1M468 556h1M468 574h1M468 592h1M468 610h1M468 628h1M468 646h1M468 664h1M468 682h1M468 700h1M468 718h1M468 736h1M468 754h1M468 772h1M468 790h1M468 808h1M486 70h1M486 88h1M486 106h1M486 124h1M486 142h1M486 160h1M486 178h1M486 196h1M486 214h1M486 232h1M486 250h1M486 268h1M486 286h1M486 304h1M486 322h1M486 340h1M486 358h1M486 376h1M486 394h1M486 412h1M486 430h1M486 448h1M486 466h1M486 484h1M486 502h1M486 520h1M486 538h1M486 556h1M486 574h1M486 592h1M486 610h1M486 628h1M486 646h1M486 664h1M486 682h1M486 700h1M486 718h1M486 736h1M486 754h1M486 772h1M486 790h1M486 808h1M504 70h1M504 88h1M504 106h1M504 124h1M504 142h1M504 160h1M504 178h1M504 196h1M504 214h1M504 232h1M504 250h1M504 268h1M504 286h1M504 304h1M504 322h1M504 340h1M504 358h1M504 376h1M504 394h1M504 412h1M504 430h1M504 448h1M504 466h1M504 484h1M504 502h1M504 520h1M504 538h1M504 556h1M504 574h1M504 592h1M504 610h1M504 628h1M504 646h1M504 664h1M504 682h1M504 700h1M504 718h1M504 736h1M504 754h1M504 772h1M504 790h1M504 808h1M522 70h1M522 88h1M522 106h1M522 124h1M522 142h1M522 160h1M522 178h1M522 196h1M522 214h1M522 232h1M522 250h1M522 268h1M522 286h1M522 304h1M522 322h1M522 340h1M522 358h1M522 376h1M522 394h1M522 412h1M522 430h1M522 448h1M522 466h1M522 484h1M522 502h1M522 520h1M522 538h1M522 556h1M522 574h1M522 592h1M522 610h1M522 628h1M522 646h1M522 664h1M522 682h1M522 700h1M522 718h1M522 736h1M522 754h1M522 772h1M522 790h1M522 808h1M540 70h1M540 88h1M540 106h1M540 124h1M540 142h1M540 160h1M540 178h1M540 196h1M540 214h1M540 232h1M540 250h1M540 268h1M540 286h1M540 304h1M540 322h1M540 340h1M540 358h1M540 376h1M540 394h1M540 412h1M540 430h1M540 448h1M540 466h1M540 484h1M540 502h1M540 520h1M540 538h1M540 556h1M540 574h1M540 592h1M540 610h1M540 628h1M540 646h1M540 664h1M540 682h1M540 700h1M540 718h1M540 736h1M540 754h1M540 772h1M540 790h1M540 808h1M558 70h1M558 88h1M558 106h1M558 124h1M558 142h1M558 160h1M558 178h1M558 196h1M558 214h1M558 232h1M558 250h1M558 268h1M558 286h1M558 304h1M558 322h1M558 340h1M558 358h1M558 376h1M558 394h1M558 412h1M558 430h1M558 448h1M558 466h1M558 484h1M558 502h1M558 520h1M558 538h1M558 556h1M558 574h1M558 592h1M558 610h1M558 628h1M558 646h1M558 664h1M558 682h1M558 700h1M558 718h1M558 736h1M558 754h1M558 772h1M558 790h1M558 808h1M576 70h1M576 88h1M576 106h1M576 124h1M576 142h1M576 160h1M576 178h1M576 196h1M576 214h1M576 232h1M576 250h1M576 268h1M576 286h1M576 304h1M576 322h1M576 340h1M576 358h1M576 376h1M576 394h1M576 412h1M576 430h1M576 448h1M576 466h1M576 484h1M576 502h1M576 520h1M576 538h1M576 556h1M576 574h1M576 592h1M576 610h1M576 628h1M576 646h1M576 664h1M576 682h1M576 700h1M576 718h1M576 736h1M576 754h1M576 772h1M576 790h1M576 808h1M594 70h1M594 88h1M594 106h1M594 124h1M594 142h1M594 160h1M594 178h1M594 196h1M594 214h1M594 232h1M594 250h1M594 268h1M594 286h1M594 304h1M594 322h1M594 340h1M594 358h1M594 376h1M594 394h1M594 412h1M594 430h1M594 448h1M594 466h1M594 484h1M594 502h1M594 520h1M594 538h1M594 556h1M594 574h1M594 592h1M594 610h1M594 628h1M594 646h1M594 664h1M594 682h1M594 700h1M594 718h1M594 736h1M594 754h1M594 772h1M594 790h1M594 808h1M612 70h1M612 88h1M612 106h1M612 124h1M612 142h1M612 160h1M612 178h1M612 196h1M612 214h1M612 232h1M612 250h1M612 268h1M612 286h1M612 304h1M612 322h1M612 340h1M612 358h1M612 376h1M612 394h1M612 412h1M612 430h1M612 448h1M612 466h1M612 484h1M612 502h1M612 520h1M612 538h1M612 556h1M612 574h1M612 592h1M612 610h1M612 628h1M612 646h1M612 664h1M612 682h1M612 700h1M612 718h1M612 736h1M612 754h1M612 772h1M612 790h1M612 808h1M630 70h1M630 88h1M630 106h1M630 124h1M630 142h1M630 160h1M630 178h1M630 196h1M630 214h1M630 232h1M630 250h1M630 268h1M630 286h1M630 304h1M630 322h1M630 340h1M630 358h1M630 376h1M630 394h1M630 412h1M630 430h1M630 448h1M630 466h1M630 484h1M630 502h1M630 520h1M630 538h1M630 556h1M630 574h1M630 592h1M630 610h1M630 628h1M630 646h1M630 664h1M630 682h1M630 700h1M630 718h1M630 736h1M630 754h1M630 772h1M630 790h1M630 808h1M648 70h1M648 88h1M648 106h1M648 124h1M648 142h1M648 160h1M648 178h1M648 196h1M648 214h1M648 232h1M648 250h1M648 268h1M648 286h1M648 304h1M648 322h1M648 340h1M648 358h1M648 376h1M648 394h1M648 412h1M648 430h1M648 448h1M648 466h1M648 484h1M648 502h1M648 520h1M648 538h1M648 556h1M648 574h1M648 592h1M648 610h1M648 628h1M648 646h1M648 664h1M648 682h1M648 700h1M648 718h1M648 736h1M648 754h1M648 772h1M648 790h1M648 808h1M666 70h1M666 88h1M666 106h1M666 124h1M666 142h1M666 160h1M666 178h1M666 196h1M666 214h1M666 232h1M666 250h1M666 268h1M666 286h1M666 304h1M666 322h1M666 340h1M666 358h1M666 376h1M666 394h1M666 412h1M666 430h1M666 448h1M666 466h1M666 484h1M666 502h1M666 520h1M666 538h1M666 556h1M666 574h1M666 592h1M666 610h1M666 628h1M666 646h1M666 664h1M666 682h1M666 700h1M666 718h1M666 736h1M666 754h1M666 772h1M666 790h1M666 808h1M684 70h1M684 88h1M684 106h1M684 124h1M684 142h1M684 160h1M684 178h1M684 196h1M684 214h1M684 232h1M684 250h1M684 268h1M684 286h1M684 304h1M684 322h1M684 340h1M684 358h1M684 376h1M684 394h1M684 412h1M684 430h1M684 448h1M684 466h1M684 484h1M684 502h1M684 520h1M684 538h1M684 556h1M684 574h1M684 592h1M684 610h1M684 628h1M684 646h1M684 664h1M684 682h1M684 700h1M684 718h1M684 736h1M684 754h1M684 772h1M684 790h1M684 808h1M702 70h1M702 88h1M702 106h1M702 124h1M702 142h1M702 160h1M702 178h1M702 196h1M702 214h1M702 232h1M702 250h1M702 268h1M702 286h1M702 304h1M702 322h1M702 340h1M702 358h1M702 376h1M702 394h1M702 412h1M702 430h1M702 448h1M702 466h1M702 484h1M702 502h1M702 520h1M702 538h1M702 556h1M702 574h1M702 592h1M702 610h1M702 628h1M702 646h1M702 664h1M702 682h1M702 700h1M702 718h1M702 736h1M702 754h1M702 772h1M702 790h1M702 808h1M720 70h1M720 88h1M720 106h1M720 124h1M720 142h1M720 160h1M720 178h1M720 196h1M720 214h1M720 232h1M720 250h1M720 268h1M720 286h1M720 304h1M720 322h1M720 340h1M720 358h1M720 376h1M720 394h1M720 412h1M720 430h1M720 448h1M720 466h1M720 484h1M720 502h1M720 520h1M720 538h1M720 556h1M720 574h1M720 592h1M720 610h1M720 628h1M720 646h1M720 664h1M720 682h1M720 700h1M720 718h1M720 736h1M720 754h1M720 772h1M720 790h1M720 808h1M738 70h1M738 88h1M738 106h1M738 124h1M738 142h1M738 160h1M738 178h1M738 196h1M738 214h1M738 232h1M738 250h1M738 268h1M738 286h1M738 304h1M738 322h1M738 340h1M738 358h1M738 376h1M738 394h1M738 412h1M738 430h1M738 448h1M738 466h1M738 484h1M738 502h1M738 520h1M738 538h1M738 556h1M738 574h1M738 592h1M738 610h1M738 628h1M738 646h1M738 664h1M738 682h1M738 700h1M738 718h1M738 736h1M738 754h1M738 772h1M738 790h1M738 808h1M756 70h1M756 88h1M756 106h1M756 124h1M756 142h1M756 160h1M756 178h1M756 196h1M756 214h1M756 232h1M756 250h1M756 268h1M756 286h1M756 304h1M756 322h1M756 340h1M756 358h1M756 376h1M756 394h1M756 412h1M756 430h1M756 448h1M756 466h1M756 484h1M756 502h1M756 520h1M756 538h1M756 556h1M756 574h1M756 592h1M756 610h1M756 628h1M756 646h1M756 664h1M756 682h1M756 700h1M756 718h1M756 736h1M756 754h1M756 772h1M756 790h1M756 808h1M774 70h1M774 88h1M774 106h1M774 124h1M774 142h1M774 160h1M774 178h1M774 196h1M774 214h1M774 232h1M774 250h1M774 268h1M774 286h1M774 304h1M774 322h1M774 340h1M774 358h1M774 376h1M774 394h1M774 412h1M774 430h1M774 448h1M774 466h1M774 484h1M774 502h1M774 520h1M774 538h1M774 556h1M774 574h1M774 592h1M774 610h1M774 628h1M774 646h1M774 664h1M774 682h1M774 700h1M774 718h1M774 736h1M774 754h1M774 772h1M774 790h1M774 808h1M792 70h1M792 88h1M792 106h1M792 124h1M792 142h1M792 160h1M792 178h1M792 196h1M792 214h1M792 232h1M792 250h1M792 268h1M792 286h1M792 304h1M792 322h1M792 340h1M792 358h1M792 376h1M792 394h1M792 412h1M792 430h1M792 448h1M792 466h1M792 484h1M792 502h1M792 520h1M792 538h1M792 556h1M792 574h1M792 592h1M792 610h1M792 628h1M792 646h1M792 664h1M792 682h1M792 700h1M792 718h1M792 736h1M792 754h1M792 772h1M792 790h1M792 808h1M810 70h1M810 88h1M810 106h1M810 124h1M810 142h1M810 160h1M810 178h1M810 196h1M810 214h1M810 232h1M810 250h1M810 268h1M810 286h1M810 304h1M810 322h1M810 340h1M810 358h1M810 376h1M810 394h1M810 412h1M810 430h1M810 448h1M810 466h1M810 484h1M810 502h1M810 520h1M810 538h1M810 556h1M810 574h1M810 592h1M810 610h1M810 628h1M810 646h1M810 664h1M810 682h1M810 700h1M810 718h1M810 736h1M810 754h1M810 772h1M810 790h1M810 808h1M828 70h1M828 88h1M828 106h1M828 124h1M828 142h1M828 160h1M828 178h1M828 196h1M828 214h1M828 232h1M828 250h1M828 268h1M828 286h1M828 304h1M828 322h1M828 340h1M828 358h1M828 376h1M828 394h1M828 412h1M828 430h1M828 448h1M828 466h1M828 484h1M828 502h1M828 520h1M828 538h1M828 556h1M828 574h1M828 592h1M828 610h1M828 628h1M828 646h1M828 664h1M828 682h1M828 700h1M828 718h1M828 736h1M828 754h1M828 772h1M828 790h1M828 808h1M846 70h1M846 88h1M846 106h1M846 124h1M846 142h1M846 160h1M846 178h1M846 196h1M846 214h1M846 232h1M846 250h1M846 268h1M846 286h1M846 304h1M846 322h1M846 340h1M846 358h1M846 376h1M846 394h1M846 412h1M846 430h1M846 448h1M846 466h1M846 484h1M846 502h1M846 520h1M846 538h1M846 556h1M846 574h1M846 592h1M846 610h1M846 628h1M846 646h1M846 664h1M846 682h1M846 700h1M846 718h1M846 736h1M846 754h1M846 772h1M846 790h1M846 808h1M864 70h1M864 88h1M864 106h1M864 124h1M864 142h1M864 160h1M864 178h1M864 196h1M864 214h1M864 232h1M864 250h1M864 268h1M864 286h1M864 304h1M864 322h1M864 340h1M864 358h1M864 376h1M864 394h1M864 412h1M864 430h1M864 448h1M864 466h1M864 484h1M864 502h1M864 520h1M864 538h1M864 556h1M864 574h1M864 592h1M864 610h1M864 628h1M864 646h1M864 664h1M864 682h1M864 700h1M864 718h1M864 736h1M864 754h1M864 772h1M864 790h1M864 808h1M882 70h1M882 88h1M882 106h1M882 124h1M882 142h1M882 160h1M882 178h1M882 196h1M882 214h1M882 232h1M882 250h1M882 268h1M882 286h1M882 304h1M882 322h1M882 340h1M882 358h1M882 376h1M882 394h1M882 412h1M882 430h1M882 448h1M882 466h1M882 484h1M882 502h1M882 520h1M882 538h1M882 556h1M882 574h1M882 592h1M882 610h1M882 628h1M882 646h1M882 664h1M882 682h1M882 700h1M882 718h1M882 736h1M882 754h1M882 772h1M882 790h1M882 808h1M900 70h1M900 88h1M900 106h1M900 124h1M900 142h1M900 160h1M900 178h1M900 196h1M900 214h1M900 232h1M900 250h1M900 268h1M900 286h1M900 304h1M900 322h1M900 340h1M900 358h1M900 376h1M900 394h1M900 412h1M900 430h1M900 448h1M900 466h1M900 484h1M900 502h1M900 520h1M900 538h1M900 556h1M900 574h1M900 592h1M900 610h1M900 628h1M900 646h1M900 664h1M900 682h1M900 700h1M900 718h1M900 736h1M900 754h1M900 772h1M900 790h1M900 808h1M918 70h1M918 88h1M918 106h1M918 124h1M918 142h1M918 160h1M918 178h1M918 196h1M918 214h1M918 232h1M918 250h1M918 268h1M918 286h1M918 304h1M918 322h1M918 340h1M918 358h1M918 376h1M918 394h1M918 412h1M918 430h1M918 448h1M918 466h1M918 484h1M918 502h1M918 520h1M918 538h1M918 556h1M918 574h1M918 592h1M918 610h1M918 628h1M918 646h1M918 664h1M918 682h1M918 700h1M918 718h1M918 736h1M918 754h1M918 772h1M918 790h1M918 808h1M936 70h1M936 88h1M936 106h1M936 124h1M936 142h1M936 160h1M936 178h1M936 196h1M936 214h1M936 232h1M936 250h1M936 268h1M936 286h1M936 304h1M936 322h1M936 340h1M936 358h1M936 376h1M936 394h1M936 412h1M936 430h1M936 448h1M936 466h1M936 484h1M936 502h1M936 520h1M936 538h1M936 556h1M936 574h1M936 592h1M936 610h1M936 628h1M936 646h1M936 664h1M936 682h1M936 700h1M936 718h1M936 736h1M936 754h1M936 772h1M936 790h1M936 808h1M954 70h1M954 88h1M954 106h1M954 124h1M954 142h1M954 160h1M954 178h1M954 196h1M954 214h1M954 232h1M954 250h1M954 268h1M954 286h1M954 304h1M954 322h1M954 340h1M954 358h1M954 376h1M954 394h1M954 412h1M954 430h1M954 448h1M954 466h1M954 484h1M954 502h1M954 520h1M954 538h1M954 556h1M954 574h1M954 592h1M954 610h1M954 628h1M954 646h1M954 664h1M954 682h1M954 700h1M954 718h1M954 736h1M954 754h1M954 772h1M954 790h1M954 808h1" stroke="#DCDCDC" stroke-width="1.2" stroke-linecap="round"/><rect x="360" y="106" width="240" height="56" rx="8" fill="#FFFFFF" stroke="#DCDCDC" stroke-width="1.2"/><rect x="372" y="119" width="30" height="30" rx="6" fill="#FFFFFF" stroke="#DCDCDC" stroke-width="1.2"/><rect x="379.8" y="126.8" width="14.399999999999999" height="14.399999999999999" rx="2" fill="#DEDEDE" stroke="none" stroke-width="1.2"/><text x="414" y="131" font-family="DM Sans, -apple-system, BlinkMacSystemFont, sans-serif" font-size="12.5" font-weight="700" fill="#111111" text-anchor="start">Trigger Name</text><text x="414" y="147" font-family="DM Sans, -apple-system, BlinkMacSystemFont, sans-serif" font-size="10.5" font-weight="500" fill="#8C8C8C" text-anchor="start">Message is received in Gmail</text><path d="M480 162 L480 198" stroke="#DCDCDC" stroke-width="1.4" fill="none"/><rect x="360" y="198" width="240" height="56" rx="8" fill="#FFFFFF" stroke="#111111" stroke-width="1.8"/><rect x="372" y="211" width="30" height="30" rx="6" fill="#FFFFFF" stroke="#DCDCDC" stroke-width="1.2"/><rect x="379.8" y="218.8" width="14.399999999999999" height="14.399999999999999" rx="2" fill="#DEDEDE" stroke="none" stroke-width="1.2"/><text x="414" y="223" font-family="DM Sans, -apple-system, BlinkMacSystemFont, sans-serif" font-size="12.5" font-weight="700" fill="#111111" text-anchor="start">Split Path</text><text x="414" y="239" font-family="DM Sans, -apple-system, BlinkMacSystemFont, sans-serif" font-size="10.5" font-weight="500" fill="#8C8C8C" text-anchor="start">Condition based split</text><path d="M480 254 L480 282" stroke="#DCDCDC" stroke-width="1.4" fill="none"/><path d="M280 348 v-50 q0 -12 12 -12 h376 q12 0 12 12 v50" fill="none" stroke="#DCDCDC" stroke-width="1.4"/><rect x="250" y="340" width="60" height="18" rx="9" fill="#F3F3F3" stroke="none" stroke-width="1.2"/><text x="280" y="353" font-family="DM Sans, -apple-system, BlinkMacSystemFont, sans-serif" font-size="10" font-weight="500" fill="#3F3F3F" text-anchor="middle">Path 1</text><rect x="450" y="340" width="60" height="18" rx="9" fill="#F3F3F3" stroke="none" stroke-width="1.2"/><text x="480" y="353" font-family="DM Sans, -apple-system, BlinkMacSystemFont, sans-serif" font-size="10" font-weight="500" fill="#3F3F3F" text-anchor="middle">Path 2</text><rect x="650" y="340" width="60" height="18" rx="9" fill="#EBEBEB" stroke="none" stroke-width="1.2"/><text x="680" y="353" font-family="DM Sans, -apple-system, BlinkMacSystemFont, sans-serif" font-size="10" font-weight="500" fill="#3F3F3F" text-anchor="middle">Other</text><path d="M480 286 L480 340" stroke="#DCDCDC" stroke-width="1.2" fill="none" stroke-dasharray="4 4"/><path d="M280 358 L280 400" stroke="#DCDCDC" stroke-width="1.4" fill="none"/><rect x="160" y="400" width="240" height="56" rx="8" fill="#FFFFFF" stroke="#DCDCDC" stroke-width="1.2"/><rect x="172" y="413" width="30" height="30" rx="6" fill="#FFFFFF" stroke="#DCDCDC" stroke-width="1.2"/><rect x="179.8" y="420.8" width="14.399999999999999" height="14.399999999999999" rx="2" fill="#DEDEDE" stroke="none" stroke-width="1.2"/><text x="214" y="425" font-family="DM Sans, -apple-system, BlinkMacSystemFont, sans-serif" font-size="12.5" font-weight="700" fill="#111111" text-anchor="start">Time Delay</text><text x="214" y="441" font-family="DM Sans, -apple-system, BlinkMacSystemFont, sans-serif" font-size="10.5" font-weight="500" fill="#8C8C8C" text-anchor="start">Wait for 2 days</text><text x="300" y="392" font-family="DM Sans, -apple-system, BlinkMacSystemFont, sans-serif" font-size="9.6" font-weight="500" fill="#8C8C8C" text-anchor="start">If sender contains 123, +4</text><path d="M480 358 L480 400" stroke="#DCDCDC" stroke-width="1.2" fill="none" stroke-dasharray="4 4"/><path d="M680 358 L680 400" stroke="#DCDCDC" stroke-width="1.2" fill="none" stroke-dasharray="4 4"/><rect x="20" y="772" width="28" height="28" rx="6" fill="#FFFFFF" stroke="#DCDCDC" stroke-width="1.2"/><circle cx="34" cy="786" r="5" fill="none" stroke="#3F3F3F" stroke-width="1.2"/><path d="M37.5 789.5 L41 793" stroke="#3F3F3F" stroke-width="1.5" fill="none"/><rect x="56" y="772" width="96" height="28" rx="6" fill="#FFFFFF" stroke="#DCDCDC" stroke-width="1.2"/><text x="70" y="791" font-family="DM Sans, -apple-system, BlinkMacSystemFont, sans-serif" font-size="14" font-weight="500" fill="#3F3F3F" text-anchor="start">−</text><text x="104" y="791" font-family="DM Sans, -apple-system, BlinkMacSystemFont, sans-serif" font-size="11" font-weight="500" fill="#3F3F3F" text-anchor="middle">100%</text><text x="136" y="791" font-family="DM Sans, -apple-system, BlinkMacSystemFont, sans-serif" font-size="14" font-weight="500" fill="#3F3F3F" text-anchor="start">+</text></g><rect x="960" y="52" width="340" height="768" rx="0" fill="#FFFFFF" stroke="none" stroke-width="1.2"/><path d="M960 52 L960 820" stroke="#DCDCDC" stroke-width="1.2" fill="none"/><rect x="984" y="72" width="38" height="38" rx="6" fill="#FFFFFF" stroke="#DCDCDC" stroke-width="1.2"/><rect x="993.88" y="81.88" width="18.24" height="18.24" rx="2" fill="#DEDEDE" stroke="none" stroke-width="1.2"/><text x="1034" y="88" font-family="DM Sans, -apple-system, BlinkMacSystemFont, sans-serif" font-size="13.5" font-weight="700" fill="#111111" text-anchor="start">Split Path</text><text x="1034" y="104" font-family="DM Sans, -apple-system, BlinkMacSystemFont, sans-serif" font-size="10" font-weight="500" fill="#8C8C8C" text-anchor="start">Condition Based Split</text><path d="M976 146 L1284 146" stroke="#EBEBEB" stroke-width="1.2" fill="none"/><text x="1027.3333333333333" y="140" font-family="DM Sans, -apple-system, BlinkMacSystemFont, sans-serif" font-size="11.5" font-weight="700" fill="#111111" text-anchor="middle">Setup</text><rect x="988" y="144" width="78.66666666666667" height="2.5" rx="1.2" fill="#111111"/><text x="1130" y="140" font-family="DM Sans, -apple-system, BlinkMacSystemFont, sans-serif" font-size="11.5" font-weight="500" fill="#8C8C8C" text-anchor="middle">Conditions</text><text x="1232.6666666666665" y="140" font-family="DM Sans, -apple-system, BlinkMacSystemFont, sans-serif" font-size="11.5" font-weight="500" fill="#8C8C8C" text-anchor="middle">Test</text><text x="984" y="180" font-family="DM Sans, -apple-system, BlinkMacSystemFont, sans-serif" font-size="11.5" font-weight="700" fill="#111111" text-anchor="start">How would you like to split the path?</text><rect x="984" y="194" width="292" height="44" rx="7" fill="#FFFFFF" stroke="#111111" stroke-width="1.8"/><circle cx="1002" cy="216" r="7" fill="none" stroke="#111111" stroke-width="1.2"/><circle cx="1002" cy="216" r="3.4" fill="#111111" stroke="#111111" stroke-width="1.2"/><text x="1020" y="213" font-family="DM Sans, -apple-system, BlinkMacSystemFont, sans-serif" font-size="11.5" font-weight="600" fill="#111111" text-anchor="start">Conditional Split</text><text x="1020" y="227" font-family="DM Sans, -apple-system, BlinkMacSystemFont, sans-serif" font-size="9.6" font-weight="500" fill="#8C8C8C" text-anchor="start">Split the path based on conditional logic</text><rect x="984" y="248" width="292" height="44" rx="7" fill="#FFFFFF" stroke="#DCDCDC" stroke-width="1.2"/><circle cx="1002" cy="270" r="7" fill="none" stroke="#8C8C8C" stroke-width="1.2"/><text x="1020" y="267" font-family="DM Sans, -apple-system, BlinkMacSystemFont, sans-serif" font-size="11.5" font-weight="600" fill="#111111" text-anchor="start">Percentage Based Split</text><text x="1020" y="281" font-family="DM Sans, -apple-system, BlinkMacSystemFont, sans-serif" font-size="9.6" font-weight="500" fill="#8C8C8C" text-anchor="start">Split the path based on percentages</text><text x="984" y="328" font-family="DM Sans, -apple-system, BlinkMacSystemFont, sans-serif" font-size="12.5" font-weight="700" fill="#111111" text-anchor="start">Paths</text><text x="984" y="350" font-family="DM Sans, -apple-system, BlinkMacSystemFont, sans-serif" font-size="11" font-weight="600" fill="#3F3F3F" text-anchor="start">First Check</text><rect x="984" y="360" width="292" height="48" rx="7" fill="#FFFFFF" stroke="#DCDCDC" stroke-width="1.2"/><text x="996" y="380" font-family="DM Sans, -apple-system, BlinkMacSystemFont, sans-serif" font-size="11.5" font-weight="700" fill="#111111" text-anchor="start">Path 1</text><text x="996" y="396" font-family="DM Sans, -apple-system, BlinkMacSystemFont, sans-serif" font-size="9.6" font-weight="500" fill="#8C8C8C" text-anchor="start">If sender contains 123, +4</text><path d="M1258 380 l4.6 4.4 -4.6 4.4" stroke="#B4B4B4" stroke-width="1.4" fill="none" stroke-linecap="round" stroke-linejoin="round"/><text x="984" y="430" font-family="DM Sans, -apple-system, BlinkMacSystemFont, sans-serif" font-size="11" font-weight="600" fill="#3F3F3F" text-anchor="start">Then check</text><rect x="984" y="440" width="292" height="48" rx="7" fill="#FFFFFF" stroke="#DCDCDC" stroke-width="1.2"/><text x="996" y="460" font-family="DM Sans, -apple-system, BlinkMacSystemFont, sans-serif" font-size="11.5" font-weight="700" fill="#111111" text-anchor="start">Path 2</text><text x="996" y="476" font-family="DM Sans, -apple-system, BlinkMacSystemFont, sans-serif" font-size="9.6" font-weight="600" fill="#3F3F3F" text-anchor="start">Add Condition</text><path d="M1258 460 l4.6 4.4 -4.6 4.4" stroke="#B4B4B4" stroke-width="1.4" fill="none" stroke-linecap="round" stroke-linejoin="round"/><rect x="984" y="502" width="292" height="72" rx="8" fill="#F3F3F3" stroke="#EBEBEB" stroke-width="1.2"/><rect x="996" y="512" width="120" height="26" rx="6" fill="#FFFFFF" stroke="#DCDCDC" stroke-width="1.2"/><text x="1006" y="529" font-family="DM Sans, -apple-system, BlinkMacSystemFont, sans-serif" font-size="10" font-weight="700" fill="#111111" text-anchor="start">Id contains</text><rect x="996" y="544" width="46" height="24" rx="6" fill="#FFFFFF" stroke="#DCDCDC" stroke-width="1.2"/><text x="1006" y="560" font-family="DM Sans, -apple-system, BlinkMacSystemFont, sans-serif" font-size="9.6" font-weight="700" fill="#111111" text-anchor="start">OR</text><path d="M1028 552 l4 4.6 4 -4.6" stroke="#3F3F3F" stroke-width="1.4" fill="none" stroke-linecap="round" stroke-linejoin="round"/><rect x="1050" y="544" width="120" height="24" rx="6" fill="#FFFFFF" stroke="#DCDCDC" stroke-width="1.2"/><text x="1060" y="560" font-family="DM Sans, -apple-system, BlinkMacSystemFont, sans-serif" font-size="10" font-weight="700" fill="#111111" text-anchor="start">Id contains</text><text x="984" y="600" font-family="DM Sans, -apple-system, BlinkMacSystemFont, sans-serif" font-size="14" font-weight="700" fill="#111111" text-anchor="start">+</text><text x="998" y="600" font-family="DM Sans, -apple-system, BlinkMacSystemFont, sans-serif" font-size="11.5" font-weight="700" fill="#111111" text-anchor="start">Add Condition</text><text x="984" y="640" font-family="DM Sans, -apple-system, BlinkMacSystemFont, sans-serif" font-size="11.5" font-weight="700" fill="#111111" text-anchor="start">Single Endpoint</text><rect x="1234" y="630" width="40" height="20" rx="10" fill="#1C1C1C" stroke="#1C1C1C" stroke-width="1.2"/><circle cx="1264" cy="640" r="7" fill="#FFFFFF" stroke="#FFFFFF" stroke-width="1.2"/><rect x="0.6" y="0.6" width="1298.8" height="818.8" rx="6" fill="none" stroke="#EBEBEB"/></svg>
